<?xml version="1.0" encoding="UTF-8"?>
<!-- Created with Inkscape (http://www.inkscape.org/) -->
<svg width="16.465mm" height="14.966mm" version="1.1" viewBox="0 0 16.465 14.966" xml:space="preserve" xmlns="http://www.w3.org/2000/svg"><g transform="translate(-52.784 -163.8)"><g transform="matrix(.10383 0 0 .10383 51.066 150.64)" fill="none" stroke="#415b90" stroke-linecap="round" stroke-width="5.0966"><path d="m19.092 129.27h153.25"/><path d="m19.092 154.28h134.16"/><path d="m172.57 129.27a20 25 0 0 1-10 21.651 20 25 0 0 1-20 0 20 25 0 0 1-10-21.651h20z"/><path d="m63.21 154.28 11.634 20.15h31.452l11.634-20.15" stroke-linejoin="round"/><path d="m78.379 174.43v93.885"/><path d="m102.72 174.43 0.258 93.885"/></g><flowRoot transform="matrix(.28222 0 0 .28222 45.822 155.65)" fill="#000000" font-family="sans-serif" font-size="10px" letter-spacing="0px" word-spacing="0px" line-height="125%" xml:space="preserve"><flowRegion fill="#000000"><rect x="-109.82" y="23.791" width="133.93" height="63.929" fill="#000"/></flowRegion><flowPara/></flowRoot><flowRoot transform="matrix(.28222 0 0 .28222 45.822 155.65)" fill="#000000" font-family="sans-serif" font-size="7.5px" letter-spacing="0px" word-spacing="0px" line-height="125%" xml:space="preserve"><flowRegion fill="#000000"><rect x="-112.5" y="20.398" width="124.82" height="67.857" fill="#000"/></flowRegion><flowPara/></flowRoot><g transform="matrix(.10383 0 0 .10383 51.066 150.64)" fill="none" stroke="#415b90" stroke-linecap="round" stroke-width="5.0966"><path d="m19.092 129.27h153.25"/><path d="m19.092 154.28h134.16"/><path d="m172.57 129.27a20 25 0 0 1-10 21.651 20 25 0 0 1-20 0 20 25 0 0 1-10-21.651h20z"/><path d="m63.21 154.28 11.634 20.15h31.452l11.634-20.15" stroke-linejoin="round"/><path d="m78.379 174.43v93.885"/><path d="m102.72 174.43 0.258 93.885"/></g><flowRoot transform="matrix(.28222 0 0 .28222 45.822 155.65)" fill="#000000" font-family="sans-serif" font-size="10px" letter-spacing="0px" word-spacing="0px" line-height="125%" xml:space="preserve"><flowRegion fill="#000000"><rect x="-109.82" y="23.791" width="133.93" height="63.929" fill="#000"/></flowRegion><flowPara/></flowRoot><flowRoot transform="matrix(.28222 0 0 .28222 45.822 155.65)" fill="#000000" font-family="sans-serif" font-size="7.5px" letter-spacing="0px" word-spacing="0px" line-height="125%" xml:space="preserve"><flowRegion fill="#000000"><rect x="-112.5" y="20.398" width="124.82" height="67.857" fill="#000"/></flowRegion><flowPara/></flowRoot></g></svg>
