<?xml version="1.0" encoding="UTF-8" standalone="no"?>
<!-- Created with Inkscape (http://www.inkscape.org/) -->

<svg
   width="14.403786mm"
   height="14.617949mm"
   version="1.1"
   viewBox="0 0 14.403786 14.617949"
   id="svg1889"
   sodipodi:docname="minipelle.svg"
   inkscape:version="1.2 (dc2aedaf03, 2022-05-15)"
   xmlns:inkscape="http://www.inkscape.org/namespaces/inkscape"
   xmlns:sodipodi="http://sodipodi.sourceforge.net/DTD/sodipodi-0.dtd"
   xmlns="http://www.w3.org/2000/svg"
   xmlns:svg="http://www.w3.org/2000/svg">
  <defs
     id="defs1893" />
  <sodipodi:namedview
     id="namedview1891"
     pagecolor="#ffffff"
     bordercolor="#000000"
     borderopacity="0.25"
     inkscape:showpageshadow="2"
     inkscape:pageopacity="0.0"
     inkscape:pagecheckerboard="0"
     inkscape:deskcolor="#d1d1d1"
     inkscape:document-units="mm"
     showgrid="false"
     inkscape:zoom="8.8064622"
     inkscape:cx="-27.934032"
     inkscape:cy="48.657451"
     inkscape:window-width="1920"
     inkscape:window-height="1001"
     inkscape:window-x="-9"
     inkscape:window-y="-9"
     inkscape:window-maximized="1"
     inkscape:current-layer="svg1889" />
  <path
     d="m 0.98255,14.561614 c -0.33689,-0.12027 -0.60212,-0.36007 -0.75222,-0.68008 -0.07411,-0.158 -0.08439,-0.22142 -0.08439,-0.52057 0,-0.29915 0.01028,-0.36257 0.08439,-0.52057 0.15304,-0.32628 0.41795,-0.56244 0.76476,-0.68176 0.15928,-0.0548 0.27473,-0.06295 0.89164,-0.06295 H 2.5954 v -0.29199 H 0 v -1.7844 h 0.87511 l 0.0085,-1.1112002 0.0085,-1.1112 1.3139,-0.0176 v -4.4434 h 1.9158 c 2.1337,0 2.1783,0.00366 2.6157,0.21653 0.2584,0.12573 0.53884,0.39078 0.65559,0.61963 0.1134,0.22228 0.15724,0.49211 0.24627,1.516 0.04655,0.53531 0.10571,1.1923 0.13148,1.4599 0.06154,0.63928 0.24242,2.6574 0.24242,2.7046 0,0.05393 0.51724,0.05033 0.53281,-0.0037 0.0064,-0.02231 0.03512,-0.57343 0.06377,-1.2247 0.02864,-0.6513 0.07558,-1.6799 0.10432,-2.2858 l 0.05224,-1.1016 0.21552,-0.23327 c 0.11854,-0.1283 0.98135,-1.0527 1.9174,-2.0541 l 1.7019,-1.8209 0.3022,-0.55693996 c 0.16621,-0.30632 0.30799,-0.56273 0.31506,-0.5698 0.01948,-0.01948 0.48331,0.12984 0.52542,0.16915 0.02024,0.018885 0.11236,0.32633 0.20472,0.6832 0.09236,0.35686996 0.20601,0.78557996 0.25256,0.95267996 0.07489,0.2688 0.07934,0.3118 0.03861,0.3731 -0.05081,0.076481 -0.08015,1.1625 -0.11204,4.149 l -0.01689,1.5816 h 0.10795 c 0.05938,0 0.12547,0.01752 0.14689,0.03894 0.05588,0.05588 0.04856,0.21895 -0.01086,0.24175 -0.02738,0.01049 -0.12845,0.15239 -0.22461,0.3153 l -0.17483,0.2962 0.06346,0.10287 c 0.19399,0.31453 0.3165,1.0105 0.22609,1.2845002 -0.05358,0.16235 -0.27463,0.40208 -0.45506,0.49351 -0.31796,0.16112 -0.4723,0.17929 -1.5231,0.17929 h -0.97672 v -0.07912 c 0,-0.06967 0.01842,-0.08175 0.1541,-0.10115 0.08476,-0.01213 0.2465,-0.03857 0.35942,-0.05876 l 0.20531,-0.03673 0.10861,-0.29199 c 0.05973,-0.1606 0.22799,-0.6131805 0.3739,-1.0057005 0.14591,-0.39256 0.27186,-0.76485 0.2799,-0.8273 0.0081,-0.06245 -0.01463,-0.44934 -0.05038,-0.85974 -0.03575,-0.4104 -0.13361,-1.5784 -0.21747,-2.5954 -0.08386,-1.0171 -0.16234,-1.8606 -0.1744,-1.8744 -0.012,-0.013833 -0.10721,0.095659 -0.21144,0.24332 -0.18058,0.25582 -0.28988,0.48256 -0.80193,1.6635 -0.10832,0.24981 -0.25507,0.5856 -0.32612,0.74619 -0.07105,0.16059 -0.1405,0.36498 -0.15433,0.4542 -0.02158,0.13917 -0.2171,0.61015 -0.87546,2.1088 -0.1236,0.28136 -0.13007,0.31384 -0.17762,0.89218 -0.06029,0.7333 -0.14615,1.8507005 -0.14646,1.9060005 -1.62e-4,0.03127 -0.17191,0.04055 -0.74986,0.04055 H 8.13622 l 0.02364,0.3001 c 0.013,0.16506 0.03295,0.3658 0.04434,0.44609 l 0.02071,0.14599 0.72963,0.01622 c 0.70362,0.01564 0.73612,0.01927 0.91196,0.10171 0.32521,0.15249 0.58859,0.4437 0.6947,0.76811 l 0.05507,0.16836 h 0.67111 l 0.019,-0.50287 h 0.25954 l 0.0087,0.6002 0.0087,0.6002 0.13754,0.12977 c 0.07565,0.07138 0.16522,0.16262 0.19903,0.20277 l 0.06149,0.07299 h -0.78869 v -0.61886 l -0.59068,0.0186 -0.04922,0.14582 c -0.10236,0.3033 -0.37165,0.59441 -0.68638,0.74198 l -0.18233,0.08549 -4.2663,0.0059 c -4.0863,0.0057 -4.2734,0.0034 -4.4354,-0.05439 z m 5.9157,-4.5504 C 6.8865,9.8996838 6.82624,9.2317638 6.76424,8.5269138 c -0.31459,-3.5762 -0.30246,-3.4623 -0.3866,-3.6284 -0.08963,-0.17689 -0.30984,-0.39208 -0.50102,-0.48962 -0.98531,-0.12681 -2.6649,-0.067196 -2.6649,-0.067196 l 0.02163,5.8506002 c 0,0 2.2927,0.02163 3.6861,0.02163 z m 6.8494,-1.6126002 c 0.04015,-0.07032 0.07299,-0.1359 0.07299,-0.14574 0,-0.0099 -0.0584,-0.0179 -0.12977,-0.0179 -0.12931,0 -0.12977,4.61e-4 -0.12977,0.12707 0,0.11004 0.02508,0.15181 0.09733,0.16211 0.009,0.0013 0.04907,-0.05522 0.08922,-0.12552 z m 0.12287,-2.0697 c -0.0092,-0.86988 -0.02788,-2.0109 -0.04145,-2.5356 -0.02129,-0.82396 -0.03084,-0.94655 -0.07003,-0.89927 -0.03633,0.043837 -0.05681,0.4537 -0.10277,2.0571 -0.03157,1.1013 -0.06531,2.2177 -0.07499,2.4809 l -0.0176,0.47854 h 0.32364 z m -3.6503,0.47679 c 0.14369,-0.32861 0.29664,-0.63442 0.33989,-0.67956 0.06723,-0.07018 0.46282,-0.92284 0.66981,-1.4437 0.08684,-0.21854 0.0724,-0.20126 -0.62059,0.7426 l -0.59286,0.80748 -0.04348,0.49024 c -0.04657,0.52494 -0.05497,0.72138 -0.02976,0.69619 0.0087,-0.0087 0.13331,-0.28462 0.277,-0.61323 z"
     fill="#415b90"
     stroke-width="0.032443"
     id="path1887" />
</svg>
