<?xml version="1.0" encoding="UTF-8" standalone="no"?>
<svg
   id="headerlogo"
   width="15.073329mm"
   height="17.414457mm"
   version="1.1"
   viewBox="0 0 53.409978 61.7054"
   sodipodi:docname="circle-taille.svg"
   inkscape:version="1.2 (dc2aedaf03, 2022-05-15)"
   xmlns:inkscape="http://www.inkscape.org/namespaces/inkscape"
   xmlns:sodipodi="http://sodipodi.sourceforge.net/DTD/sodipodi-0.dtd"
   xmlns="http://www.w3.org/2000/svg"
   xmlns:svg="http://www.w3.org/2000/svg"
   xmlns:rdf="http://www.w3.org/1999/02/22-rdf-syntax-ns#"
   xmlns:cc="http://creativecommons.org/ns#"
   xmlns:dc="http://purl.org/dc/elements/1.1/">
  <defs
     id="defs2076" />
  <sodipodi:namedview
     id="namedview2074"
     pagecolor="#ffffff"
     bordercolor="#000000"
     borderopacity="0.25"
     inkscape:showpageshadow="2"
     inkscape:pageopacity="0.0"
     inkscape:pagecheckerboard="0"
     inkscape:deskcolor="#d1d1d1"
     inkscape:document-units="mm"
     showgrid="false"
     inkscape:zoom="8.8064622"
     inkscape:cx="5.3369899"
     inkscape:cy="37.302153"
     inkscape:window-width="1920"
     inkscape:window-height="1001"
     inkscape:window-x="-9"
     inkscape:window-y="-9"
     inkscape:window-maximized="1"
     inkscape:current-layer="headerlogo" />
  <metadata
     id="metadata2045">
    <rdf:RDF>
      <cc:Work
         rdf:about="">
        <dc:format>image/svg+xml</dc:format>
        <dc:type
           rdf:resource="http://purl.org/dc/dcmitype/StillImage" />
      </cc:Work>
    </rdf:RDF>
  </metadata>
  <g
     transform="matrix(0.1541712,0.11927291,-0.11927291,0.1541712,50.257544,-66.26563)"
     fill="#415b90"
     id="g2051"
     style="fill-rule:evenodd">
    <path
       d="M 239.14,282.68 204.81,445.9 c 0,0 -4.0699,2.7689 -7.1973,9.849 -2.7617,6.2521 -53.401,150.94 -51.265,154.68 2.069,3.6247 7.955,5.5558 11.617,4.672 3.6618,-0.88388 10.607,-6.1872 10.228,-9.2176 -0.37881,-3.0305 -0.75762,-8.9651 0.37881,-12.753 1.1364,-3.7881 33.714,-118.06 33.714,-118.06 l 7.4491,0.15933 0.89286,-5.3572 c 0,0 -3.0357,-0.89285 -2.6786,-5.1786 0.35714,-4.2857 3.5714,-5.4464 4.8214,-5.625 1.25,-0.17857 1.8416,-0.19481 1.8416,-0.19481 0,0 7.801,-15.298 10.301,-23.466 6.7974,-22.207 11.698,-65.595 14.554,-85.714 2.8559,-20.119 3.7775,-40.536 3.5714,-47.5 -0.22147,-7.484 -3.8979,-19.508 -3.8979,-19.508 z"
       id="path2047" />
    <path
       d="m 190.19,282.68 34.329,163.22 c 0,0 4.0699,2.7689 7.1973,9.849 2.7617,6.2521 53.401,150.94 51.265,154.68 -2.069,3.6247 -7.955,5.5558 -11.617,4.672 -3.6618,-0.88388 -10.607,-6.1872 -10.228,-9.2176 0.37881,-3.0305 0.75762,-8.9651 -0.37881,-12.753 -1.1364,-3.7881 -33.714,-118.06 -33.714,-118.06 l -7.4491,0.15933 -0.89286,-5.3572 c 0,0 3.0357,-0.89285 2.6786,-5.1786 -0.35714,-4.2857 -3.5714,-5.4464 -4.8214,-5.625 -1.25,-0.17857 -1.8416,-0.19481 -1.8416,-0.19481 0,0 -7.801,-15.298 -10.301,-23.466 -6.7974,-22.207 -11.698,-65.595 -14.554,-85.714 -2.8559,-20.119 -3.7775,-40.536 -3.5714,-47.5 0.22147,-7.484 3.8979,-19.508 3.8979,-19.508 z"
       id="path2049" />
  </g>
</svg>
