<?xml version="1.0" encoding="UTF-8" standalone="no"?>
<!-- Created with Inkscape (http://www.inkscape.org/) -->

<svg
   width="845mm"
   height="598mm"
   viewBox="0 0 845 598"
   version="1.1"
   id="svg66137"
   sodipodi:docname="auto hinten final.svg"
   inkscape:version="1.1 (c68e22c387, 2021-05-23)"
   inkscape:export-filename="F:\Leon\ELAGAGE\autohinten.png"
   inkscape:export-xdpi="300"
   inkscape:export-ydpi="300"
   xmlns:inkscape="http://www.inkscape.org/namespaces/inkscape"
   xmlns:sodipodi="http://sodipodi.sourceforge.net/DTD/sodipodi-0.dtd"
   xmlns="http://www.w3.org/2000/svg"
   xmlns:svg="http://www.w3.org/2000/svg">
  <sodipodi:namedview
     id="namedview66139"
     pagecolor="#ffffff"
     bordercolor="#666666"
     borderopacity="1.0"
     inkscape:pageshadow="2"
     inkscape:pageopacity="0.0"
     inkscape:pagecheckerboard="0"
     inkscape:document-units="mm"
     showgrid="false"
     fit-margin-top="0"
     fit-margin-left="0"
     fit-margin-right="0"
     fit-margin-bottom="0"
     inkscape:zoom="0.17416176"
     inkscape:cx="1613.4426"
     inkscape:cy="1435.4472"
     inkscape:window-width="1920"
     inkscape:window-height="986"
     inkscape:window-x="-11"
     inkscape:window-y="-11"
     inkscape:window-maximized="1"
     inkscape:current-layer="layer1"
     showguides="true"
     inkscape:guide-bbox="true">
    <sodipodi:guide
       position="425.15939,714.23437"
       orientation="1,0"
       id="guide83748" />
  </sodipodi:namedview>
  <defs
     id="defs66134" />
  <g
     inkscape:label="Layer 1"
     inkscape:groupmode="layer"
     id="layer1"
     transform="translate(280.73947,66.558784)">
    <rect
       style="fill:#36606c;fill-opacity:1;stroke-width:2.85259;stroke-linecap:square;stroke-linejoin:round"
       id="rect30002"
       width="845"
       height="598"
       x="-280.73947"
       y="-66.558784" />
    <g
       id="g83746"
       transform="translate(21.900459,49.000001)">
      <g
         id="g30058"
         transform="translate(-1220.5518,-1374.6377)">
        <g
           id="g30022"
           transform="translate(1020.2295,1243.1708)">
          <g
             transform="matrix(0.16836357,0.1302527,-0.1302527,0.16836357,447.94769,56.181969)"
             fill="#415b90"
             id="g30016"
             style="fill:#ffffde;fill-opacity:1;fill-rule:evenodd">
            <path
               d="M 239.14,282.68 204.81,445.9 c 0,0 -4.0699,2.7689 -7.1973,9.849 -2.7617,6.2521 -53.401,150.94 -51.265,154.68 2.069,3.6247 7.955,5.5558 11.617,4.672 3.6618,-0.88388 10.607,-6.1872 10.228,-9.2176 -0.37881,-3.0305 -0.75762,-8.9651 0.37881,-12.753 1.1364,-3.7881 33.714,-118.06 33.714,-118.06 l 7.4491,0.15933 0.89286,-5.3572 c 0,0 -3.0357,-0.89285 -2.6786,-5.1786 0.35714,-4.2857 3.5714,-5.4464 4.8214,-5.625 1.25,-0.17857 1.8416,-0.19481 1.8416,-0.19481 0,0 7.801,-15.298 10.301,-23.466 6.7974,-22.207 11.698,-65.595 14.554,-85.714 2.8559,-20.119 3.7775,-40.536 3.5714,-47.5 -0.22147,-7.484 -3.8979,-19.508 -3.8979,-19.508 z"
               id="path30012"
               style="fill:#ffffde;fill-opacity:1" />
            <path
               d="m 190.19,282.68 34.329,163.22 c 0,0 4.0699,2.7689 7.1973,9.849 2.7617,6.2521 53.401,150.94 51.265,154.68 -2.069,3.6247 -7.955,5.5558 -11.617,4.672 -3.6618,-0.88388 -10.607,-6.1872 -10.228,-9.2176 0.37881,-3.0305 0.75762,-8.9651 -0.37881,-12.753 -1.1364,-3.7881 -33.714,-118.06 -33.714,-118.06 l -7.4491,0.15933 -0.89286,-5.3572 c 0,0 3.0357,-0.89285 2.6786,-5.1786 -0.35714,-4.2857 -3.5714,-5.4464 -4.8214,-5.625 -1.25,-0.17857 -1.8416,-0.19481 -1.8416,-0.19481 0,0 -7.801,-15.298 -10.301,-23.466 -6.7974,-22.207 -11.698,-65.595 -14.554,-85.714 -2.8559,-20.119 -3.7775,-40.536 -3.5714,-47.5 0.22147,-7.484 3.8979,-19.508 3.8979,-19.508 z"
               id="path30014"
               style="fill:#ffffde;fill-opacity:1" />
          </g>
          <text
             xml:space="preserve"
             style="font-style:normal;font-variant:normal;font-weight:normal;font-stretch:normal;font-size:38.8056px;line-height:1.25;font-family:'Zag Regular';-inkscape-font-specification:'Zag Regular, ';fill:#ffffde;fill-opacity:1;stroke:none;stroke-width:0.249975"
             x="480.32401"
             y="175.70616"
             id="text30020"><tspan
               sodipodi:role="line"
               id="tspan30018"
               style="font-style:normal;font-variant:normal;font-weight:normal;font-stretch:normal;font-size:38.8056px;font-family:'Zag Regular';-inkscape-font-specification:'Zag Regular, ';fill:#ffffde;fill-opacity:1;stroke-width:0.249975"
               x="480.32401"
               y="175.70616">Taille</tspan></text>
        </g>
        <g
           id="g30034"
           transform="translate(1020.2295,1242.9665)">
          <g
             transform="matrix(4.271885,0,0,4.271885,86.995832,208.86423)"
             fill="#415b90"
             stroke-width="0.66635"
             id="g30028"
             style="fill:#ffffde;fill-opacity:1">
            <path
               d="M 83.05,12.964 81.1596,5.0529 74.4044,9.5492 Z m -5.7824,-3.7168 3.0414,-2.0227 0.85068,3.56 z"
               id="path30024"
               style="fill:#ffffde;fill-opacity:1" />
            <path
               d="m 80.546,12.365 -6.6627,-0.10457 -2.6612,3.9568 4.6106,0.07236 -0.04183,4.2913 2.6318,0.0413 0.04183,-4.2913 4.6839,0.07351 z m -6.8444,2.5583 0.97018,-1.471 5.0043,0.11532 1.0014,1.4652 z"
               id="path30026"
               style="fill:#ffffde;fill-opacity:1" />
          </g>
          <text
             xml:space="preserve"
             style="font-style:normal;font-variant:normal;font-weight:normal;font-stretch:normal;font-size:38.8056px;line-height:1.25;font-family:'Zag Regular';-inkscape-font-specification:'Zag Regular, ';fill:#ffffde;fill-opacity:1;stroke:none;stroke-width:0.249975"
             x="480.09067"
             y="273.30914"
             id="text30032"><tspan
               sodipodi:role="line"
               id="tspan30030"
               style="font-style:normal;font-variant:normal;font-weight:normal;font-stretch:normal;font-size:38.8056px;font-family:'Zag Regular';-inkscape-font-specification:'Zag Regular, ';fill:#ffffde;fill-opacity:1;stroke-width:0.249975"
               x="480.09067"
               y="273.30914">Démontage</tspan></text>
        </g>
        <g
           id="g30046"
           transform="translate(1020.2295,1242.7621)">
          <g
             transform="matrix(4.2087038,0,0,4.2087038,361.53613,318.57079)"
             fill="#415b90"
             id="g30040"
             style="fill:#ffffde;fill-opacity:1">
            <path
               transform="matrix(0.47069,0.4857,-0.4857,0.47069,14.631,-1.7141)"
               d="m 17,12 h 2 L 12,2 5.05,12 H 7 l -3.9,6 h 6.92 v 4 h 3.95 V 18 H 21 Z m -10.21,4 3.9,-6 H 8.88 l 3.13,-4.5 3.15,4.5 h -1.9 l 4,6 z"
               id="path30036"
               style="fill:#ffffde;fill-opacity:1" />
            <rect
               x="7.8552999"
               y="15.426"
               width="2.6659999"
               height="1.6619999"
               id="rect30038"
               style="fill:#ffffde;fill-opacity:1" />
          </g>
          <text
             xml:space="preserve"
             style="font-style:normal;font-variant:normal;font-weight:normal;font-stretch:normal;font-size:38.8056px;line-height:1.25;font-family:'Zag Regular';-inkscape-font-specification:'Zag Regular, ';fill:#ffffde;fill-opacity:1;stroke:none;stroke-width:0.249975"
             x="480.35733"
             y="374.9285"
             id="text30044"><tspan
               sodipodi:role="line"
               id="tspan30042"
               style="font-style:normal;font-variant:normal;font-weight:normal;font-stretch:normal;font-size:38.8056px;font-family:'Zag Regular';-inkscape-font-specification:'Zag Regular, ';fill:#ffffde;fill-opacity:1;stroke-width:0.249975"
               x="480.35733"
               y="374.9285">Abattage</tspan></text>
        </g>
        <g
           id="g30056"
           transform="translate(1020.2295,1243.1708)">
          <path
             d="m 395.27981,494.18926 c -1.43915,-0.51378 -2.57218,-1.53818 -3.2134,-2.90523 -0.31653,-0.67495 -0.36054,-0.94587 -0.36054,-2.22381 0,-1.27793 0.0439,-1.54885 0.36054,-2.22381 0.65378,-1.39383 1.78544,-2.40268 3.26698,-2.9124 0.68043,-0.2341 1.17361,-0.26913 3.80899,-0.26913 h 3.02735 v -1.24735 h -11.08726 v -7.62275 h 3.73836 l 0.0385,-4.74693 0.0385,-4.74691 5.61283,-0.0752 v -18.98171 h 8.18408 c 9.11491,0 9.30545,0.017 11.17396,0.925 1.10385,0.5371 2.30187,1.66937 2.8006,2.64699 0.48445,0.94955 0.67172,2.10223 1.05205,6.47617 0.19864,2.28679 0.45158,5.09338 0.56166,6.23654 0.26273,2.73093 1.0356,11.35209 1.0356,11.55372 0,0.23027 2.20959,0.21489 2.27609,-0.017 0.0256,-0.0952 0.14995,-2.44963 0.27255,-5.23177 0.12219,-2.78228 0.32297,-7.17634 0.44565,-9.76469 l 0.223,-4.70589 0.92067,-0.99652 c 0.50637,-0.54808 4.19222,-4.49701 8.19092,-8.77487 l 7.27032,-7.77867 1.29095,-2.37919 c 0.71003,-1.30856 1.31571,-2.40392 1.34591,-2.43413 0.0833,-0.0833 2.06463,0.55467 2.24454,0.72261 0.0863,0.0807 0.47999,1.39403 0.87454,2.91853 0.39472,1.52452 0.88005,3.35591 1.07891,4.06975 0.31995,1.14829 0.33875,1.33198 0.16488,1.59384 -0.21701,0.32679 -0.34259,4.96607 -0.47862,17.72405 l -0.0723,6.75641 h 0.46116 c 0.25374,0 0.53598,0.0748 0.62749,0.16619 0.2388,0.23879 0.20761,0.93531 -0.0467,1.03272 -0.11703,0.0449 -0.54871,0.65099 -0.95949,1.34692 l -0.74687,1.26534 0.27127,0.43945 c 0.82871,1.34363 1.35205,4.31674 0.96584,5.48723 -0.22898,0.69354 -1.1732,1.71764 -1.94397,2.10822 -1.35829,0.68829 -2.0176,0.7659 -6.5065,0.7659 h -4.17244 v -0.3379 c 0,-0.29776 0.0786,-0.34901 0.65829,-0.4321 0.36225,-0.0518 1.05302,-0.1649 1.5354,-0.25119 l 0.87706,-0.15678 0.46397,-1.24735 c 0.25504,-0.68606 0.97395,-2.61945 1.59726,-4.29623 0.62331,-1.67698 1.16136,-3.26736 1.1957,-3.53413 0.0342,-0.26699 -0.0623,-1.91953 -0.2153,-3.6727 -0.15294,-1.75319 -0.57077,-6.74276 -0.929,-11.08725 -0.35843,-4.34494 -0.69351,-7.94828 -0.74502,-8.00724 -0.0512,-0.0591 -0.45799,0.40882 -0.90326,1.03943 -0.7714,1.09284 -1.23832,2.06145 -3.42575,7.1063 -0.46272,1.06715 -1.08963,2.50161 -1.39314,3.18762 -0.30375,0.68603 -0.60019,1.55916 -0.65928,1.94031 -0.0924,0.59451 -0.92742,2.60648 -3.73987,9.00855 -0.52799,1.20193 -0.55564,1.34068 -0.75877,3.81127 -0.25759,3.13259 -0.62433,7.90599 -0.62566,8.14222 -5.6e-4,0.13371 -0.73437,0.17344 -3.20331,0.17344 h -3.20235 l 0.10084,1.282 c 0.0555,0.7051 0.14055,1.56264 0.18925,1.90564 l 0.0883,0.62366 3.11691,0.0693 c 3.00577,0.0667 3.14462,0.0824 3.89579,0.43449 1.38926,0.65142 2.51438,1.89543 2.96766,3.28128 l 0.23539,0.71921 h 2.8669 l 0.0811,-2.14821 h 1.10873 l 0.0384,2.56398 0.0385,2.56399 0.58757,0.55437 c 0.32296,0.30502 0.70579,0.69469 0.85023,0.8662 l 0.26271,0.31186 h -3.36919 v -2.6437 l -2.52331,0.0795 -0.21018,0.62293 c -0.43727,1.29566 -1.58765,2.53926 -2.93213,3.16965 l -0.7789,0.36526 -18.22514,0.0256 c -17.4562,0.0256 -18.25547,0.0129 -18.94752,-0.23239 z m 25.2712,-19.43879 c -0.0505,-0.47643 -0.30759,-3.32971 -0.57249,-6.34076 -1.34389,-15.27711 -1.29207,-14.79054 -1.6515,-15.50011 -0.38277,-0.75564 -1.3236,-1.6749 -2.14031,-2.09159 -4.20912,-0.54171 -11.38414,-0.28707 -11.38414,-0.28707 l 0.0923,24.99309 c 0,0 9.79414,0.0923 15.74659,0.0923 z m 29.25984,-6.88885 c 0.17172,-0.3003 0.31185,-0.58054 0.31185,-0.62257 0,-0.0427 -0.24948,-0.0765 -0.55437,-0.0765 -0.55239,0 -0.55435,10e-4 -0.55435,0.54282 0,0.47008 0.10715,0.64852 0.41564,0.69254 0.0385,0.005 0.20976,-0.23583 0.38106,-0.53623 z m 0.52488,-8.8415 c -0.0385,-3.71602 -0.11917,-8.59034 -0.17685,-10.8318 -0.091,-3.51987 -0.13157,-4.04355 -0.29904,-3.84158 -0.15505,0.18711 -0.24263,1.93816 -0.43902,8.78771 -0.13498,4.70462 -0.27894,9.47374 -0.32038,10.59812 l -0.0752,2.04426 h 1.38257 z m -15.59366,2.03678 c 0.61383,-1.40378 1.26721,-2.71017 1.45198,-2.903 0.28707,-0.29989 1.97712,-3.94227 2.86135,-6.16732 0.37079,-0.93357 0.3093,-0.85976 -2.6511,3.1723 l -2.53262,3.44946 -0.18582,2.09424 c -0.19907,2.24251 -0.23496,3.08167 -0.1273,2.97405 0.0385,-0.0384 0.56947,-1.21585 1.1833,-2.61963 z"
             fill="#415b90"
             stroke-width="0.138592"
             id="path30048"
             style="fill:#ffffde;fill-opacity:1" />
          <text
             xml:space="preserve"
             style="font-style:normal;font-variant:normal;font-weight:normal;font-stretch:normal;font-size:38.8056px;line-height:0.95;font-family:'Zag Regular';-inkscape-font-specification:'Zag Regular, ';fill:#ffffde;fill-opacity:1;stroke:none;stroke-width:0.249975"
             x="480.35733"
             y="457.32745"
             id="text30054"><tspan
               sodipodi:role="line"
               id="tspan30050"
               style="font-style:normal;font-variant:normal;font-weight:normal;font-stretch:normal;font-size:38.8056px;font-family:'Zag Regular';-inkscape-font-specification:'Zag Regular, ';fill:#ffffde;fill-opacity:1;stroke-width:0.249975"
               x="480.35733"
               y="457.32745">Aménagement</tspan><tspan
               sodipodi:role="line"
               style="font-style:normal;font-variant:normal;font-weight:normal;font-stretch:normal;font-size:38.8056px;font-family:'Zag Regular';-inkscape-font-specification:'Zag Regular, ';fill:#ffffde;fill-opacity:1;stroke-width:0.249975"
               x="480.35733"
               y="494.19278"
               id="tspan30052">paysager</tspan></text>
        </g>
      </g>
      <path
         style="fill:#f5f4db;stroke-width:0.38718"
         d="m -80.270558,156.65701 c -0.116574,-0.18874 0.294717,-1.46086 0.914027,-2.82675 3.0373,-6.69866 3.296086,-19.01965 0.624659,-29.74037 -0.504047,-2.02296 -1.202587,-4.89776 -1.552311,-6.3884 -0.355578,-1.51588 -1.095903,-3.33121 -1.679786,-4.11917 -3.609273,-4.8708 -5.557332,-7.19866 -6.342671,-7.57907 -1.741858,-0.84368 -3.549826,-1.27233 -5.36718,-1.27233 -1.280505,0 -2.48733,-0.34104 -3.974745,-1.12346 -1.174724,-0.618 -2.716935,-1.2371 -3.427075,-1.37588 -0.71026,-0.13879 -1.93354,-0.52586 -2.71858,-0.86014 -1.86864,-0.79563 -3.48262,-0.47093 -6.1267,1.23257 -2.42374,1.5616 -3.28963,1.66697 -4.48303,0.54593 -0.47225,-0.44369 -1.44178,-0.94632 -2.15436,-1.1169 -0.71277,-0.17057 -1.58289,-0.42925 -1.93382,-0.57469 -0.9868,-0.40907 -2.2658,1.21671 -2.2658,2.87984 0,1.11004 -0.30541,1.69534 -1.486,2.84817 -1.35438,1.32249 -1.7257,1.47106 -4.19578,1.67807 -1.71944,0.14422 -3.24168,0.0514 -4.16479,-0.25294 -1.39283,-0.45964 -1.44603,-0.54028 -1.24487,-1.88992 0.53836,-3.61281 0.64797,-3.35998 -1.39496,-3.21706 -2.25308,0.15766 -2.68254,-0.51111 -1.42242,-2.21542 0.74134,-1.00275 0.7909,-1.26285 0.34307,-1.802412 -0.38556,-0.464683 -0.88547,-0.568038 -1.89992,-0.393028 -0.75718,0.130709 -2.26831,0.37021 -3.35796,0.532305 -1.60267,0.238398 -2.36924,0.643535 -4.01047,2.119135 -1.87539,1.68615 -3.49411,2.35451 -3.49411,1.4427 0,-0.20983 0.21286,-1.17755 0.47306,-2.15032 0.40009,-1.495988 0.38515,-1.824319 -0.0969,-2.129126 -0.79159,-0.500613 -3.37178,-0.463269 -3.69113,0.05349 -0.14473,0.234162 -1.31987,0.925429 -2.61147,1.536366 -2.42264,1.14565 -3.36594,1.04725 -3.36594,-0.35104 0,-0.339422 -0.28503,-1.363468 -0.63344,-2.275574 -0.78251,-2.04919 -1.66374,-2.154159 -3.9823,-0.474474 -1.17574,0.851656 -1.97996,1.150505 -2.86522,1.064717 -1.14042,-0.110422 -1.23064,-0.224672 -1.23064,-1.557157 0,-0.836411 -0.27504,-1.712991 -0.65767,-2.09572 -0.61871,-0.618905 -0.84741,-0.571872 -3.87179,0.796644 -4.34798,1.96764 -4.82034,2.307372 -5.75536,4.140272 -0.74648,1.463182 -0.90222,1.566842 -2.01911,1.343482 -0.66553,-0.13283 -1.57825,-0.58783 -2.0281,-1.01041 -0.50839,-0.477707 -1.35439,-0.768488 -2.23591,-0.768488 -1.52628,0 -2.27901,-0.765858 -2.75025,-2.798702 -0.15625,-0.67361 -1.00457,-1.617511 -2.3415,-2.605217 l -2.09642,-1.548677 -1.77183,0.656654 c -1.52183,0.563999 -1.94927,0.58479 -3.02842,0.147257 -0.69107,-0.280183 -1.86631,-0.637073 -2.61158,-0.793213 -0.74537,-0.156139 -1.91273,-0.574596 -2.59421,-0.929972 -1.51315,-0.788974 -2.77499,-0.806738 -3.77147,-0.0535 -1.17049,0.885363 -2.15225,0.723168 -2.15225,-0.355376 0,-0.670078 0.36164,-1.095499 1.31685,-1.548778 0.72428,-0.343668 1.50679,-0.62486 1.73903,-0.62486 0.23214,0 0.64141,-0.358404 0.90938,-0.796341 0.26797,-0.437938 1.03666,-1.138799 1.70825,-1.557156 1.08833,-0.678253 1.41162,-0.709944 2.97553,-0.291688 2.21946,0.593673 3.60665,0.04743 4.19951,-1.652939 0.35811,-1.027169 0.56552,-1.169178 1.44967,-0.992348 1.64224,0.328428 2.14972,-0.199842 1.62851,-1.694925 -0.24182,-0.693494 -0.43955,-1.687962 -0.43955,-2.210075 0,-0.910494 -0.0747,-0.938653 -1.83916,-0.690667 -1.01152,0.142414 -2.88448,0.293809 -4.16216,0.337007 -1.27768,0.04239 -2.96948,0.379296 -3.75956,0.747088 -1.1496,0.535234 -1.62861,0.581258 -2.39851,0.230423 -1.11801,-0.509395 -1.59107,-1.450774 -1.01748,-2.024362 0.21993,-0.219927 0.39988,-0.877893 0.39988,-1.462078 0,-1.341669 -1.26264,-2.267605 -3.09251,-2.267605 -0.75435,0 -1.99387,-0.333575 -2.7547,-0.741334 l -1.38314,-0.741335 -1.79152,1.165445 c -1.49185,0.970446 -1.97198,1.105592 -2.87005,0.80825 -0.84651,-0.280183 -1.1055,-0.632833 -1.20391,-1.63911 -0.23598,-2.414458 0.16442,-3.110878 1.78889,-3.110878 1.96866,0 3.25492,-0.938755 3.1015,-2.263669 -0.0716,-0.620722 -0.46368,-1.178565 -0.99003,-1.409494 -1.25971,-0.552695 -1.07935,-1.780817 0.48397,-3.296086 1.27101,-1.231856 1.74366,-2.481578 1.04947,-2.77478 -0.65867,-0.278064 -2.82706,-4.31831 -2.61471,-4.871813 0.18097,-0.471446 0.58671,-0.528875 2.05687,-0.291386 2.43827,0.393932 5.1091,0.258382 6.12728,-0.310967 0.45489,-0.254445 1.72157,-0.944608 2.81496,-1.533839 1.65545,-0.892126 1.9859,-1.248208 1.97561,-2.129432 -0.0101,-0.582066 -0.26818,-1.396373 -0.58076,-1.809784 -0.77323,-1.022324 -0.73659,-1.178565 0.56955,-2.423038 1.04735,-0.998101 1.11296,-1.216515 0.8235,-2.745207 -0.173,-0.913521 -0.42281,-1.769211 -0.55513,-1.90163 -0.13231,-0.132219 -1.33057,-0.22659 -2.66264,-0.20933 -1.48116,0.01817 -2.7551,-0.18218 -3.27953,-0.518279 -0.50103,-0.321161 -1.84058,-0.549667 -3.22261,-0.549667 -2.02164,0 -2.34653,-0.09589 -2.23773,-0.661095 0.0757,-0.394436 0.77323,-0.848219 1.72793,-1.124668 2.14406,-0.620722 3.61532,-1.630733 4.05326,-2.782552 0.3257,-0.856798 0.51192,-0.92422 1.92696,-0.697934 0.86145,0.137771 1.68515,0.267163 1.83038,0.287552 1.17847,0.165425 2.4839,-0.20499 3.59454,-1.019903 2.52579,-1.853184 4.2962,-2.501965 6.85217,-2.510847 3.50491,-0.01312 5.49808,1.217019 5.49808,3.390658 0,0.40685 0.36628,1.071276 0.81401,1.476511 0.44762,0.405136 1.08177,1.259714 1.40909,1.899108 0.84751,1.65526 1.22287,1.778596 2.8635,0.94158 0.80138,-0.408768 2.28396,-1.02404 3.29467,-1.367204 1.76659,-0.599728 8.65459,-4.943271 8.65459,-5.457511 0,-0.137468 -0.25737,-0.534225 -0.57188,-0.881729 -0.3145,-0.347605 -0.6194,-1.050282 -0.67754,-1.561596 -0.13112,-1.152828 1.37144,-1.983889 4.05286,-2.241564 1.72631,-0.16583 1.84268,-0.246776 1.84268,-1.280405 0,-1.429275 0.94785,-2.006901 4.69963,-2.864002 2.91528,-0.66594 2.99421,-0.663517 5.57197,0.169159 3.17618,1.026161 3.90631,0.675326 2.51397,-1.207935 -0.87628,-1.185126 -0.88465,-1.255576 -0.1961,-1.648195 0.39554,-0.225479 1.27475,-0.998706 1.95371,-1.718139 1.14041,-1.208239 1.49801,-1.338237 4.68852,-1.704412 4.15218,-0.476594 5.61042,-0.02321 5.9339,1.8442 0.24748,1.428873 1.52516,2.122871 3.92236,2.130542 1.11438,0.01009 1.9739,0.225277 2.27367,0.586507 1.04261,1.25618 2.88994,0.279072 2.64316,-1.39809 -0.0827,-0.564302 -0.54956,-1.004257 -1.357,-1.279697 -1.90477,-0.649588 -1.9298,-0.899492 -0.26597,-2.654067 2.85856,-3.01449 3.62594,-4.168024 3.62594,-5.45085 0,-1.181896 0.0959,-1.259612 2.13195,-1.733077 1.9094,-0.443892 2.2559,-0.422798 3.31981,0.202466 1.15353,0.677849 1.20369,0.676234 1.73984,-0.05349 0.3036,-0.413411 0.55198,-1.0564398 0.55198,-1.4290749 0,-0.3726352 0.17421,-0.785239 0.38717,-0.9167513 0.21296,-0.1316134 0.38717,-0.8255102 0.38717,-1.5419147 0,-0.8023972 0.35134,-1.722782 0.91504,-2.3969975 0.50324,-0.6019493 1.03262,-1.4707586 1.17644,-1.9306987 0.46196,-1.4767136 1.18866,-1.80604981 2.83009,-1.2825235 4.01431,1.280303 4.90573,2.3022239 3.53186,4.0488255 -0.42017,0.534124 -0.70823,1.3637724 -0.6401,1.8435958 0.11224,0.790992 0.32268,0.8683048 2.25337,0.827226 1.1712,-0.025233 2.46917,-0.1120328 2.88429,-0.1936855 0.55644,-0.1093077 0.85772,0.1570477 1.14608,1.0132408 0.21508,0.6388899 0.43278,1.225195 0.48366,1.303013 0.0504,0.07772 1.04917,0.184096 2.21846,0.235975 1.54133,0.06863 2.425167,-0.102848 3.214041,-0.6228422 0.598407,-0.394638 1.378594,-0.7186248 1.733571,-0.7200378 0.354972,-9.084e-4 1.470455,-0.3561836 2.478852,-0.7883678 1.74539,-0.7481976 1.923634,-0.7559692 3.713938,-0.161186 1.090755,0.3622394 2.068065,0.9769059 2.326952,1.4634918 0.850238,1.59783 2.840283,3.728675 3.488762,3.735639 0.358404,0.01009 0.766264,-0.354468 0.906456,-0.796241 0.334686,-1.054421 3.508141,-2.425863 4.927324,-2.129431 0.585699,0.122328 1.566844,0.326309 2.180502,0.453178 1.407172,0.291185 1.695935,-0.170573 1.098325,-1.7564932 -0.430569,-1.1426337 -0.391812,-1.3167388 0.442277,-1.9926701 1.123558,-0.9102918 2.322309,-0.9387543 4.087583,-0.096893 1.73873,0.8291437 2.285671,0.4153289 3.772175,-2.8546162 0.601243,-1.3224918 1.406063,-2.5720109 1.788488,-2.7766979 0.382426,-0.204687 2.366719,-0.3755622 4.40945,-0.3798014 3.442334,-0.010093 3.77924,0.061568 4.602227,0.937644 0.488402,0.5198929 1.292213,0.9452138 1.786167,0.9452138 1.120025,0 4.387346,-3.13540474 4.387346,-4.2101123 0,-0.8268223 1.858634,-2.3718658 2.853203,-2.3718658 0.332364,0 0.791194,0.3494213 1.019802,0.776559 0.345686,0.6459549 0.666948,0.7363886 1.909705,0.5376566 1.291002,-0.2064028 1.529399,-0.127879 1.753364,0.577625 0.142514,0.4491405 0.71378,0.93067973 1.269402,1.07016562 1.160902,0.29138624 4.358681,2.36146998 4.358681,2.82161198 0,0.1695632 0.673308,0.7539506 1.496396,1.2985713 1.467932,0.9715566 1.528894,0.9785208 3.216653,0.371626 1.678575,-0.6036651 1.771634,-0.5940768 3.827385,0.3950418 1.158783,0.5575399 2.586141,1.1136667 3.17174,1.2358935 0.807241,0.1685539 1.064715,0.4490396 1.064715,1.1599937 0,0.5157547 0.174206,1.0454378 0.387169,1.1770511 0.212964,0.1316133 0.38717,0.7482985 0.38717,1.3705347 0,0.8924278 0.210237,1.1841168 0.996284,1.3814358 1.307151,0.328024 2.075433,-0.381617 1.418981,-1.3106835 -0.259189,-0.3668823 -0.812086,-1.2949378 -1.228727,-2.062413 -0.989118,-1.8220976 -0.524738,-2.2827443 2.300911,-2.2827443 2.14336,0 5.132316,-1.1787668 8.205751,-3.2360325 1.200367,-0.80340636 2.4774387,-0.5725784 2.8210064,0.5097998 0.31995,1.0081944 0.8629557,1.1235579 3.2960853,0.7004574 C -3.4334466,2.3396903 -1.5090054,2.2797376 -0.57761913,2.63905 0.12990321,2.911966 0.12546231,2.9572838 -0.69510223,3.830736 -1.164227,4.3301399 -2.1049997,5.0117234 -2.7857757,5.3452985 c -2.671932,1.3095727 -4.7942978,2.2034129 -5.2316285,2.2034129 -0.271907,0 -0.4585277,0.592058 -0.4585277,1.4544079 0,2.2577147 -0.6468627,3.9912957 -2.0167911,5.4046247 -2.438582,2.515994 0.0434,3.403476 4.1462216,1.482769 3.0817097,-1.442498 5.99516824,-1.950783 8.1183413,-1.416155 0.9869989,0.248491 1.9179811,0.375562 2.0688715,0.282303 0.4192659,-0.25919 2.7833583,0.831263 2.7833583,1.283936 0,0.219121 -0.4792179,0.512929 -1.0648162,0.652819 -0.5855982,0.139788 -1.2389208,0.38182 -1.4518835,0.537656 -0.212963,0.155736 -1.0258569,0.488907 -1.8064528,0.740224 -0.7805961,0.251317 -2.17444559,1.112455 -3.09745453,1.913742 -2.47400737,2.147599 -3.48462407,2.763678 -4.53430087,2.763678 -0.5178742,0 -2.4391863,0.427239 -4.2696601,0.949554 -1.8303737,0.522316 -3.7936737,1.044933 -4.3628217,1.161407 -1.161609,0.237792 -3.417708,2.306563 -3.417708,3.133992 0,0.432689 0.82218,0.522416 4.162172,0.454186 4.6545091,-0.09488 5.8828322,0.318739 8.7115094,2.935261 2.1094466,1.951288 1.9842929,3.464034 -0.3871692,4.679136 -1.3471189,0.690162 -1.5439333,1.33965 -0.7780729,2.566056 0.3753604,0.600939 0.3786911,0.93179 0.016149,1.513452 -0.3384198,0.542097 -0.3651664,1.357817 -0.097903,3.000663 0.3573948,2.199577 1.0624949,3.224123 2.2187544,3.224123 0.7496104,0 2.1655637,-0.788974 2.5332535,-1.411614 0.19015297,-0.321968 1.01152494,-0.52504 2.1294305,-0.526352 3.4259829,-0.01009 4.893915,-0.689457 6.9653095,-3.252081 0.6231442,-0.770907 2.1051058,-0.792406 3.5384198,-0.05148 1.570883,0.812389 1.822301,1.778394 0.708532,2.722397 -1.553119,1.316436 -2.309088,2.80839 -1.853891,3.658931 0.536445,1.00234 0.50223,2.054944 -0.09285,2.869554 -0.4562056,0.623851 -0.6548366,0.630512 -2.7277457,0.09084 -3.3559367,-0.874159 -7.31927279,-0.830961 -10.8834299,0.118594 -1.6877592,0.449745 -3.3566444,1.07824 -3.7086902,1.396877 -0.351945,0.318537 -1.2360944,0.586507 -1.9646111,0.595591 -0.7286154,0.01009 -2.2829451,0.243544 -3.4541431,0.521205 -2.009526,0.476392 -2.122669,0.566421 -2.007811,1.597426 0.06661,0.600839 0.713176,1.716625 1.436242,2.479357 0.723066,0.762832 1.755283,1.909604 2.293948,2.548393 l 0.9793287,1.161508 0.6817847,-0.817335 c 0.3750557,-0.449547 1.2045021,-1.126488 1.8433918,-1.504271 0.6388899,-0.377883 1.8670117,-1.57825 2.7293615,-2.66739 1.42534,-1.800296 1.7274248,-1.990652 3.3249521,-2.095619 1.22448821,-0.08074 1.90788828,0.06661 2.2545843,0.483962 0.7828167,0.943194 2.5793778,0.710247 4.3358703,-0.562083 2.2119908,-1.602371 3.4126588,-1.42978 4.5200666,0.649488 0.794829,1.492459 -0.2644371,2.918102 -3.145294,4.232923 -0.9303763,0.424614 -1.4264494,0.893739 -1.3550918,1.281514 0.063588,0.347605 2.2023021,1.651626 4.9521518,3.01994 4.738383,2.357837 4.899771,2.406586 7.700793,2.323117 l 2.861076,-0.08479 0.752538,1.355194 c 1.238316,2.229856 2.019619,2.802939 4.092225,3.002176 1.579663,0.1519 2.226122,0.01009 3.647728,-0.828135 0.95026,-0.556933 2.047273,-1.012534 2.437673,-1.012534 0.390398,0 1.038271,-0.29724 1.439571,-0.660387 0.625668,-0.56622 0.847513,-0.586811 1.555944,-0.144432 0.457316,0.285531 1.763255,0.494458 2.924157,0.467711 1.715011,-0.03937 2.307674,0.128283 3.247438,0.918871 0.632228,0.532005 1.808976,1.07279 2.614906,1.201679 2.339367,0.374048 2.691715,0.747087 1.687255,1.786569 -0.469024,0.485375 -1.209551,1.27455 -1.64547,1.753667 -0.818445,0.899392 -3.233509,1.233067 -3.681337,0.508589 -0.123237,-0.199338 -0.525545,-0.371324 -0.894042,-0.382123 -0.368397,-0.01009 -0.931286,-0.02725 -1.250629,-0.03532 -0.319446,-0.01009 -1.451987,0.06863 -2.516701,0.171581 -1.456427,0.141101 -2.309087,-0.01009 -3.44284,-0.59226 -1.807765,-0.935726 -2.557679,-0.536041 -1.861359,0.992045 0.243949,0.535639 0.33953,1.245382 0.212256,1.577241 -0.369102,0.961767 -3.945069,2.602694 -5.06146,2.32251 -1.99257,-0.50011 -7.077951,-0.559861 -7.472488,-0.08781 -0.212459,0.254142 -0.727305,0.918164 -1.144047,1.475401 -0.511919,0.684511 -1.273843,1.095802 -2.348046,1.267586 -2.127715,0.340236 -1.806655,1.116088 0.628494,1.5187 2.920524,0.48275 3.988167,0.414118 7.131848,-0.458426 3.125715,-0.867598 4.258962,-0.786148 4.258962,0.306021 0,0.589838 0.486485,0.728516 3.316373,0.946122 2.639938,0.202871 3.486744,0.13555 4.151573,-0.330143 0.934313,-0.654332 5.885154,-0.831768 6.260514,-0.224267 0.321262,0.519691 -1.339145,1.574212 -2.489651,1.581176 -1.29403,0.01009 -1.697146,0.328428 -2.305959,1.833502 -0.693795,1.715313 -0.01614,2.604209 1.692604,2.217443 2.250951,-0.509699 7.88711,-0.638083 8.708785,-0.198126 1.432001,0.766364 0.970547,2.186557 -0.643432,1.980154 -1.468336,-0.18773 -3.664179,2.008012 -3.031547,3.031547 0.341851,0.553201 3.92135,1.210157 5.200039,0.954298 2.032638,-0.406447 8.740073,3.482202 7.416874,4.299941 -0.238297,0.147257 -0.852156,-0.01009 -1.364176,-0.342054 -0.51192,-0.335493 -2.086132,-1.044832 -3.498149,-1.576332 -2.392253,-0.9004 -2.645287,-0.925835 -3.712525,-0.374048 -1.04241,0.539069 -1.121741,0.717414 -0.883948,1.985504 0.25283,1.347429 0.228607,1.384969 -0.736288,1.14274 -0.54876,-0.137569 -1.105794,-0.07567 -1.237913,0.138275 -0.425018,0.687735 -2.103188,0.422295 -2.610969,-0.412912 -0.423606,-0.696824 -2.933746,-2.099959 -5.036633,-2.815456 -0.372635,-0.126667 -0.677647,-0.497284 -0.677647,-0.823491 0,-1.074606 -1.059871,-0.617089 -1.295139,0.559256 -0.427642,2.13801 1.422615,4.160562 4.392595,4.801572 0.532407,0.11465 1.14223,0.595787 1.355192,1.068647 0.239812,0.53261 0.975291,1.02192 1.932819,1.28605 0.930074,0.25646 1.59682,0.69188 1.674133,1.09339 0.233957,1.2152 -0.999715,1.13031 -3.955464,-0.27231 -1.606309,-0.76223 -3.366636,-1.38599 -3.911863,-1.38599 -0.545327,0 -1.616906,-0.2613 -2.381454,-0.58075 -0.764448,-0.31934 -1.720562,-0.58075 -2.124688,-0.58075 -0.404125,0 -1.424835,-0.43552 -2.268109,-0.967926 -2.396795,-1.513048 -3.488763,-1.042408 -2.236014,0.963586 0.744262,1.19158 -0.09487,1.80412 -1.611556,1.17593 -0.649185,-0.26887 -1.556751,-0.39049 -2.016793,-0.27019 -0.460041,0.12022 -1.340356,-0.0424 -1.956435,-0.36052 -1.040795,-0.53815 -1.235187,-0.51414 -2.747732,0.34014 -0.9655,0.54533 -1.569064,1.14385 -1.483677,1.47116 0.07973,0.3034 0.229717,0.85448 0.334382,1.22459 0.105069,0.37143 -0.04643,0.74124 -0.337612,0.82551 -0.290377,0.0838 -1.267889,0.37506 -2.172326,0.64707 -1.355194,0.40745 -1.93403,0.40109 -3.291041,-0.0363 -0.9056496,-0.29179 -3.3266671,-0.55854 -5.3800963,-0.59287 -2.0535304,-0.0344 -4.85828609,-0.18278 -6.23285793,-0.33003 -2.33068607,-0.2496 -2.58109457,-0.19894 -3.71242417,0.75313 -1.3779025,1.1595 -1.5736068,1.13557 -5.5916476,-0.68228 l -2.621871,-1.18614 -2.217847,0.61618 c -1.219947,0.33892 -3.138636,0.73811 -4.26391,0.88718 -1.342073,0.17764 -2.594115,0.66806 -3.639754,1.42554 -1.139203,0.82531 -2.322915,1.25931 -4.149049,1.52132 -1.405256,0.20156 -3.513289,0.54877 -4.684487,0.77142 -1.171197,0.22266 -3.087765,0.38687 -4.258962,0.36487 -3.420936,-0.0646 -10.093954,-1.1824 -12.239433,-2.05091 -1.775872,-0.71883 -2.236619,-0.75638 -4.484341,-0.36487 -1.377801,0.23991 -3.122889,0.43622 -3.877849,0.43622 -0.75506,0 -1.589553,0.26101 -1.854395,0.58015 -0.30481,0.36728 -0.602958,2.8744 -0.812793,6.8335 -0.410585,7.74803 -0.765053,9.7085 -2.308381,12.76578 -0.731039,1.44826 -1.581075,4.15824 -2.121155,6.76264 -0.495669,2.39034 -1.169884,5.25051 -1.49811,6.35591 -0.328226,1.10538 -0.710147,3.77893 -0.848624,5.94116 -0.293404,4.58073 0.0222,5.64787 2.491469,8.42881 0.872947,0.98306 1.476612,1.89779 1.341669,2.03274 -0.382628,0.38262 -17.854498,0.28826 -18.092997,-0.0979 z m 11.505669,-27.63051 c 0.322575,-0.69209 0.797351,-2.29386 1.055026,-3.55952 0.257777,-1.26567 1.257796,-3.81326 2.222389,-5.66139 1.297561,-2.48612 1.689778,-3.61493 1.507901,-4.33951 -0.26131,-1.04119 -3.557093,-5.31459 -4.098787,-5.31459 -0.176628,0 -1.288478,0.79614 -2.470575,1.76931 -2.903567,2.39034 -2.945151,2.62288 -1.761136,9.84606 0.383435,2.33907 1.745189,7.56606 2.143461,8.22756 0.353861,0.58771 0.82995,0.25899 1.401721,-0.96792 z m -3.957886,-20.30641 c 1.595306,-0.94248 1.685639,-1.58431 0.470033,-3.33999 -2.517206,-3.63531 -7.239338,-7.513965 -6.564719,-5.392097 0.826822,2.600767 3.153673,8.153147 3.650755,8.711597 0.749207,0.84167 1.049374,0.84419 2.443931,0.0202 z m 10.235358,-1.47772 c 0,-0.50283 -0.301682,-0.81199 -0.871233,-0.89283 -0.641514,-0.0909 -0.87113,0.0707 -0.87113,0.61305 0,0.40524 0.122328,0.85892 0.271503,1.00829 0.513635,0.51354 1.47086,0.0394 1.47086,-0.72851 z m -6.139398,-3.48432 c 0.233653,-0.60891 -0.469832,-1.73731 -1.082985,-1.73731 -0.60972,0 -0.822078,1.14657 -0.323583,1.7472 0.611034,0.73619 1.121539,0.73265 1.406568,-0.0101 z m -14.081919,-0.0363 c 0.190153,-0.19015 -1.476411,-5.382612 -1.898705,-5.915427 -0.0646,-0.08176 -0.602756,0.0323 -1.195116,0.254047 -0.592462,0.221638 -1.413935,0.513225 -1.82553,0.647869 -0.648882,0.212256 -0.418862,0.577323 1.731159,2.746621 2.489046,2.51135 2.754796,2.70029 3.188192,2.26689 z m 19.999067,-1.47307 c 0.277156,-0.33389 0.309151,-0.63547 0.08277,-0.77566 -0.556025,-0.34367 -1.602472,0.16745 -1.602472,0.78262 0,0.69914 0.937644,0.69481 1.520113,-0.0101 z m -10.245451,-4.777466 c 1.884069,-0.92967 1.6922,-1.972585 -0.566925,-3.081508 -2.264477,-1.111447 -2.46331,-1.094793 -2.118733,0.177537 0.158461,0.585599 0.259089,1.630935 0.223359,2.323116 -0.0757,1.475199 0.414925,1.59097 2.462299,0.580754 z m 10.564492,-3.796399 c 0.652112,-0.199337 0.615878,-1.90375 -0.05249,-2.458262 -0.294919,-0.244756 -1.645268,-0.548052 -3.000663,-0.673912 -2.083003,-0.193485 -2.608346,-0.112034 -3.393988,0.525847 -0.73437,0.596297 -0.87426,0.974887 -0.666343,1.803426 0.238801,0.951572 0.384847,1.025958 1.575222,0.802598 0.721552,-0.135347 1.630128,-0.06762 2.019012,0.149782 0.62587,0.350228 2.087444,0.288257 3.518941,-0.149276 z m 1.64547,-3.802958 c 0,-1.091463 -0.961867,-2.096629 -1.259006,-1.315629 -0.25051,0.658268 0.35588,2.236114 0.859321,2.236114 0.219827,0 0.399685,-0.414218 0.399685,-0.920485 z m 10.294201,-0.04743 c 0.57056,-0.615676 1.317445,-0.968024 2.051916,-0.968024 1.626393,0 3.141158,-0.648781 3.141158,-1.345504 0,-0.432184 -0.421688,-0.590342 -1.574213,-0.590342 -1.8224,0 -3.07202,-0.556732 -3.07202,-1.368718 0,-0.654837 0.222854,-0.708129 3.087261,-0.738407 1.73126,-0.01817 2.145176,-0.151598 2.260237,-0.728718 0.188134,-0.94259 -0.996588,-2.197458 -2.074526,-2.197458 -0.590039,0 -0.939864,-0.294717 -1.098123,-0.92533 -0.238195,-0.94905 -1.19542,-1.570176 -1.822602,-1.182603 -0.668059,0.412906 -0.353559,2.063018 0.508286,2.666684 0.83964,0.588121 0.718019,0.748096 -0.484567,0.637477 -0.805627,-0.07368 -2.746419,2.056861 -4.078702,4.478284 -0.930982,1.692099 -1.020305,2.090472 -0.586304,2.613494 0.788469,0.950058 2.703018,0.770503 3.742199,-0.350835 z m -24.720394,-3.093014 c 1.029894,-1.576029 1.262136,-2.315647 1.262136,-4.019555 0,-1.963804 -0.100931,-2.182925 -1.690989,-3.682549 -0.929974,-0.877086 -3.188797,-3.048605 -5.019474,-4.825687 -1.830676,-1.777083 -3.55255,-3.155995 -3.826374,-3.064047 -0.656654,0.220331 -0.433093,5.468916 0.358605,8.418003 0.315408,1.174832 0.725085,3.422653 0.910292,4.99505 0.457619,3.88451 0.939865,4.368472 4.208498,4.223031 l 2.535272,-0.11284 z m 8.391157,0.573688 c 0.874563,-0.540987 1.325418,-0.6076 2.008012,-0.296533 1.983586,0.903732 2.986835,-1.078643 1.026362,-2.027996 -0.585599,-0.283614 -2.02295,-0.646964 -3.194248,-0.807342 -1.171196,-0.16058 -2.608548,-0.412302 -3.194146,-0.55966 -1.048163,-0.263731 -1.064817,-0.239508 -1.064817,1.545044 0,2.629037 0.527463,3.42346 2.059587,3.102198 0.677345,-0.142109 1.738932,-0.572073 2.35925,-0.955711 z m -21.461449,-2.921633 c -0.558549,-1.692301 -1.867012,-2.587252 -3.547201,-2.425964 -2.056156,0.197318 -1.715717,1.390417 0.743454,2.605418 1.229535,0.607399 2.030619,1.256887 2.032739,1.647892 0,0.909182 0.945113,1.128605 1.095903,0.255657 0.06863,-0.396456 -0.07772,-1.333797 -0.324895,-2.083003 z m -15.161479,1.250427 c 0.11839,-0.614565 0.0384,-0.637375 -0.6731,-0.192575 -0.98085,0.612547 -1.05787,1.197238 -0.13415,1.019397 0.37022,-0.07166 0.73348,-0.443286 0.80736,-0.826619 z m 83.630382,-3.218874 c 1.264355,-0.367589 2.590381,-1.072184 3.157004,-1.677565 0.537355,-0.574194 1.702799,-1.501542 2.589978,-2.060899 1.927268,-1.215001 2.383071,-1.822602 1.367306,-1.822602 -1.012635,0 -5.62193,2.121356 -6.2478,2.875508 -0.289267,0.348614 -1.104482,0.609116 -1.905971,0.609116 -1.341164,0 -4.695083,1.121337 -4.698111,1.57078 0,0.291185 1.954417,1.047053 2.842807,1.098225 0.393124,0.0222 1.695733,-0.243949 2.894787,-0.592563 z m -45.02195,-2.263063 c 0.5532,-4.427314 -0.547649,-5.422186 -3.171739,-2.866526 -2.592198,2.524574 -2.774277,3.014793 -1.520821,4.093033 0.745371,0.641111 1.523243,0.89596 2.734509,0.89596 h 1.692907 z m 57.4845422,-0.297466 c 0.9644919,-1.581782 0.9666114,-3.498149 0.01009,-5.614055 -0.8503384,-1.873371 -1.2914041,-2.026785 -2.1332648,-0.741941 -0.4835577,0.738004 -0.5104047,1.145763 -0.1464497,2.226224 0.2451607,0.727506 0.6140607,1.538382 0.8199584,1.801811 0.5865067,0.75062 0.04844,1.582488 -1.1114454,1.71935 -1.3646807,0.160883 -1.6337617,0.990229 -0.4723547,1.45572 1.5774411,0.632228 2.2496378,0.4448 3.0372992,-0.847109 z m -48.9823622,-0.29038 c 0.434708,-0.480328 1.192494,-0.774339 1.995901,-0.774339 0.863459,0 1.295139,-0.184198 1.295139,-0.552291 0,-0.636468 -4.07537,-3.0915 -4.596878,-2.769229 -0.190961,0.118088 -0.460546,0.970547 -0.599124,1.894464 -0.419668,2.798701 0.452371,3.806492 1.904962,2.201395 z M -173.1046,79.099529 c 0.75688,-0.756878 0.53413,-2.103492 -0.5639,-3.408422 -1.00657,-1.196329 -1.07854,-1.216514 -3.38782,-0.953288 -4.18519,0.477098 -5.19268,1.728939 -1.39143,1.728939 2.06493,0 2.32311,0.08579 2.32311,0.774338 0,0.870324 1.28323,2.323117 2.05201,2.323117 0.27686,0 0.71247,-0.209229 0.96803,-0.464684 z m 74.435141,-1.674739 c 2.657585,-1.374371 0.607087,-4.438013 -2.972511,-4.441142 -2.1028,0 -2.82607,0.801186 -1.71876,1.908494 0.44007,0.440158 0.80019,0.974483 0.80019,1.187447 0,0.60215 1.48045,1.935846 2.14872,1.935846 0.33003,0 1.114064,-0.26575 1.742361,-0.590645 z m 6.175617,-1.221864 c 0,-0.571569 -0.163406,-0.842467 -0.414319,-0.687337 -0.524536,0.324189 -1.102262,1.819574 -0.860937,2.228343 0.331455,0.561173 1.275256,-0.579341 1.275256,-1.541006 z m 32.288059,1.200063 c 0.669774,-1.745391 -0.0434,-3.812345 -1.167262,-3.381272 -0.651203,0.250005 -0.691171,1.675647 -0.08378,3.007627 0.515553,1.131632 0.914934,1.250933 1.251537,0.373645 z m -34.039808,-2.076947 c 0.734976,-1.629724 0.593471,-2.731077 -0.350733,-2.731077 -0.63788,0 -1.569671,2.82474 -1.226608,3.718782 0.353256,0.920385 0.860129,0.602959 1.577341,-0.987705 z m 21.676432,-0.478209 c 1.12063,-3.773588 0.694704,-4.963054 -1.777285,-4.963054 -1.281211,0 -1.577745,0.198329 -2.632771,1.76164 -0.653928,0.968933 -1.189062,1.834008 -1.189062,1.922423 0,0.311169 4.071434,3.240978 4.534402,3.26288 0.257978,0.01312 0.737095,-0.880518 1.064716,-1.983889 z m 20.342029,0.63889 c 0,-0.326107 -0.273017,-0.697732 -0.606793,-0.825814 -0.728214,-0.279476 -1.522334,0.405741 -1.156361,0.997799 0.394436,0.638184 1.763154,0.504653 1.763154,-0.172187 z m -15.708514,-1.564221 c 0.713477,-0.713578 0.752134,-1.109831 0.207614,-2.127311 -0.839338,-1.568358 -2.309389,-0.710449 -2.309389,1.347725 0,1.494174 1.011827,1.869535 2.101775,0.779586 z M -9.8811453,71.73322 c 0.6042697,-0.958032 -0.2664567,-1.697449 -3.1152197,-2.645488 -2.336945,-0.777669 -2.573224,-0.793212 -3.158318,-0.208018 -0.926037,0.925936 -0.133329,1.925855 1.729343,2.181208 0.8351,0.114557 1.94594,0.50758 2.468458,0.873553 1.066029,0.746684 1.504672,0.704192 2.0757367,-0.201255 z M -55.324585,71.433456 c 0,-0.430266 -0.258079,-0.774338 -0.580754,-0.774338 -0.589433,0 -0.794221,0.81895 -0.322674,1.290598 0.490824,0.490825 0.903428,0.255051 0.903428,-0.51626 z m -24.779538,-0.774338 c 0,-0.212963 -0.184501,-0.387169 -0.409979,-0.387169 -0.225581,0 -0.302388,0.174206 -0.170775,0.387169 0.131411,0.212863 0.316114,0.38717 0.40998,0.38717 0.09387,0 0.170774,-0.174307 0.170774,-0.38717 z m 18.563029,-0.75284 c 0.414017,-0.413916 1.415853,-0.871636 2.226324,-1.016976 1.693008,-0.303599 2.521748,-0.933303 3.667107,-2.786488 0.718019,-1.161811 0.760309,-1.493468 0.360221,-2.828778 -0.321868,-1.074505 -0.721047,-1.579763 -1.378206,-1.744785 -0.50879,-0.127777 -1.226204,-0.564907 -1.594297,-0.971657 -0.997294,-1.101959 -1.552008,-0.916247 -2.83544,0.949049 -1.919596,2.790021 -2.484706,4.609797 -2.18262,7.027889 0.287449,2.299903 0.578735,2.530024 1.736911,1.371746 z m -4.782287,-3.266311 c 0.112841,-0.294011 -0.06661,-1.968448 -0.399381,-3.721004 -0.332466,-1.752556 -0.604473,-3.250263 -0.604473,-3.328283 0,-0.07772 -0.421385,-0.418054 -0.936432,-0.755566 -0.868507,-0.569045 -1.050182,-0.555622 -2.50126,0.184704 -0.860633,0.439047 -1.97319,0.798258 -2.472291,0.798258 -0.499203,0 -1.745087,0.531096 -2.768725,1.180281 -1.773953,1.124972 -1.830575,1.214092 -1.208844,1.901127 0.358707,0.396353 1.069964,0.82551 1.58037,0.953691 0.510405,0.128081 2.370655,0.921192 4.133708,1.762448 3.386116,1.615694 4.840019,1.903347 5.177328,1.024344 z m 48.684817,-1.465713 c 0.298352,-0.473768 0.257878,-0.823795 -0.152102,-1.317849 -0.307031,-0.370011 -0.503845,-0.994367 -0.437231,-1.387592 0.180565,-1.066936 -1.061182,-0.872947 -2.545365,0.397465 l -1.262741,1.080864 1.456326,1.039987 c 1.587434,1.133752 2.315849,1.180079 2.941113,0.186923 z m 6.065218,-3.238859 c 0,-0.618199 -1.028986,-1.217423 -1.419689,-0.826721 -0.123539,0.123539 -0.121621,0.49355 0.01009,0.82218 0.296938,0.773732 1.415147,0.777366 1.415147,0.01009 z m -51.508451,-2.088251 c 1.10862,-2.367021 0.869717,-3.220691 -0.854982,-3.054458 -1.161911,0.111931 -1.270613,0.240315 -1.384665,1.633358 -0.15846,1.935442 0.192777,3.32798 0.839237,3.32798 0.278971,0 0.909181,-0.858111 1.40041,-1.90688 z m 17.243061,1.197036 c 0,-0.700357 -0.757786,-0.572478 -0.908071,0.153212 -0.08378,0.403721 0.06157,0.580653 0.387168,0.472152 0.286542,-0.09488 0.520903,-0.376874 0.520903,-0.625364 z m -71.939624,-1.059165 c 0.0747,-0.227497 -0.30248,-0.648276 -0.83792,-0.934717 -0.77101,-0.412704 -1.18381,-0.42522 -1.98419,-0.06055 -0.84924,0.386865 -0.93239,0.554814 -0.5204,1.05119 0.5527,0.665838 3.12007,0.622942 3.34251,-0.05551 z m -11.53675,-1.110638 c 0.51646,-0.319243 0.56935,-1.379417 0.0686,-1.379417 -0.1965,0 -0.87648,-0.436625 -1.51072,-0.970346 -1.34632,-1.132843 -2.17142,-0.964087 -2.98593,0.610933 -1.05704,2.044044 -0.82602,2.334521 1.71743,2.159508 1.25618,-0.0868 2.47573,-0.275743 2.71028,-0.420678 z m 48.51053,-0.967217 c 0.52403,-0.4122 1.919091,-1.176849 3.100179,-1.699165 2.615109,-1.156561 2.982092,-1.643955 1.465813,-1.94715 -1.482365,-0.296533 -1.479942,-1.148791 0.01009,-2.24762 0.638788,-0.472254 1.161508,-1.054724 1.161508,-1.294232 0,-0.668462 -2.208561,-2.632771 -2.652049,-2.358644 -0.605583,0.374251 -1.018591,-0.574496 -1.03373,-2.375297 -0.01817,-2.146589 -0.555925,-2.689999 -2.049494,-2.071295 -1.58592,0.656856 -3.658931,2.890649 -3.493203,3.764 0.08983,0.471042 0.535335,0.762126 1.294635,0.845091 0.636972,0.06964 1.316335,0.280081 1.509617,0.46761 0.520397,0.504956 -0.417752,1.445829 -1.728838,1.733784 -0.621732,0.13666 -1.24528,0.434203 -1.385674,0.661498 -0.413513,0.669069 -0.239508,2.424047 0.43824,4.42035 1.032215,3.04043 1.668077,3.437187 3.366737,2.10107 z m 50.422031,-1.877004 c 0.834696,-0.578432 1.564827,-1.226003 1.622458,-1.438965 0.149882,-0.55421 -2.083306,-2.23016 -2.570498,-1.929084 -0.807342,0.499 -2.29546,3.263788 -2.071193,3.848175 0.333071,0.868104 1.294635,0.715294 3.019233,-0.480126 z m -14.408024,-4.030355 c -0.634853,-0.634852 -1.437452,0.167646 -1.085305,1.085305 0.242232,0.631119 0.301781,0.633037 0.905951,0.02927 0.505157,-0.505158 0.544419,-0.749006 0.179354,-1.114072 z M -150.16593,51.85971 c 0.38909,-0.468923 1.14597,-0.57591 3.42275,-0.483962 2.36844,0.09589 2.94607,0.01009 3.04366,-0.470235 0.25677,-1.254767 -0.84377,-1.915458 -4.16096,-2.497928 -5.01049,-0.87971 -5.27816,-0.841356 -5.83115,0.834291 -0.44884,1.359634 -0.41856,1.468134 0.64746,2.321199 1.30665,1.045437 2.18192,1.135669 2.87824,0.296635 z m 60.085032,-4.044183 c 0.265952,-0.425927 0.702981,-0.774339 0.971153,-0.774339 0.704899,0 0.600537,-1.422615 -0.124649,-1.70088 -1.088232,-0.41765 -1.835521,-0.25273 -2.750456,0.606794 -0.977511,0.918266 -1.177656,2.077452 -0.412199,2.3864 1.02182,0.412301 1.851064,0.226892 2.316151,-0.517975 z m -57.301572,-3.649948 c 0.46186,-0.674519 0.34972,-0.943398 -0.67351,-1.613878 -0.7816,-0.512122 -1.08228,-0.542199 -1.54877,-0.155232 -0.31834,0.264237 -0.57885,0.798865 -0.57885,1.188053 0,1.324712 2.00691,1.740849 2.80113,0.580855 z m 54.069881,0.588122 c 0.936634,-0.593169 0.164415,-2.124183 -1.931305,-3.828898 -2.104904,-1.712285 -2.944028,-1.986615 -3.293155,-1.076727 -0.32721,0.852762 0.538667,2.12388 1.633861,2.398815 0.765555,0.192171 0.941578,0.429055 0.779383,1.049171 -0.385959,1.47621 1.355798,2.379436 2.811216,1.457639 z M -137.80468,34.083635 c 0.25919,-0.312178 0.40453,-0.767778 0.32298,-1.012332 -0.13101,-0.393225 -3.526,-1.903348 -4.28076,-1.904154 -0.55027,-8.08e-4 -0.28896,2.06968 0.35042,2.776193 0.77344,0.854679 2.94446,0.939158 3.60736,0.140293 z m 23.61743,-5.917452 c -0.0182,-1.071881 -2.23833,-3.236335 -3.74734,-3.653077 -2.85564,-0.788469 -3.33626,2.083608 -0.59125,3.532869 1.89335,0.999716 4.35443,1.067844 4.33859,0.120309 z M -12.683683,13.897947 c 1.737317,-1.336824 2.285875,-1.98833 2.196854,-2.609456 -0.176023,-1.229435 -1.132238,-1.193806 -2.44161,0.09083 -1.50992,1.481659 -2.903872,3.342817 -2.903872,3.877344 0,0.785442 0.823997,0.429863 3.148628,-1.358927 z M -30.349241,14.9017 c 0.132724,-0.214982 -0.289872,-0.694099 -0.939158,-1.064816 -0.649488,-0.370617 -1.392739,-1.196632 -1.651828,-1.835421 l -0.471043,-1.161609 -0.142109,1.728333 c -0.107996,1.315629 0.02019,1.847129 0.539069,2.226224 0.81249,0.594177 2.326246,0.655039 2.664867,0.107188 z m 8.235925,-0.599123 c 0.99356,-0.695916 1.124769,-1.643249 0.272815,-1.970163 -0.880617,-0.337916 -2.896905,0.632228 -2.896905,1.393749 0,1.318757 1.190777,1.580369 2.62409,0.576414 z m 4.610302,-0.197319 c 2.727446,-1.033427 3.767737,-3.509555 1.790306,-4.2613854 -2.061809,-0.7839272 -2.892164,-0.3577988 -3.449905,1.7705224 -0.824098,3.144791 -0.67139,3.374004 1.659599,2.490863 z M -28.99637,12.969487 c 0,-0.212963 -0.174206,-0.387169 -0.387169,-0.387169 -0.212962,0 -0.387168,0.174206 -0.387168,0.387169 0,0.212964 0.174206,0.38717 0.387168,0.38717 0.212862,0 0.387169,-0.174206 0.387169,-0.38717 z m 0.03532,-6.3884947 c 0,-0.2128624 -0.360523,-0.4427819 -0.794827,-0.51091 -0.778678,-0.1221258 -1.047658,0.3175273 -0.518177,0.8470085 0.376471,0.3764706 1.319161,0.1352468 1.313004,-0.3360985 z"
         id="path30060"
         sodipodi:nodetypes="cssscssscsssccssccccsssssssccssssssssscsscscsccscsssscsssssccscsssscsssscsscccsccssccccscscscscsssssssccsscsssssccscsssccsssssssccssccccccsccsscccsscsssssscsscsssssscsssssssssssscscsccsssssssssscssscssssscsscsssscssscsssscsscsccscsccssssccccsccsssssscsscsccsscscsssccscsscsscsssssssscssscsssccscssssscsssssssssssccsssssssssscssssssscscssccscscsscsscccscscccssssscccsssssssssccsssscscssssssssccsssscsscsssscssccsccssssssccssssscsscsccsssssssssscssssscscssssscssscsssssssssscscssccsssssscsssssssssscsssssscssssscssssssssscscscscccscccscssssscsscccsccssssssssssssccscsscssssscscscscccsscsssscsssscccscsccssscsssscsssscssssssssscsscccccsssssssssssssccsc" />
      <text
         xml:space="preserve"
         style="font-size:38.906px;line-height:1.25;font-family:'Zag Regular';-inkscape-font-specification:'Zag Regular, ';text-align:center;text-anchor:middle;stroke-width:0.291794"
         x="-75.434059"
         y="214.26863"
         id="text30070"><tspan
           sodipodi:role="line"
           style="font-style:normal;font-variant:normal;font-weight:normal;font-stretch:normal;font-size:45.8611px;font-family:'Zag Bold';-inkscape-font-specification:'Zag Bold, ';text-align:center;text-anchor:middle;fill:#ffffde;fill-opacity:1;stroke-width:0.291794"
           x="-75.434059"
           y="214.26863"
           id="tspan30062">Foix Elagage</tspan><tspan
           sodipodi:role="line"
           style="font-size:38.8056px;text-align:center;text-anchor:middle;fill:#ffffde;fill-opacity:1;stroke-width:0.291794"
           x="-75.434059"
           y="265.02087"
           id="tspan30064">0780012233</tspan><tspan
           sodipodi:role="line"
           style="font-size:38.8056px;text-align:center;text-anchor:middle;fill:#ffffde;fill-opacity:1;stroke-width:0.291794"
           x="-75.434059"
           y="313.65338"
           id="tspan30066">foixelagage@gmail.com</tspan><tspan
           sodipodi:role="line"
           style="font-size:38.8056px;text-align:center;text-anchor:middle;fill:#ffffde;fill-opacity:1;stroke-width:0.291794"
           x="-75.434059"
           y="362.28586"
           id="tspan30068">foixelagage.fr</tspan></text>
      <path
         style="fill:#ffffde;fill-opacity:1;stroke:#ffffde;stroke-width:5;stroke-linecap:butt;stroke-linejoin:miter;stroke-miterlimit:4;stroke-dasharray:none;stroke-opacity:1"
         d="M 122.5998,-3.8373974 V 369.16207"
         id="path30072"
         sodipodi:nodetypes="cc" />
    </g>
  </g>
</svg>
