<?xml version="1.0" encoding="UTF-8" standalone="no"?>
<!-- Created with Inkscape (http://www.inkscape.org/) -->

<svg
   width="600mm"
   height="400mm"
   viewBox="0 0 600 400"
   version="1.1"
   id="svg828"
   inkscape:version="1.1 (c68e22c387, 2021-05-23)"
   sodipodi:docname="auto seite.svg"
   inkscape:export-filename="F:\Leon\ELAGAGE\autoseite.png"
   inkscape:export-xdpi="300"
   inkscape:export-ydpi="300"
   xmlns:inkscape="http://www.inkscape.org/namespaces/inkscape"
   xmlns:sodipodi="http://sodipodi.sourceforge.net/DTD/sodipodi-0.dtd"
   xmlns="http://www.w3.org/2000/svg"
   xmlns:svg="http://www.w3.org/2000/svg">
  <sodipodi:namedview
     id="namedview830"
     pagecolor="#ffffff"
     bordercolor="#666666"
     borderopacity="1.0"
     inkscape:pageshadow="2"
     inkscape:pageopacity="0.0"
     inkscape:pagecheckerboard="0"
     inkscape:document-units="mm"
     showgrid="false"
     fit-margin-top="0"
     fit-margin-left="0"
     fit-margin-right="0"
     fit-margin-bottom="0"
     inkscape:zoom="0.24630192"
     inkscape:cx="1425.0802"
     inkscape:cy="1351.9992"
     inkscape:window-width="1920"
     inkscape:window-height="986"
     inkscape:window-x="-11"
     inkscape:window-y="-11"
     inkscape:window-maximized="1"
     inkscape:current-layer="layer1"
     showguides="true"
     inkscape:lockguides="false"
     inkscape:guide-bbox="true">
    <sodipodi:guide
       position="299.99791,444.7733"
       orientation="1,0"
       id="guide81933" />
  </sodipodi:namedview>
  <defs
     id="defs825">
    <rect
       x="-117.74167"
       y="1412.9001"
       width="365.40518"
       height="215.18306"
       id="rect3852" />
    <rect
       x="-117.74167"
       y="1412.9001"
       width="365.40518"
       height="215.18306"
       id="rect47860" />
  </defs>
  <g
     inkscape:label="Layer 1"
     inkscape:groupmode="layer"
     id="layer1"
     transform="translate(75.667542,-64.747604)">
    <flowRoot
       transform="matrix(0.28221934,0,0,0.28221934,440.07185,323.80383)"
       fill="#000000"
       font-family="sans-serif"
       font-size="10px"
       letter-spacing="0px"
       word-spacing="0px"
       line-height="125%"
       xml:space="preserve"
       id="flowRoot1193"><flowRegion
         fill="#000000"
         id="flowRegion1189"><rect
           x="-109.82"
           y="23.791"
           width="133.93"
           height="63.929"
           fill="#000"
           id="rect1187" /></flowRegion><flowPara
         id="flowPara1191" /></flowRoot>
    <flowRoot
       transform="matrix(0.28221934,0,0,0.28221934,440.07185,323.80383)"
       fill="#000000"
       font-family="sans-serif"
       font-size="7.5px"
       letter-spacing="0px"
       word-spacing="0px"
       line-height="125%"
       xml:space="preserve"
       id="flowRoot1201"><flowRegion
         fill="#000000"
         id="flowRegion1197"><rect
           x="-112.5"
           y="20.398"
           width="124.82"
           height="67.857"
           fill="#000"
           id="rect1195" /></flowRegion><flowPara
         id="flowPara1199" /></flowRoot>
    <rect
       style="fill:#36606c;fill-opacity:1;stroke-width:1.96592;stroke-linecap:square;stroke-linejoin:round"
       id="rect69111"
       width="600"
       height="400"
       x="-75.667542"
       y="64.747604"
       inkscape:export-filename="F:\Leon\ELAGAGE\autoseite.png"
       inkscape:export-xdpi="300"
       inkscape:export-ydpi="300" />
    <g
       transform="matrix(0.29553912,0.30496367,-0.30496367,0.29553912,343.41534,178.58073)"
       id="g69115">
      <rect
         width="24"
         height="24"
         fill="none"
         id="rect69113"
         x="0"
         y="0" />
    </g>
    <g
       id="g81144"
       transform="translate(6.9336562)">
      <g
         id="g96020"
         transform="translate(0,-1.6506223)">
        <g
           transform="matrix(0.10571293,0.0817837,-0.0817837,0.10571293,320.58997,52.398077)"
           fill="#415b90"
           id="g69121"
           style="fill:#ffffde;fill-opacity:1;fill-rule:evenodd">
          <path
             d="M 239.14,282.68 204.81,445.9 c 0,0 -4.0699,2.7689 -7.1973,9.849 -2.7617,6.2521 -53.401,150.94 -51.265,154.68 2.069,3.6247 7.955,5.5558 11.617,4.672 3.6618,-0.88388 10.607,-6.1872 10.228,-9.2176 -0.37881,-3.0305 -0.75762,-8.9651 0.37881,-12.753 1.1364,-3.7881 33.714,-118.06 33.714,-118.06 l 7.4491,0.15933 0.89286,-5.3572 c 0,0 -3.0357,-0.89285 -2.6786,-5.1786 0.35714,-4.2857 3.5714,-5.4464 4.8214,-5.625 1.25,-0.17857 1.8416,-0.19481 1.8416,-0.19481 0,0 7.801,-15.298 10.301,-23.466 6.7974,-22.207 11.698,-65.595 14.554,-85.714 2.8559,-20.119 3.7775,-40.536 3.5714,-47.5 -0.22147,-7.484 -3.8979,-19.508 -3.8979,-19.508 z"
             id="path69117"
             style="fill:#ffffde;fill-opacity:1" />
          <path
             d="m 190.19,282.68 34.329,163.22 c 0,0 4.0699,2.7689 7.1973,9.849 2.7617,6.2521 53.401,150.94 51.265,154.68 -2.069,3.6247 -7.955,5.5558 -11.617,4.672 -3.6618,-0.88388 -10.607,-6.1872 -10.228,-9.2176 0.37881,-3.0305 0.75762,-8.9651 -0.37881,-12.753 -1.1364,-3.7881 -33.714,-118.06 -33.714,-118.06 l -7.4491,0.15933 -0.89286,-5.3572 c 0,0 3.0357,-0.89285 2.6786,-5.1786 -0.35714,-4.2857 -3.5714,-5.4464 -4.8214,-5.625 -1.25,-0.17857 -1.8416,-0.19481 -1.8416,-0.19481 0,0 -7.801,-15.298 -10.301,-23.466 -6.7974,-22.207 -11.698,-65.595 -14.554,-85.714 -2.8559,-20.119 -3.7775,-40.536 -3.5714,-47.5 0.22147,-7.484 3.8979,-19.508 3.8979,-19.508 z"
             id="path69119"
             style="fill:#ffffde;fill-opacity:1" />
        </g>
        <text
           xml:space="preserve"
           style="font-style:normal;font-variant:normal;font-weight:normal;font-stretch:normal;font-size:24.6944px;line-height:1.25;font-family:'Zag Regular';-inkscape-font-specification:'Zag Regular, ';fill:#ffffde;fill-opacity:1;stroke:none;stroke-width:0.156956"
           x="346.89917"
           y="126.25252"
           id="text69125"><tspan
             sodipodi:role="line"
             id="tspan69123"
             style="font-style:normal;font-variant:normal;font-weight:normal;font-stretch:normal;font-size:24.6944px;font-family:'Zag Regular';-inkscape-font-specification:'Zag Regular, ';fill:#ffffde;fill-opacity:1;stroke-width:0.156956"
             x="346.89917"
             y="126.25252">Taille</tspan></text>
      </g>
      <g
         id="g96027"
         transform="translate(0,-0.35046772)">
        <g
           transform="matrix(2.6822518,0,0,2.6822518,93.953791,147.54767)"
           fill="#415b90"
           stroke-width="0.66635"
           id="g69131"
           style="fill:#ffffde;fill-opacity:1">
          <path
             d="M 83.05,12.964 81.1596,5.0529 74.4044,9.5492 Z m -5.7824,-3.7168 3.0414,-2.0227 0.85068,3.56 z"
             id="path69127"
             style="fill:#ffffde;fill-opacity:1" />
          <path
             d="m 80.546,12.365 -6.6627,-0.10457 -2.6612,3.9568 4.6106,0.07236 -0.04183,4.2913 2.6318,0.0413 0.04183,-4.2913 4.6839,0.07351 z m -6.8444,2.5583 0.97018,-1.471 5.0043,0.11532 1.0014,1.4652 z"
             id="path69129"
             style="fill:#ffffde;fill-opacity:1" />
        </g>
        <text
           xml:space="preserve"
           style="font-style:normal;font-variant:normal;font-weight:normal;font-stretch:normal;font-size:24.6944px;line-height:1.25;font-family:'Zag Regular';-inkscape-font-specification:'Zag Regular, ';fill:#ffffde;fill-opacity:1;stroke:none;stroke-width:0.156956"
           x="346.75262"
           y="187.16075"
           id="text69135"><tspan
             sodipodi:role="line"
             id="tspan69133"
             style="font-style:normal;font-variant:normal;font-weight:normal;font-stretch:normal;font-size:24.6944px;font-family:'Zag Regular';-inkscape-font-specification:'Zag Regular, ';fill:#ffffde;fill-opacity:1;stroke-width:0.156956"
             x="346.75262"
             y="187.16075">Démontage</tspan></text>
      </g>
      <g
         id="g96034"
         transform="translate(0,0.94967092)">
        <g
           transform="matrix(2.6425813,0,0,2.6425813,266.33346,215.71347)"
           fill="#415b90"
           id="g69141"
           style="fill:#ffffde;fill-opacity:1">
          <path
             transform="matrix(0.47069,0.4857,-0.4857,0.47069,14.631,-1.7141)"
             d="m 17,12 h 2 L 12,2 5.05,12 H 7 l -3.9,6 h 6.92 v 4 h 3.95 V 18 H 21 Z m -10.21,4 3.9,-6 H 8.88 l 3.13,-4.5 3.15,4.5 h -1.9 l 4,6 z"
             id="path69137"
             style="fill:#ffffde;fill-opacity:1" />
          <rect
             x="7.8552999"
             y="15.426"
             width="2.6659999"
             height="1.6619999"
             id="rect69139"
             style="fill:#ffffde;fill-opacity:1" />
        </g>
        <text
           xml:space="preserve"
           style="font-style:normal;font-variant:normal;font-weight:normal;font-stretch:normal;font-size:24.6944px;line-height:1.25;font-family:'Zag Regular';-inkscape-font-specification:'Zag Regular, ';fill:#ffffde;fill-opacity:1;stroke:none;stroke-width:0.156956"
           x="346.92004"
           y="250.23497"
           id="text69145"><tspan
             sodipodi:role="line"
             id="tspan69143"
             style="font-style:normal;font-variant:normal;font-weight:normal;font-stretch:normal;font-size:24.6944px;font-family:'Zag Regular';-inkscape-font-specification:'Zag Regular, ';fill:#ffffde;fill-opacity:1;stroke-width:0.156956"
             x="346.92004"
             y="250.23497">Abattage</tspan></text>
      </g>
      <g
         id="g96040"
         transform="translate(0,1.40599)">
        <path
           d="m 287.52061,327.41622 c -0.90362,-0.32259 -1.61503,-0.9658 -2.01765,-1.82415 -0.19874,-0.42379 -0.22637,-0.5939 -0.22637,-1.39629 0,-0.8024 0.0276,-0.9725 0.22637,-1.3963 0.4105,-0.87517 1.12106,-1.50861 2.05129,-1.82865 0.42723,-0.14699 0.73689,-0.16899 2.39161,-0.16899 h 1.90083 v -0.78319 h -6.96153 v -4.78621 h 2.34726 l 0.0242,-2.98052 0.0242,-2.98052 3.52421,-0.0472 v -11.91833 h 5.13866 c 5.72311,0 5.84275,0.0107 7.01596,0.58079 0.69309,0.33724 1.44531,1.04818 1.75846,1.66201 0.30417,0.59621 0.42176,1.31996 0.66056,4.06629 0.12472,1.43584 0.28354,3.19805 0.35266,3.91583 0.16496,1.71471 0.65024,7.1278 0.65024,7.2544 0,0.14458 1.38736,0.13493 1.42912,-0.0107 0.0161,-0.0598 0.0942,-1.53809 0.17113,-3.28495 0.0767,-1.74695 0.20279,-4.50592 0.27982,-6.1311 l 0.14001,-2.95476 0.57808,-0.6257 c 0.31794,-0.34413 2.63223,-2.8236 5.14295,-5.50961 l 4.56493,-4.88411 0.81057,-1.49385 c 0.44581,-0.82163 0.82611,-1.50939 0.84507,-1.52836 0.0523,-0.0523 1.29635,0.34827 1.40931,0.45372 0.0542,0.0507 0.30138,0.87529 0.54911,1.8325 0.24784,0.95722 0.55257,2.10712 0.67744,2.55533 0.20089,0.721 0.21269,0.83633 0.10352,1.00075 -0.13626,0.20519 -0.21511,3.11812 -0.30052,11.12866 l -0.0454,4.24225 h 0.28955 c 0.15932,0 0.33654,0.047 0.39399,0.10435 0.14994,0.14993 0.13036,0.58727 -0.0293,0.64843 -0.0735,0.0282 -0.34452,0.40875 -0.60245,0.84571 l -0.46895,0.79449 0.17033,0.27592 c 0.52034,0.84365 0.84893,2.71042 0.60644,3.44535 -0.14378,0.43546 -0.73664,1.07848 -1.22059,1.32372 -0.85285,0.43217 -1.26682,0.4809 -4.08533,0.4809 h -2.61982 v -0.21217 c 0,-0.18695 0.0494,-0.21913 0.41333,-0.2713 0.22745,-0.0325 0.66118,-0.10354 0.96406,-0.15772 l 0.55069,-0.0984 0.29132,-0.78319 c 0.16014,-0.43077 0.61153,-1.64472 1.0029,-2.69754 0.39136,-1.05295 0.7292,-2.05153 0.75076,-2.21903 0.0215,-0.16764 -0.0391,-1.20524 -0.13519,-2.30603 -0.096,-1.1008 -0.35837,-4.23368 -0.5833,-6.96152 -0.22505,-2.72812 -0.43545,-4.9906 -0.46779,-5.02762 -0.0322,-0.0371 -0.28756,0.25669 -0.56714,0.65264 -0.48435,0.68618 -0.77752,1.29435 -2.15098,4.46194 -0.29053,0.67004 -0.68416,1.57072 -0.87473,2.00146 -0.19072,0.43074 -0.37685,0.97897 -0.41395,1.21829 -0.058,0.37328 -0.58231,1.63657 -2.34821,5.65633 -0.33152,0.75467 -0.34888,0.84179 -0.47642,2.39304 -0.16174,1.9669 -0.39201,4.96405 -0.39284,5.11237 -3.5e-4,0.084 -0.4611,0.1089 -2.01131,0.1089 h -2.01071 l 0.0633,0.80495 c 0.0349,0.44272 0.0883,0.98116 0.11883,1.19653 l 0.0554,0.39158 1.95706,0.0435 c 1.88728,0.0419 1.97446,0.0517 2.44611,0.27281 0.87229,0.40902 1.57874,1.19012 1.86334,2.06027 l 0.1478,0.45158 h 1.80008 l 0.0509,-1.34883 h 0.69615 l 0.0241,1.60989 0.0242,1.60989 0.36892,0.34808 c 0.20278,0.19152 0.44316,0.43618 0.53385,0.54387 l 0.16495,0.19581 h -2.11546 v -1.65994 l -1.58435,0.0499 -0.13197,0.39113 c -0.27456,0.81353 -0.99686,1.59436 -1.84104,1.99018 l -0.48906,0.22934 -11.44329,0.0161 c -10.96048,0.0161 -11.46233,0.008 -11.89686,-0.14591 z m 15.8674,-12.20532 c -0.0317,-0.29914 -0.19313,-2.09067 -0.35945,-3.98127 -0.84381,-9.59226 -0.81128,-9.28675 -1.03696,-9.73228 -0.24033,-0.47446 -0.83106,-1.05165 -1.34386,-1.31328 -2.64285,-0.34013 -7.14793,-0.18025 -7.14793,-0.18025 l 0.058,15.69279 c 0,0 6.14959,0.058 9.88705,0.058 z m 18.37181,-4.3254 c 0.10782,-0.18856 0.19581,-0.36452 0.19581,-0.39091 0,-0.0268 -0.15665,-0.048 -0.34808,-0.048 -0.34684,0 -0.34807,6.3e-4 -0.34807,0.34083 0,0.29515 0.0673,0.40719 0.26097,0.43483 0.0242,0.003 0.13171,-0.14807 0.23927,-0.33669 z m 0.32957,-5.55145 c -0.0242,-2.33323 -0.0748,-5.39374 -0.11104,-6.80112 -0.0571,-2.21007 -0.0826,-2.53889 -0.18777,-2.41207 -0.0974,0.11748 -0.15234,1.21694 -0.27565,5.51767 -0.0848,2.95396 -0.17514,5.94842 -0.20116,6.6544 l -0.0472,1.28356 h 0.8681 z m -9.79103,1.27886 c 0.38542,-0.88141 0.79567,-1.70167 0.91168,-1.82274 0.18025,-0.1883 1.2414,-2.4753 1.7966,-3.87237 0.23281,-0.58618 0.1942,-0.53983 -1.66459,1.99184 l -1.59019,2.16586 -0.11667,1.31494 c -0.125,1.40804 -0.14753,1.93494 -0.0799,1.86736 0.0242,-0.0241 0.35756,-0.76341 0.74297,-1.64482 z"
           fill="#415b90"
           stroke-width="0.0870198"
           id="path69147"
           style="fill:#ffffde;fill-opacity:1" />
        <text
           xml:space="preserve"
           style="font-style:normal;font-variant:normal;font-weight:normal;font-stretch:normal;font-size:24.6944px;line-height:0.95;font-family:'Zag Regular';-inkscape-font-specification:'Zag Regular, ';fill:#ffffde;fill-opacity:1;stroke:none;stroke-width:0.156956"
           x="346.92004"
           y="303.27451"
           id="text69153"><tspan
             sodipodi:role="line"
             id="tspan69149"
             style="font-style:normal;font-variant:normal;font-weight:normal;font-stretch:normal;font-size:24.6944px;font-family:'Zag Regular';-inkscape-font-specification:'Zag Regular, ';fill:#ffffde;fill-opacity:1;stroke-width:0.156956"
             x="346.92004"
             y="303.27451">Aménagement</tspan><tspan
             sodipodi:role="line"
             style="font-style:normal;font-variant:normal;font-weight:normal;font-stretch:normal;font-size:24.6944px;font-family:'Zag Regular';-inkscape-font-specification:'Zag Regular, ';fill:#ffffde;fill-opacity:1;stroke-width:0.156956"
             x="346.92004"
             y="326.73419"
             id="tspan69151">paysager</tspan></text>
      </g>
    </g>
    <g
       id="g81119"
       transform="translate(-1.7421763)">
      <path
         style="fill:#f5f4db;stroke-width:0.240863"
         d="m 76.051302,196.39206 c -0.0726,-0.11741 0.18329,-0.90876 0.5686,-1.75852 1.88947,-4.16718 2.05047,-11.83205 0.38859,-18.50132 -0.31359,-1.25851 -0.74816,-3.04693 -0.9657,-3.97423 -0.22119,-0.94299 -0.68174,-2.07233 -1.04497,-2.56253 -2.24531,-3.03013 -3.45721,-4.47826 -3.94577,-4.7149 -1.0836,-0.52486 -2.20835,-0.7915 -3.33893,-0.7915 -0.79658,0 -1.54734,-0.2122 -2.47264,-0.69894 -0.73079,-0.38443 -1.69021,-0.76959 -2.132,-0.85592 -0.44181,-0.0863 -1.20285,-0.32711 -1.6912,-0.53505 -1.16246,-0.49496 -2.16648,-0.29296 -3.8114,0.76678 -1.50777,0.97141 -2.04645,1.03701 -2.78882,0.33959 -0.2938,-0.27603 -0.89693,-0.5887 -1.34027,-0.69484 -0.44337,-0.10609 -0.98471,-0.26704 -1.20301,-0.35751 -0.61385,-0.25444 -1.40955,0.75692 -1.40955,1.79158 0,0.69052 -0.19,1.05467 -0.92439,1.77179 -0.8426,0.82276 -1.07357,0.91515 -2.61022,1.04396 -1.06965,0.0897 -2.01663,0.0322 -2.59091,-0.15735 -0.86647,-0.28597 -0.89951,-0.33613 -0.77441,-1.17574 0.3349,-2.24748 0.4031,-2.09024 -0.86782,-2.00128 -1.40159,0.0981 -1.66874,-0.318 -0.88488,-1.37822 0.46124,-0.62385 0.49204,-0.78563 0.21346,-1.1213 -0.23989,-0.28905 -0.55085,-0.35336 -1.18194,-0.24449 -0.47103,0.0813 -1.41108,0.23029 -2.08901,0.33114 -0.99696,0.14833 -1.47388,0.40036 -2.49488,1.31831 -1.16668,1.04893 -2.17367,1.46472 -2.17367,0.89751 0,-0.13055 0.13244,-0.73254 0.2943,-1.33772 0.2489,-0.93062 0.23961,-1.13491 -0.0601,-1.32452 -0.49243,-0.31141 -2.09756,-0.28818 -2.2962,0.0332 -0.0901,0.14564 -0.82111,0.57572 -1.62465,0.95573 -1.50707,0.71274 -2.09393,0.65155 -2.09393,-0.21832 0,-0.21119 -0.17731,-0.84823 -0.39403,-1.41569 -0.48682,-1.27474 -1.03498,-1.34004 -2.47741,-0.29516 -0.73142,0.52982 -1.2317,0.71573 -1.7824,0.66238 -0.70947,-0.0687 -0.76561,-0.13978 -0.76561,-0.96868 0,-0.52036 -0.17111,-1.06569 -0.40909,-1.30375 -0.38492,-0.38505 -0.52721,-0.35577 -2.40864,0.49561 -2.7049,1.22403 -2.99874,1.43539 -3.58042,2.5756 -0.46439,0.91029 -0.56127,0.97473 -1.25605,0.83579 -0.41406,-0.0827 -0.98183,-0.36567 -1.26167,-0.62859 -0.31631,-0.29716 -0.8426,-0.47803 -1.39099,-0.47803 -0.94948,0 -1.41772,-0.47648 -1.71092,-1.74108 -0.0972,-0.41908 -0.62492,-1.00628 -1.4565796,-1.62068 l -1.30422,-0.96348 -1.10226,0.40854 c -0.9467,0.35085 -1.2126,0.3638 -1.88394,0.0916 -0.42991,-0.17429 -1.16102,-0.39633 -1.62468,-0.49347 -0.46366,-0.0971 -1.18989,-0.35746 -1.61386,-0.57852 -0.9413,-0.49083 -1.72629996,-0.50185 -2.34618966,-0.033 -0.7281897,0.55077 -1.33893944,0.44992 -1.33893944,-0.22106 0,-0.41688 0.22502,-0.6815 0.81920974,-0.96348 0.4505697,-0.21379 0.9373994,-0.38874 1.0818494,-0.38874 0.14445,0 0.39903,-0.22293 0.56574996,-0.49541 0.16671,-0.27245 0.64493,-0.70841 1.0627,-0.96871 0.67703,-0.42191 0.87817,-0.44163 1.85106,-0.18143 1.38074,0.3693 2.24371,0.0296 2.61251,-1.02831 0.22275,-0.63898 0.3518,-0.72731 0.90182,-0.61732 1.02165,0.20434 1.33733,-0.12429 1.01306,-1.05441 -0.15039,-0.43141 -0.27343,-1.0501 -0.27343,-1.37487 0,-0.56641 -0.0465,-0.58392 -1.14411,-0.42964 -0.62925,0.0885 -1.79442,0.18276 -2.58927,0.2096 -0.79485,0.0267 -1.84731,0.23598 -2.33881,0.46479 -0.71517,0.33297 -1.01313,0.3616 -1.49213996,0.14332 -0.6954497,-0.31686 -0.9897797,-0.90249 -0.6329097,-1.25934 0.1368197,-0.13682 0.2487597,-0.54609 0.2487597,-0.90951 0,-0.83469 -0.7855194,-1.41068 -1.92384884,-1.41068 -0.4692697,0 -1.2404197,-0.20753 -1.7136797,-0.46119 l -0.86047,-0.46117 -1.11451,0.72499 c -0.92807,0.60369 -1.22675,0.68781 -1.78545,0.50283 -0.52662,-0.17434 -0.68772,-0.3937 -0.74891,-1.01971 -0.14682,-1.502 0.10228,-1.93525 1.11285,-1.93525 1.22471,0 2.02483,-0.58398 1.92944,-1.40824 -0.0446,-0.38615 -0.28845,-0.73318 -0.61591,-0.87684 -0.78365,-0.3438 -0.67145,-1.10783 0.30108,-2.05044 0.79071,-0.76638 1.08475,-1.54382 0.65287,-1.72619 -0.40979,-0.17302 -1.75871,-2.68643 -1.62659,-3.03074 0.11259,-0.29328 0.36497,-0.32906 1.27955,-0.18127 1.51683,0.24505 3.1783697,0.16072 3.8117594,-0.19349 0.28297974,-0.15826 1.07100944,-0.58761 1.75116914,-0.95416 1.02987996,-0.55498 1.23540996,-0.7765 1.22901996,-1.32472 -0.004,-0.36208 -0.16679,-0.86872 -0.36129,-1.12587 -0.48103,-0.636 -0.4582,-0.73315 0.35431,-1.50737 0.6516,-0.6209 0.69238,-0.75679 0.51232,-1.70779 -0.10763,-0.56828 -0.26301,-1.10061 -0.34535,-1.18296 -0.0823,-0.0823 -0.82775,-0.14096 -1.65642996,-0.13022 -0.9214094,0.0115 -1.71389914,-0.11335 -2.04014884,-0.32244 -0.31171,-0.19982 -1.1450297,-0.34194 -2.0047697,-0.34194 -1.25769,0 -1.45982,-0.0597 -1.3921,-0.41131 0.0472,-0.24534 0.48098,-0.52764 1.07491,-0.6996 1.33381,-0.38617 2.2490897,-1.01452 2.5215194,-1.73103 0.20264,-0.533 0.31846,-0.57493 1.19875944,-0.43417 0.5359397,0.0857 1.0483597,0.16621 1.1386797,0.17888 0.73311996,0.10291 1.54519996,-0.12751 2.23616996,-0.63447 1.57129,-1.15288 2.67265,-1.55646 4.26268,-1.56199 2.18038,-0.008 3.4203296,0.75706 3.4203296,2.10931 0,0.25311 0.22788,0.66645 0.50639,0.91849 0.27851,0.25205 0.67299,0.7837 0.87662,1.18143 0.52721,1.02974 0.76071,1.10651 1.78137,0.58581 0.49853,-0.25434 1.42084,-0.63707 2.04959,-0.85054 1.09898,-0.37311 5.384,-3.07521 5.384,-3.3951 0,-0.0855 -0.16009,-0.33237 -0.35575,-0.54857 -0.19565,-0.21619 -0.38532,-0.65332 -0.42151,-0.97141 -0.0815,-0.7172 0.8532,-1.2342 2.52127,-1.39448 1.07395,-0.10318 1.14634,-0.15351 1.14634,-0.79655 0,-0.88917 0.58961,-1.2485 2.92358,-1.78165 1.81362,-0.4143 1.86274,-0.41282 3.46632,0.1052 1.97589,0.63836 2.43012,0.4201 1.56394,-0.75144 -0.5451,-0.7373 -0.55031,-0.78112 -0.122,-1.02533 0.24608,-0.14032 0.79303,-0.6213 1.21543,-1.06885 0.7094,-0.75167 0.93185,-0.83256 2.91669,-1.06036 2.58301,-0.29646 3.4902,-0.0146 3.69143,1.14731 0.15397,0.88889 0.94883,1.32063 2.44009,1.32538 0.69324,0.004 1.22795,0.14014 1.41444,0.36486 0.64861,0.78151 1.79783,0.17366 1.64432,-0.86973 -0.0517,-0.35102 -0.34192,-0.62473 -0.84422,-0.79606 -1.18489,-0.40417 -1.20046,-0.55961 -0.16541,-1.65113 1.77827,-1.87526 2.25566,-2.59291 2.25566,-3.39096 0,-0.73525 0.0594,-0.78359 1.32627,-1.07811 1.18781,-0.27614 1.40342,-0.26301 2.06521,0.12594 0.71761,0.42168 0.74887,0.42072 1.08236,-0.0333 0.18888,-0.25716 0.34342,-0.6572 0.34342,-0.88903 0,-0.2318 0.10839,-0.48846 0.24085,-0.57033 0.13248,-0.0819 0.24088,-0.5135 0.24088,-0.95918 0,-0.4992 0.21855,-1.07175 0.56919,-1.49117 0.31306,-0.37447 0.64242,-0.91495 0.73192,-1.20105 0.28736,-0.918687 0.73944,-1.123557 1.76056,-0.797877 2.49726,0.796497 3.0518,1.432207 2.19714,2.518727 -0.26139,0.33231 -0.44059,0.84845 -0.3982,1.14695 0.0699,0.49206 0.20077,0.54012 1.40182,0.51459 0.72861,-0.0155 1.53605,-0.0697 1.79433,-0.12048 0.34616,-0.068 0.53355,0.0977 0.71293,0.63033 0.13383,0.39742 0.26924,0.76219 0.30088,0.81061 0.0317,0.0485 0.6527,0.11451 1.38011,0.1468 0.95881,0.0426 1.5087,-0.064 1.99943,-0.38751 0.3723,-0.24548 0.85759,-0.44701 1.07843,-0.4479 0.22086,-5.6e-4 0.91479,-0.22159 1.54209,-0.49047 1.08581,-0.46545 1.19671,-0.47026 2.31046,-0.10024 0.67852,0.22536 1.28653,0.60774 1.44757,0.91039 0.52893,0.99402 1.76693,2.31963 2.17038,2.32396 0.22291,0.004 0.47664,-0.22053 0.56388,-0.49534 0.20818,-0.65596 2.18238,-1.50914 3.06528,-1.32472 0.36431,0.0761 0.97468,0.20297 1.35643,0.28194 0.87544,0.18111 1.05504,-0.1061 0.68331,-1.09273 -0.26785,-0.71082 -0.24379,-0.81916 0.27513,-1.23962 0.69896,-0.56632 1.44468,-0.58402 2.54286,-0.0603 1.08168,0.51582 1.42189,0.25836 2.34666,-1.77586 0.37403,-0.82274 0.8747,-1.600057 1.11259,-1.727387 0.23791,-0.12732 1.47232,-0.23363 2.74314,-0.23623 2.14146,-0.004 2.35099,0.0383 2.862997,0.583297 0.30382,0.32342 0.80387,0.58802 1.1112,0.58802 0.69673,0 2.72934,-1.950522 2.72934,-2.619112 0,-0.51437 1.15622,-1.475538 1.77497,-1.475538 0.20672,0 0.49219,0.217388 0.6344,0.483098 0.21505,0.40185 0.41487,0.45811 1.18804,0.33447 0.80309,-0.12841 0.95142,-0.0795 1.09073,0.35936 0.0886,0.27938 0.44404,0.57897 0.78971,0.66572 0.722181,0.18126 2.711481,1.469075 2.711481,1.755342 0,0.10547 0.41892,0.46901 0.93091,0.80781 0.91324,0.60438 0.95112,0.60875 2.0011,0.23118 1.04425,-0.37551 1.10212,-0.36953 2.38099,0.24575 0.7209,0.34684 1.60881,0.69284 1.97312,0.76887 0.5022,0.10484 0.66238,0.27933 0.66238,0.72162 0,0.32084 0.10838,0.65034 0.24086,0.73222 0.13245,0.0819 0.24083,0.46556 0.24083,0.85265 0,0.55515 0.13082,0.73662 0.61981,0.85934 0.81314,0.20409 1.29108,-0.23741 0.88271,-0.81538 -0.16122,-0.22819 -0.50519,-0.80553 -0.76436,-1.28297 -0.61531,-1.13354 -0.32646,-1.42011 1.43139,-1.42011 1.33334,0 3.19277,-0.73328 5.10477,-2.013107 0.7467,-0.4998 1.54118,-0.35623 1.7549,0.317137 0.19907,0.62718 0.53684,0.69897 2.05048,0.43573 1.6918,-0.29421 2.889,-0.3315 3.46838,-0.108 0.44018,0.16978 0.43738,0.19799 -0.073,0.74136 -0.29185,0.31068 -0.87714,0.73468 -1.3006,0.94222 -1.66222,0.81464 -2.98252,1.37069 -3.25463,1.37069 -0.16913,0 -0.28523,0.36834 -0.28523,0.90483 0,1.40451 -0.40242,2.48294 -1.25465,3.36221 -1.517,1.56515 0.0269,2.11727 2.57939,0.92242 1.91709,-0.89742 3.72953,-1.21358 5.05039,-0.881 0.61397,0.1546 1.19313,0.23363 1.28701,0.17563 0.26087,-0.16124 1.73152,0.51712 1.73152,0.79868 0,0.13635 -0.29809,0.3191 -0.6624,0.40614 -0.36428,0.087 -0.77076,0.23754 -0.90323,0.33449 -0.13246,0.0969 -0.63818,0.30416 -1.12378,0.46049 -0.48563,0.15633 -1.35273,0.69206 -1.92692,1.1905 -1.53904,1.33607 -2.16777,1.71927 -2.82078,1.71927 -0.32214,0 -1.51741,0.26584 -2.65611,0.59074 -1.13869,0.32493 -2.36006,0.65006 -2.71413,0.72252 -0.72263,0.14789 -2.12615,1.43489 -2.12615,1.94962 0,0.2692 0.5115,0.32502 2.58928,0.28256 2.89553,-0.0592 3.65973,0.19829 5.4194,1.82602 1.31229,1.21391 1.23443,2.15499 -0.24086,2.91088 -0.838,0.42936 -0.96047,0.83336 -0.484,1.5963 0.2335,0.37389 0.23557,0.57966 0.0102,0.94155 -0.21057,0.33721 -0.22721,0.84467 -0.0612,1.86668 0.2223,1.36835 0.66092,2.00576 1.38025,2.00576 0.46631,0 1.34718,-0.49085 1.57594,-0.87818 0.11831,-0.20032 0.62929,-0.32666 1.32474,-0.32748 2.13128,-0.004 3.04446,-0.4289 4.33305,-2.02306 0.38769,-0.47961 1.30958,-0.49295 2.20127,-0.0318 0.97723,0.50535 1.13364,1.10635 0.44076,1.6936 -0.96619,0.8189 -1.43647,1.74704 -1.15329,2.27617 0.33373,0.62358 0.31241,1.27841 -0.0581,1.78513 -0.28382,0.38814 -0.40742,0.39224 -1.69694,0.0563 -2.08775,-0.54378 -4.55331,-0.51689 -6.77053,0.0738 -1.04997,0.27973 -2.08819,0.67077 -2.30717,0.86894 -0.21897,0.19818 -0.76897,0.36491 -1.22219,0.37053 -0.45325,0.005 -1.42021,0.15153 -2.14881,0.32426 -1.25008,0.29635 -1.32047,0.35234 -1.24907,0.99372 0.0417,0.37381 0.44369,1.06791 0.89349,1.54244 0.44981,0.47451 1.09197,1.18792 1.42706,1.58534 l 0.60924,0.72258 0.42417,-0.50845 c 0.2333,-0.27967 0.74932,-0.70081 1.14675,-0.93586 0.39742,-0.23508 1.16147,-0.98177 1.69789,-1.65932 0.88674,-1.11998 1.07463,-1.23841 2.06845,-1.30372 0.76178,-0.0499 1.18692,0.0412 1.40259,0.30109 0.48695,0.58675 1.60463,0.44186 2.69735,-0.34969 1.37603,-0.99681 2.12298,-0.88947 2.8119,0.40405 0.49449,0.92844 -0.16454,1.81536 -1.95667,2.6333 -0.57879,0.26415 -0.88738,0.556 -0.84301,0.79722 0.0397,0.21623 1.37003,1.02745 3.08075,1.87873 2.94768,1.4668 3.04811,1.4971 4.79062,1.44518 l 1.77982,-0.0531 0.46816,0.84303 c 0.77039,1.38721 1.25641,1.74375 2.54578,1.86765 0.98272,0.0945 1.38488,0.004 2.26924,-0.51516 0.59118,-0.34645 1.27361,-0.6299 1.51646,-0.6299 0.24289,0 0.64589,-0.18488 0.89555,-0.41083 0.38924,-0.35223 0.52725,-0.36504 0.96798,-0.0898 0.28447,0.17765 1.09689,0.3076 1.81908,0.29094 1.06691,-0.0245 1.43558,0.0798 2.0202,0.57167 0.39334,0.33096 1.12536,0.66734 1.62674,0.74752 1.45531,0.2327 1.67449,0.4648 1.04965,1.11142 -0.29179,0.30195 -0.75245,0.79288 -1.02366,1.09095 -0.50916,0.55955 -2.01157,0.76712 -2.29012,0.31641 -0.0767,-0.12403 -0.32694,-0.23101 -0.55618,-0.2377 -0.22921,-0.006 -0.57936,-0.0168 -0.77805,-0.0221 -0.19871,-0.005 -0.90324,0.0426 -1.5656,0.10674 -0.90607,0.0878 -1.43648,-0.004 -2.14177,-0.36849 -1.12462,-0.58211 -1.59114,-0.33346 -1.15799,0.6172 0.15182,0.33321 0.21122,0.77473 0.13206,0.98115 -0.22962,0.59832 -2.45423,1.61913 -3.14869,1.44484 -1.23958,-0.31113 -4.40319,-0.34828 -4.64865,-0.0546 -0.13217,0.15813 -0.45243,0.57117 -0.7117,0.91786 -0.31842,0.4258 -0.79243,0.68168 -1.46071,0.78855 -1.32364,0.21166 -1.12388,0.69433 0.39101,0.94475 1.81686,0.30033 2.48101,0.25764 4.4367,-0.28516 1.94451,-0.53973 2.64949,-0.48907 2.64949,0.19039 0,0.36689 0.30259,0.45322 2.06309,0.58856 1.64228,0.12618 2.1691,0.0843 2.58267,-0.20535 0.58125,-0.4071 3.66112,-0.51745 3.89468,-0.13952 0.19982,0.32328 -0.83312,0.97929 -1.5488,0.98361 -0.80503,0.005 -1.05584,0.2043 -1.43455,1.14064 -0.43162,1.06709 -0.0102,1.62005 1.05295,1.37945 1.4003,-0.3171 4.90653,-0.39696 5.41773,-0.12328 0.89083,0.47676 0.60375,1.36026 -0.40028,1.23186 -0.91347,-0.11678 -2.27946,1.2492 -1.8859,1.88594 0.21265,0.34413 2.43944,0.7528 3.23492,0.59368 1.26446,-0.25288 5.43715,2.16622 4.61401,2.67497 -0.14827,0.0916 -0.53016,-0.004 -0.84865,-0.21282 -0.31849,-0.2087 -1.29777,-0.64996 -2.17619,-0.98059 -1.4882,-0.56016 -1.64566,-0.57601 -2.30956,-0.23271 -0.64851,0.33536 -0.69787,0.44627 -0.54989,1.23515 0.15726,0.83821 0.1422,0.86158 -0.45808,0.71091 -0.34136,-0.0856 -0.6879,-0.047 -0.77006,0.086 -0.26443,0.42783 -1.30844,0.26273 -1.62433,-0.25687 -0.26352,-0.43347 -1.82506,-1.30635 -3.13325,-1.75147 -0.23183,-0.0788 -0.42153,-0.3094 -0.42153,-0.51228 0,-0.66856 -0.65937,-0.38388 -0.8057,0.34787 -0.26603,1.33009 0.88499,2.58827 2.73261,2.98703 0.3312,0.0714 0.71055,0.37064 0.84302,0.66483 0.14922,0.33134 0.60673,0.63576 1.2024,0.80003 0.5786,0.15956 0.99337,0.43045 1.04146,0.68022 0.1456,0.75599 -0.62189,0.70316 -2.46062,-0.1694 -0.99928,-0.4742 -2.0944,-0.8622 -2.43361,-0.8622 -0.33921,0 -1.00585,-0.16257 -1.48145,-0.36128 -0.47558,-0.19871 -1.07038,-0.36129 -1.32179,-0.36129 -0.25141,0 -0.88635,-0.27097 -1.41098,-0.60216 -1.491,-0.94125 -2.17033,-0.6485 -1.39099,0.59943 0.46297,0.74131 -0.0592,1.12232 -1.00257,0.73156 -0.40387,-0.1673 -0.96844,-0.24294 -1.25462,-0.16811 -0.28617,0.0748 -0.83385,-0.0261 -1.21708,-0.22425 -0.64749,-0.33483 -0.76842,-0.31986 -1.70935,0.2116 -0.60063,0.33925 -0.97613,0.71156 -0.92299,0.91516 0.0493,0.18878 0.14286,0.5316 0.20798,0.76182 0.0654,0.23108 -0.0286,0.46113 -0.21001,0.51355 -0.18063,0.0522 -0.78875,0.23336 -1.35139,0.40255 -0.84307,0.25348 -1.20316,0.24954 -2.04735,-0.0224 -0.56337,-0.18148 -2.06953,-0.34745 -3.34697,-0.36879 -1.27745,-0.0214 -3.02229,-0.11374 -3.87743,-0.20534 -1.44989,-0.15526 -1.60567,-0.12377 -2.30949,0.46856 -0.85717,0.72128 -0.9789,0.70642 -3.47855,-0.42448 l -1.63103,-0.73789 -1.37974,0.38333 c -0.75888,0.21083 -1.95252,0.45919 -2.65252,0.55189 -0.83493,0.11055 -1.61383,0.41564 -2.26432,0.88686 -0.7087,0.51337 -1.44505,0.78337 -2.58106,0.94636 -0.87423,0.12544 -2.18562,0.34139 -2.91424,0.47992 -0.72862,0.13854 -1.92088,0.24068 -2.64949,0.22701 -2.12812,-0.0401 -6.279401,-0.73561 -7.614121,-1.2759 -1.10474,-0.44717 -1.39134,-0.4705 -2.78965,-0.22699 -0.85711,0.14926 -1.94273,0.27138 -2.41244,0.27138 -0.46971,0 -0.988797,0.16241 -1.153557,0.36091 -0.189627,0.22849 -0.375137,1.78819 -0.505667,4.25113 -0.255397,4.82001 -0.475947,6.03959 -1.436033,7.94154 -0.45479,0.90092 -0.98357,2.5868 -1.31956,4.20703 -0.30837,1.48701 -0.72774,3.26629 -0.93196,3.95394 -0.20419,0.68766 -0.44178,2.35085 -0.52793,3.69598 -0.18252,2.84966 0.0137,3.51352 1.54995,5.24357 0.54302,0.61154 0.91861,1.18057 0.83465,1.26454 -0.23804,0.23803 -11.1072,0.17929 -11.2556,-0.061 z m 7.15759,-17.18884 c 0.20065,-0.43054 0.49602,-1.42699 0.65635,-2.21434 0.16035,-0.78734 0.78247,-2.3722 1.38252,-3.52191 0.80719,-1.5466 1.05121,-2.24884 0.93809,-2.69959 -0.16259,-0.64776 -2.21286,-3.30622 -2.54986,-3.30622 -0.10991,0 -0.80158,0.49529 -1.53692,1.10067 -1.80633,1.48706 -1.8322,1.63173 -1.09563,6.12523 0.23852,1.45512 1.08569,4.70682 1.33346,5.11831 0.22014,0.36562 0.51627,0.16112 0.87199,-0.60215 z m -2.46219,-12.63254 c 0.99245,-0.58627 1.04862,-0.98557 0.29239,-2.07775 -1.56594,-2.26152 -4.50353,-4.67442 -4.08385,-3.35442 0.51436,1.61789 1.96188,5.07202 2.2711,5.41941 0.46611,0.52364 0.65285,0.5252 1.52036,0.0127 z m 6.36737,-0.91929 c 0,-0.31277 -0.18766,-0.50508 -0.54194,-0.5554 -0.39912,-0.0567 -0.54195,0.0439 -0.54195,0.38137 0,0.25208 0.0761,0.53434 0.1689,0.62723 0.31953,0.31953 0.91499,0.0246 0.91499,-0.4532 z m -3.8193,-2.16753 c 0.14536,-0.37882 -0.29223,-1.08082 -0.67372,-1.08082 -0.37927,0 -0.51137,0.71331 -0.20127,1.08694 0.38011,0.458 0.69773,0.45577 0.87499,-0.006 z m -8.76029,-0.0225 c 0.1183,-0.11831 -0.91845,-3.34852 -1.18116,-3.68001 -0.0403,-0.0509 -0.37496,0.0202 -0.74351,0.15808 -0.36856,0.13787 -0.87957,0.31926 -1.13561,0.40302 -0.40368,0.13205 -0.26061,0.35912 1.07693,1.70864 1.54844,1.56232 1.71376,1.67986 1.98335,1.41027 z m 12.44137,-0.91644 c 0.17237,-0.20771 0.19231,-0.39533 0.0512,-0.48252 -0.34591,-0.21379 -0.9969,0.1042 -0.9969,0.48684 0,0.43494 0.58332,0.43228 0.94566,-0.004 z m -6.37369,-2.97201 c 1.1721,-0.57838 1.05273,-1.22714 -0.35269,-1.91697 -1.40871,-0.69146 -1.53238,-0.68108 -1.31806,0.11042 0.0986,0.36429 0.1612,1.01462 0.13899,1.44517 -0.0473,0.91774 0.25814,0.98977 1.53176,0.3613 z m 6.57213,-2.36171 c 0.40569,-0.12404 0.38315,-1.18435 -0.0324,-1.5293 -0.18347,-0.15226 -1.02348,-0.34091 -1.86671,-0.41922 -1.29579,-0.12036 -1.62263,-0.0697 -2.11137,0.32712 -0.45686,0.37097 -0.54388,0.60649 -0.41451,1.12192 0.14856,0.59193 0.23939,0.6382 0.97991,0.49929 0.44889,-0.0842 1.0141,-0.0423 1.25604,0.0932 0.38937,0.2179 1.29861,0.17933 2.18912,-0.0929 z m 1.023669,-2.36586 c 0,-0.67899 -0.598379,-1.30428 -0.783249,-0.81843 -0.15583,0.40951 0.22141,1.3911 0.53462,1.3911 0.136739,0 0.248629,-0.25768 0.248629,-0.57267 z m 6.403968,-0.0296 c 0.35494,-0.38299 0.81955,-0.60216 1.27647,-0.60216 1.01176,0 1.95409,-0.40365 1.95409,-0.83704 0,-0.26889 -0.26232,-0.36727 -0.9793,-0.36727 -1.13372,0 -1.91105,-0.34635 -1.91105,-0.85149 0,-0.40735 0.13863,-0.4405 1.92055,-0.45932 1.077,-0.0115 1.33448,-0.0943 1.40608,-0.45336 0.11704,-0.5864 -0.61995,-1.36704 -1.29053,-1.36704 -0.36711,0 -0.58472,-0.18335 -0.68317,-0.5756 -0.1482,-0.59045 -0.74364,-0.97684 -1.13381,-0.73572 -0.41559,0.25686 -0.21994,1.28343 0.3162,1.65894 0.52233,0.36587 0.44665,0.46537 -0.30149,0.39657 -0.50115,-0.046 -1.70853,1.27959 -2.53733,2.78595 -0.57914,1.05261 -0.63474,1.30046 -0.36474,1.62583 0.4905,0.59099 1.68152,0.47931 2.32803,-0.21829 z m -15.378437,-1.92411 c 0.64066,-0.98047 0.78513,-1.44056 0.78513,-2.50055 0,-1.22167 -0.0626,-1.35801 -1.05195,-2.29094 -0.57856,-0.54558 -1.98372,-1.89651 -3.12257,-3.00204 -1.13887,-1.10553 -2.21004,-1.9633 -2.38037,-1.90614 -0.40855,0.13708 -0.26946,3.40222 0.22309,5.23686 0.19621,0.73085 0.45103,2.12919 0.56627,3.10741 0.28469,2.41653 0.58472,2.71758 2.61812,2.62712 l 1.57717,-0.0702 z m 5.22009,0.35686 c 0.54407,-0.33655 0.82453,-0.37797 1.24916,-0.18448 1.23396,0.56221 1.85812,-0.67099 0.63852,-1.26161 -0.3643,-0.17642 -1.25851,-0.40244 -1.98712,-0.50225 -0.72861,-0.0999 -1.62282,-0.25647 -1.98711,-0.34812 -0.65201,-0.16405 -0.66238,-0.149 -0.66238,0.96115 0,1.63552 0.3281,2.12971 1.28128,1.92989 0.42133,-0.0884 1.08177,-0.35589 1.46765,-0.59458 z m -13.35109,-1.8175 c -0.34745,-1.0528 -1.16147,-1.60952 -2.20673,-1.50923 -1.27913,0.12276 -1.06732,0.86498 0.46253,1.62082 0.76489,0.37791 1.26323,0.7819 1.26454,1.02515 0.003,0.56563 0.58795,0.70212 0.6818,0.15907 0.0426,-0.24665 -0.0483,-0.82977 -0.20214,-1.29581 z m -9.4319,0.77789 c 0.0736,-0.38238 0.0242,-0.39654 -0.41874,-0.11983 -0.61017,0.38103 -0.65807,0.74482 -0.0834,0.63419 0.23031,-0.0444 0.45631,-0.27578 0.50223,-0.51427 z m 52.026148,-2.00246 c 0.78657,-0.22867 1.61144,-0.66699 1.96396,-1.04366 0.3343,-0.35717 1.05933,-0.93407 1.61123,-1.28202 1.19892,-0.7559 1.48246,-1.13386 0.85057,-1.13386 -0.62997,0 -3.49738,1.31971 -3.88674,1.78887 -0.17994,0.21682 -0.68711,0.37889 -1.18566,0.37889 -0.83437,0 -2.92082,0.69758 -2.92271,0.97716 -0.001,0.18119 1.21584,0.65141 1.7685,0.68325 0.24456,0.0141 1.05494,-0.15179 1.80085,-0.36863 z m -28.007978,-1.40785 c 0.34413,-2.75424 -0.34071,-3.37316 -1.97316,-1.78325 -1.61256,1.57052 -1.72586,1.87549 -0.94606,2.54622 0.46366,0.39883 0.94761,0.55741 1.70112,0.55741 h 1.05313 z m 35.760918,-0.18502 c 0.6,-0.98407 0.60132,-2.17625 0.004,-3.49251 -0.52903,-1.16543 -0.8034,-1.26088 -1.32712,-0.46158 -0.30084,0.45914 -0.31751,0.71279 -0.0911,1.38496 0.1525,0.45258 0.38203,0.957 0.51011,1.12089 0.36486,0.46694 0.0302,0.98448 -0.69147,1.06957 -0.84892,0.10012 -1.01633,0.61606 -0.29383,0.90565 0.98131,0.39331 1.39949,0.27668 1.88948,-0.52698 z M 90.967889,148.4329 c 0.27044,-0.29882 0.74186,-0.48171 1.24166,-0.48171 0.53717,0 0.80569,-0.11463 0.80569,-0.34363 0,-0.39594 -2.53525,-1.9232 -2.85969,-1.72268 -0.118817,0.0734 -0.286477,0.60373 -0.372677,1.17851 -0.261077,1.74105 0.28141,2.368 1.185017,1.36951 z m -72.668327,-0.28901 c 0.47089,-0.4709 0.33231,-1.30859 -0.35076,-2.1204 -0.62621,-0.74421 -0.67096,-0.75681 -2.10755,-0.59304 -2.6036,0.2968 -3.23035,1.07558 -0.86561,1.07558 1.2846,0 1.44518,0.0536 1.44518,0.4817 0,0.54143 0.79833,1.44519 1.27658,1.44519 0.17221,0 0.44319,-0.13013 0.60216,-0.28903 z m 46.3058,-1.04191 c 1.6533,-0.85494 0.37769,-2.76081 -1.84916,-2.76281 -1.30812,-0.001 -1.7581,0.49845 -1.06926,1.18727 0.27381,0.27383 0.49783,0.60624 0.49783,0.73872 0,0.37459 0.92093,1.20431 1.33671,1.20431 0.20528,0 0.69304,-0.16536 1.08388,-0.36749 z m 3.84184,-0.7601 c 0,-0.35554 -0.10164,-0.5241 -0.25774,-0.4276 -0.32634,0.20169 -0.68573,1.13195 -0.53555,1.38625 0.20617,0.3491 0.79329,-0.3604 0.79329,-0.95865 z m 20.086279,0.7466 c 0.416687,-1.08586 -0.0272,-2.37169 -0.726159,-2.10348 -0.4051,0.15548 -0.42997,1.04238 -0.0524,1.87098 0.320769,0.70401 0.569179,0.7782 0.778579,0.2325 z M 67.357482,145.7964 c 0.45718,-1.01383 0.36919,-1.699 -0.21819,-1.699 -0.39688,0 -0.97649,1.75727 -0.76307,2.31345 0.21971,0.57253 0.53504,0.37507 0.98126,-0.61445 z m 13.48482,-0.29753 c 0.69714,-2.34753 0.43215,-3.0875 -1.10566,-3.0875 -0.79707,0 -0.9815,0.12339 -1.63787,1.09595 -0.40681,0.60277 -0.73965,1.14093 -0.73965,1.1959 0,0.1936 2.53279,2.01619 2.8208,2.02984 0.16047,0.008 0.45853,-0.54778 0.66238,-1.23419 z m 12.654667,0.39746 c 0,-0.20288 -0.16987,-0.43406 -0.37748,-0.51373 -0.453,-0.17382 -0.94702,0.25242 -0.71937,0.62072 0.24535,0.39701 1.09685,0.31395 1.09685,-0.10711 z m -9.772187,-0.9731 c 0.44384,-0.44386 0.4679,-0.69043 0.12916,-1.32339 -0.52216,-0.97567 -1.4367,-0.44198 -1.4367,0.83841 0,0.92956 0.62947,1.16304 1.30754,0.48498 z m 36.115488,-1.36191 c 0.37592,-0.59599 -0.16575,-1.05597 -1.93795,-1.64573 -1.45384,-0.48379 -1.60081,-0.49348 -1.9648,-0.12945 -0.57607,0.57605 -0.083,1.19805 1.07581,1.35693 0.51953,0.0713 1.21057,0.31578 1.53559,0.54343 0.66318,0.46452 0.93606,0.43807 1.29135,-0.12518 z m -28.270221,-0.1865 c 0,-0.26764 -0.16057,-0.48174 -0.36129,-0.48174 -0.3667,0 -0.49408,0.50953 -0.20073,0.80289 0.30537,0.30537 0.56202,0.15871 0.56202,-0.32115 z m -15.415247,-0.48174 c 0,-0.13245 -0.11474,-0.24085 -0.25506,-0.24085 -0.1403,0 -0.1881,0.10839 -0.10624,0.24085 0.0818,0.13245 0.19666,0.24088 0.25508,0.24088 0.0584,0 0.10622,-0.1084 0.10622,-0.24088 z m 11.54799,-0.46829 c 0.25757,-0.25754 0.880816,-0.54224 1.384983,-0.63265 1.053227,-0.18888 1.568764,-0.58061 2.281274,-1.73347 0.44672,-0.72279 0.473,-0.92912 0.22413,-1.75976 -0.20027,-0.66846 -0.4486,-0.98281 -0.8574,-1.08543 -0.3165,-0.0795 -0.762817,-0.35144 -0.991807,-0.60448 -0.620377,-0.68553 -0.965504,-0.57 -1.76389,0.5904 -1.19416,1.73563 -1.54573,2.8677 -1.35778,4.37199 0.17878,1.43079 0.36,1.57391 1.08049,0.8534 z m -2.97506,-2.03199 c 0.0702,-0.18291 -0.0416,-1.22456 -0.24843,-2.31482 -0.2068,-1.09024 -0.37602,-2.02199 -0.37602,-2.07053 0,-0.0486 -0.26216,-0.26005 -0.5826,-0.47001 -0.54026,-0.35399 -0.65328,-0.34565 -1.55601,0.11488 -0.53538,0.27313 -1.22749,0.49661 -1.53802,0.49661 -0.31053,0 -1.0856,0.33042 -1.72239,0.73427 -1.10355,0.69984 -1.13881,0.75526 -0.75202,1.18264 0.22318,0.24661 0.6656,0.51359 0.98316,0.5933 0.31754,0.0797 1.47474,0.5731 2.57155,1.09642 2.1065,1.00511 3.01094,1.18405 3.22078,0.63724 z m 30.286678,-0.91181 c 0.18557,-0.29471 0.16044,-0.51249 -0.0946,-0.8198 -0.19103,-0.23018 -0.31344,-0.61863 -0.27199,-0.86322 0.11234,-0.66373 -0.66015,-0.54309 -1.58348,0.24725 l -0.78554,0.6724 0.90597,0.64698 c 0.98757,0.70527 1.44067,0.73408 1.82964,0.11627 z m 3.77315,-2.01488 c 0,-0.38458 -0.64015,-0.75734 -0.88317,-0.51429 -0.0769,0.0769 -0.0757,0.30705 0.004,0.51147 0.18471,0.48136 0.88034,0.48361 0.88034,0.004 z M 86.744312,136.167 c 0.6897,-1.47252 0.54108,-2.00354 -0.53183,-1.90014 -0.72284,0.0696 -0.7905,0.14948 -0.86144,1.0161 -0.0986,1.20406 0.11997,2.0703 0.52213,2.0703 0.17354,0 0.56555,-0.53383 0.87114,-1.18626 z m 10.726877,0.74466 c 0,-0.43565 -0.47143,-0.35611 -0.56495,0.0953 -0.052,0.25115 0.0383,0.36127 0.24087,0.29373 0.17825,-0.0593 0.32408,-0.23447 0.32408,-0.38902 z m -44.753377,-0.65885 c 0.0464,-0.14157 -0.18818,-0.40328 -0.52126,-0.58153 -0.47961,-0.2567 -0.73644,-0.26452 -1.23435,-0.0377 -0.52829,0.24072 -0.58001,0.34516 -0.32375,0.65395 0.34381,0.41426 1.94098,0.38756 2.07936,-0.0348 z m -7.17696,-0.69094 c 0.32126,-0.19858 0.35422,-0.85811 0.0429,-0.85811 -0.12226,0 -0.54523,-0.27166 -0.93981,-0.60368 -0.83755,-0.70474 -1.35086,-0.59973 -1.85752,0.38004 -0.65758,1.27163 -0.5139,1.45234 1.0684,1.34344 0.78144,-0.0538 1.54014,-0.17153 1.68604,-0.26169 z m 30.17824,-0.60174 c 0.32598,-0.25641 1.19383,-0.73206 1.92854,-1.05699 1.62688,-0.71949 1.85515,-1.02272 0.91189,-1.21136 -0.92213,-0.18445 -0.92066,-0.71463 0.004,-1.3982 0.39743,-0.29382 0.72259,-0.65614 0.72259,-0.80516 0,-0.41583 -1.37396,-1.63781 -1.64982,-1.46732 -0.37675,0.23284 -0.63363,-0.35738 -0.64311,-1.47765 -0.0115,-1.33538 -0.34578,-1.67342 -1.27497,-1.28854 -0.98657,0.40865 -2.27621,1.7983 -2.17309,2.34159 0.0556,0.29304 0.33301,0.4741 0.80537,0.52572 0.3963,0.0433 0.81891,0.17421 0.93916,0.29088 0.32375,0.31414 -0.2599,0.89946 -1.07553,1.0786 -0.38674,0.085 -0.77466,0.27012 -0.86203,0.41149 -0.25725,0.41622 -0.14901,1.50802 0.27263,2.74991 0.64215,1.89141 1.03774,2.13825 2.09447,1.30703 z m 31.367318,-1.16762 c 0.51927,-0.35989 0.97347,-0.76274 1.00932,-0.89523 0.0933,-0.34476 -1.296,-1.38737 -1.5991,-1.20003 -0.50225,0.3104 -1.42801,2.03038 -1.28849,2.39392 0.20723,0.54004 0.80538,0.44495 1.87827,-0.29866 z m -8.963171,-2.50729 c -0.39498,-0.39497 -0.89425,0.10431 -0.67518,0.67519 0.15067,0.3926 0.18774,0.39378 0.56359,0.018 0.31425,-0.31427 0.33869,-0.46601 0.11158,-0.69309 z m -65.553607,-0.0872 c 0.24209,-0.29169 0.71294,-0.35827 2.12931,-0.30107 1.47337,0.0595 1.83272,0.004 1.89341,-0.29252 0.15978,-0.78058 -0.52488,-1.19158 -2.58849,-1.55392 -3.11699,-0.54726 -3.28353,-0.52343 -3.62757,0.51897 -0.27917,0.84587 -0.26034,0.91334 0.40284,1.444 0.81281,0.6504 1.35731,0.70652 1.7905,0.18454 z m 37.37865,-2.51584 c 0.16547,-0.26495 0.43737,-0.48173 0.60419,-0.48173 0.43852,0 0.37358,-0.88497 -0.0776,-1.0581 -0.67698,-0.2598 -1.14183,-0.15724 -1.71103,0.37751 -0.60806,0.57124 -0.7326,1.29238 -0.25639,1.48453 0.63567,0.2565 1.15149,0.14115 1.44087,-0.32221 z m -35.64704,-2.27063 c 0.28733,-0.41962 0.21753,-0.58686 -0.41902,-1.00396 -0.48622,-0.31859 -0.67327,-0.33731 -0.96346,-0.0966 -0.19804,0.16438 -0.36008,0.49697 -0.36008,0.73911 0,0.82407 1.24845,1.08295 1.74256,0.36134 z m 33.63663,0.36589 c 0.58266,-0.36901 0.10227,-1.32144 -1.20145,-2.38196 -1.30949,-1.06522 -1.83147,-1.23588 -2.04869,-0.66981 -0.20356,0.53045 0.3351,1.32126 1.01646,1.49228 0.47622,0.11957 0.58573,0.26692 0.48485,0.65267 -0.24015,0.91836 0.84341,1.48023 1.74883,0.90682 z m -27.67831,-6.63781 c 0.16122,-0.19424 0.25163,-0.47766 0.20092,-0.6298 -0.0815,-0.24462 -2.19352,-1.18405 -2.66304,-1.18456 -0.34238,-4.9e-4 -0.17982,1.28752 0.21797,1.72708 0.48116,0.5317 1.83172,0.58423 2.24415,0.0873 z m 14.69228,-3.68123 c -0.0115,-0.66684 -1.39245,-2.01335 -2.33124,-2.27255 -1.77642,-0.49051 -2.07543,1.29618 -0.36781,2.19778 1.17788,0.62189 2.70892,0.6643 2.69905,0.0748 z m 63.144968,-8.87622 c 1.08079,-0.83167 1.422,-1.23695 1.36666,-1.62336 -0.10953,-0.76483 -0.70438,-0.74265 -1.51893,0.0566 -0.93934,0.92174 -1.80647,2.07956 -1.80647,2.41212 0,0.48862 0.51259,0.26737 1.95874,-0.84541 z m -10.9897,0.62441 c 0.0826,-0.13372 -0.18029,-0.43179 -0.58426,-0.66238 -0.404,-0.23059 -0.86638,-0.74442 -1.02755,-1.14185 l -0.29302,-0.72259 -0.0885,1.07515 c -0.0672,0.81848 0.0128,1.14911 0.33538,1.38496 0.50547,0.36959 1.44716,0.40749 1.65777,0.0667 z m 5.12356,-0.37271 c 0.61811,-0.43293 0.69969,-1.02226 0.16971,-1.22564 -0.54781,-0.2102 -1.80215,0.39331 -1.80215,0.86708 0,0.82038 0.7408,0.9831 1.63244,0.35856 z m 2.86806,-0.12276 c 1.69672,-0.64287 2.34386,-2.18325 1.1137,-2.65095 -1.28264,-0.48767 -1.79917,-0.22259 -2.14614,1.1014 -0.5127,1.9564 -0.41769,2.09898 1.03244,1.54955 z m -7.15,-0.70655 c 0,-0.13246 -0.10838,-0.24087 -0.24087,-0.24087 -0.13245,0 -0.24085,0.1084 -0.24085,0.24087 0,0.13247 0.10839,0.24087 0.24085,0.24087 0.13247,0 0.24087,-0.10838 0.24087,-0.24087 z m 0.0223,-3.97423 c -0.001,-0.13247 -0.22426,-0.2755 -0.49445,-0.31783 -0.48444,-0.076 -0.65171,0.19754 -0.32236,0.52687 0.23419,0.23421 0.82068,0.0841 0.81681,-0.20904 z"
         id="path69155"
         sodipodi:nodetypes="cssscssscsssccssccccsssssssccssssssssscsscscsccscsssscsssssccscsssscsssscsscccsccssccccscscscscsssssssccsscsssssccscsssccsssssssccssccccccsccsscccsscsssssscsscsssssscsssssssssssscscsccsssssssssscssscssssscsscsssscssscsssscsscsccscsccssssccccsccsssssscsscsccsscscsssccscsscsscsssssssscssscsssccscssssscsssssssssssccsssssssssscssssssscscssccscscsscsscccscscccssssscccsssssssssccsssscscssssssssccsssscsscsssscssccsccssssssccssssscsscsccsssssssssscssssscscssssscssscsssssssssscscssccsssssscsssssssssscsssssscssssscssssssssscscscscccscccscssssscsscccsccssssssssssssccscsscssssscscscscccsscsssscsssscccscsccssscsssscsssscssssssssscsscccccsssssssssssssccsc" />
      <text
         xml:space="preserve"
         style="font-size:24.4285px;line-height:1.25;font-family:'Zag Regular';-inkscape-font-specification:'Zag Regular, ';text-align:center;text-anchor:middle;stroke-width:0.183213"
         x="77.563095"
         y="233.49365"
         id="text69165"><tspan
           sodipodi:role="line"
           style="font-style:normal;font-variant:normal;font-weight:normal;font-stretch:normal;font-size:31.75px;font-family:'Zag Bold';-inkscape-font-specification:'Zag Bold, ';text-align:center;text-anchor:middle;fill:#ffffde;fill-opacity:1;stroke-width:0.183213"
           x="77.563095"
           y="233.49365"
           id="tspan69157">Foix Elagage</tspan><tspan
           sodipodi:role="line"
           style="font-size:24.6944px;text-align:center;text-anchor:middle;fill:#ffffde;fill-opacity:1;stroke-width:0.183213"
           x="77.563095"
           y="266.51202"
           id="tspan69159">0780012233</tspan><tspan
           sodipodi:role="line"
           style="font-size:24.6944px;text-align:center;text-anchor:middle;fill:#ffffde;fill-opacity:1;stroke-width:0.183213"
           x="77.563095"
           y="297.38004"
           id="tspan69161">foixelagage@gmail.com</tspan><tspan
           sodipodi:role="line"
           style="font-size:24.6944px;text-align:center;text-anchor:middle;fill:#ffffde;fill-opacity:1;stroke-width:0.183213"
           x="77.563095"
           y="328.24802"
           id="tspan69163">foixelagage.fr</tspan></text>
    </g>
    <path
       style="fill:none;stroke:#ffffde;stroke-width:3;stroke-linecap:butt;stroke-linejoin:miter;stroke-miterlimit:4;stroke-dasharray:none;stroke-opacity:1"
       d="M 224.3708,96.247742 V 332.46072"
       id="path81968" />
  </g>
</svg>
