<?xml version="1.0" encoding="UTF-8" standalone="no"?>
<!-- Created with Inkscape (http://www.inkscape.org/) -->

<svg
   width="210mm"
   height="297mm"
   viewBox="0 0 210 297"
   version="1.1"
   id="svg5"
   inkscape:version="1.1 (c68e22c387, 2021-05-23)"
   sodipodi:docname="logof.svg"
   xmlns:inkscape="http://www.inkscape.org/namespaces/inkscape"
   xmlns:sodipodi="http://sodipodi.sourceforge.net/DTD/sodipodi-0.dtd"
   xmlns="http://www.w3.org/2000/svg"
   xmlns:svg="http://www.w3.org/2000/svg">
  <sodipodi:namedview
     id="namedview7"
     pagecolor="#ffffff"
     bordercolor="#666666"
     borderopacity="1.0"
     inkscape:pageshadow="2"
     inkscape:pageopacity="0.0"
     inkscape:pagecheckerboard="0"
     inkscape:document-units="mm"
     showgrid="false"
     inkscape:zoom="0.70710678"
     inkscape:cx="544.47222"
     inkscape:cy="595.38391"
     inkscape:window-width="1920"
     inkscape:window-height="986"
     inkscape:window-x="-11"
     inkscape:window-y="-11"
     inkscape:window-maximized="1"
     inkscape:current-layer="layer1" />
  <defs
     id="defs2" />
  <g
     inkscape:label="Layer 1"
     inkscape:groupmode="layer"
     id="layer1">
    <rect
       style="fill:#36606c;fill-opacity:1;stroke-width:3.1429;stroke-linecap:square;stroke-linejoin:round"
       id="rect1910"
       width="377.72601"
       height="247.35941"
       x="-93.812958"
       y="-4.0095825"
       ry="0" />
    <path
       style="fill:#f5f4db;fill-opacity:1;stroke-width:0.176389"
       d="m -38.531336,184.35559 v -0.79375 H 92.349217 233.8131 v 0.79375 0.79375 H 92.349217 -38.531336 Z m 0,-2.73403 V 180.916 H 92.349217 233.8131 v 0.70556 0.70555 H 92.349217 -38.531336 Z m 152.311796,-2.71683 c -0.61463,-0.27131 -1.05506,-0.73585 -1.22422,-1.29124 -0.12516,-0.41092 0.40419,-1.84307 0.76326,-2.065 0.32186,-0.19891 0.22595,-0.41997 -0.28869,-0.66541 -0.74689,-0.35621 -0.73406,-1.10206 0.0383,-2.22484 0.34597,-0.50295 0.55121,-0.91446 0.45608,-0.91446 -0.0951,0 -0.37425,-0.29624 -0.62028,-0.65831 -1.76782,-2.60158 2.02398,-6.19828 5.15521,-4.88996 0.59962,0.25053 0.67003,0.24836 0.87132,-0.0269 0.18181,-0.24864 0.13747,-0.44651 -0.26112,-1.16539 l -0.4801,-0.86591 0.40549,-0.33304 c 0.97215,-0.79846 2.02982,0.64392 1.38564,1.88964 -0.14771,0.28564 -0.39191,0.62171 -0.54266,0.74682 -0.24534,0.20361 -0.23395,0.28387 0.10846,0.76474 0.55493,0.77933 0.63323,2.16506 0.17328,3.06665 -0.75523,1.48036 -2.39155,2.26543 -4.39175,2.10705 -1.13458,-0.0898 -1.29386,-0.0638 -1.45521,0.23764 -0.0996,0.18619 -0.18117,0.41697 -0.18117,0.51284 0,0.26884 0.99955,0.51412 2.6142,0.64148 2.85327,0.22506 3.90561,0.82154 3.6459,2.06655 -0.29327,1.40593 -1.39866,2.59433 -2.89093,3.10805 -0.7953,0.27379 -2.61951,0.251 -3.28098,-0.041 z m 3.3706,-0.71861 c 1.11269,-0.33043 1.88219,-1.0949 1.80244,-1.79065 -0.0831,-0.7246 -0.72263,-0.95713 -2.93026,-1.06535 l -1.89,-0.0926 -0.39687,0.60122 c -1.21851,1.8459 0.68865,3.15698 3.41469,2.34743 z m 1.13965,-7.19519 c 1.26201,-0.85047 1.02148,-2.15921 -0.59728,-3.24991 -1.92369,-1.29617 -4.17755,-0.77172 -4.17755,0.97207 0,1.85961 3.15911,3.36667 4.77483,2.27784 z m 14.89253,7.86146 c -1.17572,-0.63456 -1.37406,-1.47344 -0.6512,-2.75429 l 0.52494,-0.93014 -0.51013,-0.29277 c -0.69498,-0.39886 -0.68244,-1.14173 0.0369,-2.18727 l 0.54706,-0.79512 -0.34863,-0.38319 c -0.5467,-0.60091 -0.74549,-1.09672 -0.74549,-1.85942 0,-0.92276 0.20535,-1.43038 0.89753,-2.21873 1.1273,-1.28393 3.22135,-1.85587 4.63394,-1.26565 0.37379,0.15618 0.75056,0.24012 0.83727,0.18653 0.27009,-0.16692 0.17409,-0.77126 -0.23922,-1.50593 l -0.39688,-0.70545 0.39623,-0.32738 c 0.53107,-0.43879 1.06701,-0.27128 1.40592,0.43942 0.32606,0.68375 0.2145,1.27091 -0.37446,1.97085 l -0.42449,0.50449 0.42354,0.69973 c 0.86049,1.42163 0.38664,3.1188 -1.16097,4.15818 -1.0239,0.68766 -1.99178,0.92454 -3.24629,0.7945 -1.10934,-0.11499 -1.51739,0.0479 -1.51739,0.60567 0,0.4096 0.73557,0.6341 2.55763,0.78057 2.82442,0.22706 3.71015,0.67011 3.66379,1.83263 -0.0511,1.28239 -1.02038,2.50907 -2.51726,3.18586 -1.00406,0.45398 -3.00963,0.48936 -3.79236,0.0669 z m 3.57072,-0.67332 c 1.63764,-0.48632 2.36588,-1.97984 1.2297,-2.52192 -0.27019,-0.12891 -1.34821,-0.27959 -2.3956,-0.33484 l -1.90435,-0.10046 -0.38253,0.61894 c -1.17289,1.89777 0.68937,3.15893 3.45278,2.33828 z m 0.94985,-7.06437 c 0.30336,-0.15687 0.64614,-0.54394 0.79303,-0.89552 0.23414,-0.56037 0.22863,-0.6808 -0.058,-1.2671 -0.59863,-1.22456 -2.7251,-2.22359 -4.03382,-1.89512 -1.20831,0.30327 -1.72505,1.81851 -0.95431,2.79835 0.99403,1.26371 3.06111,1.87579 4.25309,1.25939 z m -43.673836,3.64364 c -0.09118,-0.28727 -0.358915,-0.35737 -1.819873,-0.47649 -0.942132,-0.0768 -3.598123,-0.14352 -5.902203,-0.14824 -2.30408,-0.005 -4.189236,-0.0698 -4.189236,-0.14465 0,-0.1816 0.646267,-0.435 1.43396,-0.56226 0.542652,-0.0877 0.65689,-0.18682 0.749653,-0.65064 0.142316,-0.71158 0.138998,-12.20707 -0.0038,-13.07082 -0.09511,-0.57543 -0.17173,-0.66146 -0.589098,-0.66146 -0.646497,0 -1.620236,-0.35249 -1.550624,-0.56132 0.03331,-0.0999 2.027814,-0.18867 4.902807,-0.21816 2.665662,-0.0273 5.249528,-0.11069 5.741927,-0.18521 0.768962,-0.11638 0.922334,-0.2072 1.087109,-0.64373 0.3885,-1.02926 0.517049,-0.49089 0.436695,1.82891 -0.04453,1.28543 -0.115254,2.37454 -0.157175,2.42024 -0.149964,0.16347 -0.37226,-0.40718 -0.482584,-1.23884 -0.111134,-0.83777 -0.120318,-0.84793 -0.945769,-1.04592 -0.45845,-0.10997 -2.071797,-0.24517 -3.585215,-0.30045 l -2.751668,-0.10051 -0.112242,0.41937 c -0.06173,0.23065 -0.113326,1.7489 -0.114651,3.37388 l -0.0024,2.95452 1.896181,-0.003 c 1.733909,-0.003 3.906003,-0.21382 4.674305,-0.45325 0.169774,-0.0529 0.308681,-0.23776 0.308681,-0.41077 0,-0.4152 0.356018,-1.42554 0.502325,-1.42556 0.14217,-1e-5 0.106703,5.27062 -0.03643,5.41375 -0.152594,0.15259 -0.465894,-0.77047 -0.465894,-1.37264 0,-0.77133 -0.542151,-0.90948 -3.933885,-1.00241 l -2.963746,-0.0812 0.05333,3.41606 0.05333,3.41605 1.672965,0.0513 c 1.803619,0.0553 3.662119,-0.16622 4.961954,-0.59133 0.790779,-0.25863 0.818553,-0.29219 0.970138,-1.17224 0.08583,-0.4983 0.244073,-0.93492 0.351655,-0.97026 0.136258,-0.0448 0.197737,0.63336 0.202639,2.23519 0.0065,2.12354 -0.128394,2.79689 -0.393178,1.96263 z m -42.567044,-0.7353 c -2.610279,-1.32242 -2.535521,-5.37582 0.132304,-7.17367 1.219849,-0.82206 3.202076,-1.13965 4.632882,-0.74227 1.923445,0.53419 2.916067,2.82963 2.223387,5.14158 -0.278562,0.92976 -1.320586,2.07697 -2.371938,2.61136 -1.2388,0.62967 -3.535436,0.71075 -4.616635,0.163 z m 4.1865,-0.66347 c 1.104286,-0.80797 1.583549,-2.42003 1.253866,-4.21753 -0.312882,-1.70589 -1.185273,-2.55195 -2.619932,-2.54083 -1.955982,0.0151 -3.036112,1.26407 -3.028883,3.50221 0.0059,1.83 0.778988,3.18379 2.045641,3.58228 0.68664,0.21602 1.824158,0.0581 2.349308,-0.32613 z m 47.84577,0.67274 c -0.65292,-0.39807 -1.09182,-1.26982 -1.09182,-2.16859 0,-0.72509 0.58804,-1.64131 1.41531,-2.20517 0.54627,-0.37233 0.75748,-0.40889 1.93608,-0.33511 0.7276,0.0455 1.46721,0.14307 1.64356,0.21671 0.29393,0.12274 0.31286,0.0496 0.22722,-0.87763 -0.0514,-0.55633 -0.18555,-1.12251 -0.29815,-1.25818 -0.32379,-0.39015 -2.14044,-0.31573 -3.1769,0.13014 -1.60802,0.69175 -1.37373,-0.15529 0.2724,-0.98481 1.85095,-0.93274 3.97095,-0.76237 4.48243,0.36022 0.12042,0.26428 0.20083,1.45576 0.20083,2.97568 0,1.3942 0.0482,2.66047 0.10707,2.81392 0.14622,0.38106 0.63669,0.35029 1.17578,-0.0738 0.5284,-0.41563 0.65743,-0.43766 0.65743,-0.11224 0,0.65024 -1.95317,1.93937 -2.79153,1.84246 -0.38935,-0.045 -0.48131,-0.15457 -0.52694,-0.62778 -0.0548,-0.56869 -0.41622,-0.77561 -0.66149,-0.37875 -0.19909,0.32213 -1.89161,1.03668 -2.45824,1.03782 -0.29104,5.3e-4 -0.79191,-0.15913 -1.11304,-0.35492 z m 2.7385,-0.87501 c 0.11789,-0.001 0.49493,-0.24876 0.83785,-0.54985 0.56692,-0.49776 0.6235,-0.63254 0.6235,-1.48529 0,-0.91429 -0.0144,-0.94106 -0.57327,-1.06559 -1.93117,-0.43031 -3.05662,0.16336 -3.02595,1.59618 0.0235,1.09934 0.69853,1.78083 1.57075,1.58583 0.19402,-0.0434 0.44923,-0.08 0.56712,-0.0813 z m 16.68345,0.88668 c -1.59119,-0.97021 -1.45968,-3.35837 0.23977,-4.35432 0.6802,-0.39862 0.92166,-0.44464 1.96142,-0.37385 0.65216,0.0444 1.32464,0.1411 1.49442,0.21489 0.27148,0.11799 0.30868,0.0242 0.30868,-0.77825 0,-1.39789 -0.17305,-1.59478 -1.40163,-1.59478 -0.63512,0 -1.41951,0.1466 -2.02582,0.37862 -0.54416,0.20824 -1.04727,0.32074 -1.118,0.25 -0.22711,-0.2271 0.94624,-1.10565 2.01229,-1.5067 1.42977,-0.53787 2.87916,-0.44335 3.5552,0.23186 0.47233,0.47175 0.47817,0.50714 0.56546,3.42776 0.0839,2.80591 0.10596,2.95364 0.44933,3.00278 0.19863,0.0284 0.54812,-0.11048 0.77664,-0.30868 0.87658,-0.76025 1.00463,-0.17592 0.14104,0.64362 -1.51137,1.43427 -2.95451,1.4621 -2.95451,0.057 0,-0.36585 -0.0117,-0.36443 -0.58276,0.0711 -1.30659,0.99658 -2.47663,1.21507 -3.42153,0.63894 z m 2.6032,-0.88896 c 0.34507,-0.0959 0.84476,-0.40117 1.11043,-0.67847 0.41816,-0.43646 0.47449,-0.62024 0.41932,-1.36813 -0.0634,-0.85939 -0.0678,-0.865 -0.84584,-1.06328 -1.42548,-0.36331 -2.35049,-0.0234 -2.64914,0.97334 -0.27783,0.92732 0.0288,1.87051 0.68631,2.11109 0.62084,0.22717 0.55736,0.22591 1.27892,0.0255 z m 18.45524,1.05523 c -2.23323,-0.67032 -3.23873,-3.8829 -1.93872,-6.1942 0.71761,-1.27585 1.75581,-1.92404 3.27736,-2.04617 2.11486,-0.16976 3.49654,0.89942 3.75737,2.90758 l 0.12028,0.92604 h -3.11752 -3.11752 l 0.1194,0.66146 c 0.31095,1.72254 1.41517,2.68993 3.07038,2.68993 0.8213,0 0.97097,-0.068 1.74685,-0.79375 0.46672,-0.43656 0.89988,-0.79375 0.96258,-0.79375 0.25786,0 0.083,0.519 -0.39902,1.18443 -0.94457,1.30395 -2.88848,1.93657 -4.48144,1.45843 z m 2.3745,-5.1123 c 0.99417,0 1.03246,-0.017 1.03246,-0.45841 0,-0.7058 -0.52262,-1.64581 -1.07336,-1.93061 -1.44338,-0.7464 -3.15998,0.41823 -3.15998,2.1439 v 0.47176 l 1.08421,-0.11332 c 0.59632,-0.0623 1.54882,-0.11332 2.11667,-0.11332 z m -109.315295,4.91218 c -0.116201,-0.18802 0.431109,-0.43574 1.236956,-0.55987 0.380206,-0.0586 0.756022,-0.20851 0.835147,-0.33322 0.178875,-0.28191 0.192577,-13.55861 0.01427,-13.82829 -0.07127,-0.1078 -0.500131,-0.2506 -0.953015,-0.31733 -0.452883,-0.0667 -0.919008,-0.23649 -1.035834,-0.37726 -0.116825,-0.14076 -0.143159,-0.2569 -0.05852,-0.25808 11.558743,-0.16133 11.537381,-0.15975 11.704691,-0.86849 0.05533,-0.23437 0.189655,-0.45581 0.298504,-0.4921 0.242689,-0.0809 0.277061,4.66628 0.03487,4.81596 -0.200717,0.12405 -0.324644,-0.2072 -0.476928,-1.27481 -0.121138,-0.84925 -0.128455,-0.85724 -1.002139,-1.09444 -0.48406,-0.13142 -2.117931,-0.2795 -3.630826,-0.32906 l -2.750716,-0.0901 -0.114349,1.211 c -0.06289,0.66605 -0.114914,2.1952 -0.115603,3.39811 l -0.0012,2.1871 2.778125,-0.11178 c 1.527968,-0.0615 3.055937,-0.17578 3.395486,-0.25398 0.561329,-0.12927 0.639826,-0.22609 0.864886,-1.06676 0.137334,-0.513 0.333639,-0.89398 0.440972,-0.85582 0.106396,0.0378 0.1727,0.21897 0.147341,0.40256 -0.02536,0.18359 -0.04892,1.34344 -0.05235,2.57744 -0.0075,2.7035 -0.295913,3.24435 -0.610686,1.1453 l -0.12016,-0.80129 -1.099102,-0.1914 c -0.604523,-0.10527 -2.144336,-0.1914 -3.421822,-0.1914 h -2.322741 v 2.35538 c 0,1.29546 0.05046,2.83811 0.112123,3.42812 l 0.112125,1.07275 0.725722,0.10909 c 1.42245,0.21384 1.695863,0.29752 1.695863,0.51902 0,0.17387 -0.737302,0.22227 -3.27476,0.21501 -1.801119,-0.005 -3.311467,-0.0688 -3.35633,-0.14135 z m 22.858867,-0.0715 c 0,-0.12068 0.396875,-0.31464 0.881945,-0.431 l 0.881944,-0.21158 v -3.06921 -3.06921 h -0.881944 c -1.210324,0 -1.208776,-0.42984 0.0025,-0.68961 0.486436,-0.10432 1.175177,-0.31116 1.530535,-0.45964 0.35536,-0.14848 0.709729,-0.20634 0.78749,-0.12858 0.07776,0.0778 0.162925,1.7663 0.189256,3.75232 l 0.04787,3.61093 0.837847,0.25158 c 1.553171,0.46638 1.042354,0.66343 -1.719792,0.66343 -1.921949,0 -2.557639,-0.0545 -2.557639,-0.21943 z m 5.510703,0.0541 c 0.03962,-0.12127 0.343895,-0.3099 0.676157,-0.41919 0.59103,-0.1944 3.575826,-3.15557 3.472896,-3.4454 -0.02561,-0.0721 -0.586825,-0.80964 -1.247149,-1.63896 -1.049501,-1.3181 -1.299219,-1.53268 -1.984375,-1.70521 -0.453914,-0.11429 -0.783787,-0.2999 -0.783787,-0.441 0,-0.19427 0.446798,-0.24364 2.204861,-0.24364 2.274041,0 2.712191,0.15649 1.66773,0.59565 l -0.53713,0.22585 0.801348,1.08855 c 0.440743,0.59871 0.836833,1.08856 0.880202,1.08856 0.102422,0 1.509377,-1.96376 1.509377,-2.10671 0,-0.06 -0.238125,-0.19889 -0.529166,-0.30874 -1.035814,-0.39098 -0.594995,-0.58316 1.337615,-0.58316 1.414258,0 1.849319,0.0534 1.794737,0.22048 -0.03962,0.12127 -0.326619,0.3047 -0.637765,0.40763 -0.600839,0.19875 -2.782159,2.23995 -2.946265,2.757 -0.17774,0.56001 2.468979,3.82443 3.333447,4.11141 0.292223,0.097 0.563737,0.27561 0.603361,0.39688 0.05507,0.16852 -0.451035,0.22048 -2.147515,0.22048 -2.274246,0 -2.776404,-0.17323 -1.690393,-0.58315 0.291042,-0.10986 0.525641,-0.24187 0.521331,-0.29336 -0.01818,-0.21727 -1.706156,-2.56307 -1.844311,-2.56307 -0.198732,0 -1.675631,2.16158 -1.675631,2.45244 0,0.12373 0.198437,0.31538 0.440972,0.42588 0.876309,0.39928 0.464799,0.56126 -1.425809,0.56126 -1.414258,0 -1.84932,-0.0534 -1.794738,-0.22048 z m 31.073075,0.0167 c -0.09756,-0.15786 0.433462,-0.41618 1.180892,-0.57446 0.44252,-0.0937 0.46242,-0.15338 0.57368,-1.72081 0.13916,-1.96051 -0.0689,-14.94697 -0.24124,-15.05345 -0.067,-0.0414 -0.368531,0.0179 -0.670085,0.13167 -0.301557,0.11383 -0.604543,0.1507 -0.673303,0.0819 -0.228267,-0.22827 0.654037,-0.96337 1.742628,-1.4519 1.644748,-0.73812 1.581902,-1.01974 1.437952,6.44329 -0.0664,3.44413 -0.0615,7.43341 0.011,8.86506 l 0.13178,2.60299 0.466666,0.0991 c 0.75084,0.15952 1.316,0.43072 1.18037,0.56641 -0.17861,0.17868 -5.030262,0.18823 -5.140339,0.0101 z M 61.402969,162.7087 c -0.15102,-0.21561 -0.274584,-0.53672 -0.274584,-0.71357 0,-0.43327 0.779122,-1.18746 1.226705,-1.18746 0.895073,0 1.413563,1.39499 0.743781,2.00113 -0.473014,0.42807 -1.362738,0.37556 -1.695902,-0.1001 z M -38.531336,151.54725 V 150.7535 H 92.349217 233.8131 v 0.79375 0.79375 H 92.349217 -38.531336 Z m 0,-2.73402 v -0.70556 H 92.349217 233.8131 v 0.70556 0.70555 H 92.349217 -38.531336 Z"
       id="path1008"
       sodipodi:nodetypes="ccccccccccccccccccsssssssssscsssssscssssssccccsccsssssscsscsssssscssscsssssssssssscssssssssscscsssssscssssssscssccsssssscccsssssccsssssssscsssssscssssssssssssscssssssssssssssssssssssssscsscsssssccsssscccssssssssssccssssssscsssssscscccsssssscsscsscsscsssscccssssscsssssssssssscsssssssssssssssssscsssccsssccsccssssscccccccccccccccccc" />
    <path
       style="fill:#f5f4db;stroke-width:0.189336"
       d="m 92.877843,147.10677 c -0.05705,-0.0923 0.144082,-0.71435 0.446953,-1.38232 1.485284,-3.27572 1.611838,-9.30086 0.305476,-14.5434 -0.246513,-0.98928 -0.588111,-2.3951 -0.759108,-3.12404 -0.173882,-0.74125 -0.535899,-1.629 -0.821433,-2.01434 -1.764975,-2.38189 -2.717615,-3.52023 -3.101659,-3.70625 -0.851792,-0.41258 -1.735918,-0.62217 -2.624637,-0.62217 -0.626173,0 -1.216337,-0.16681 -1.943681,-0.54942 -0.574467,-0.30219 -1.328627,-0.60495 -1.675914,-0.67282 -0.347289,-0.0678 -0.945522,-0.25713 -1.329408,-0.42058 -0.913793,-0.38908 -1.703014,-0.2303 -2.996038,0.60275 -1.185219,0.76359 -1.608665,0.81515 -2.192226,0.26693 -0.230951,-0.21697 -0.705049,-0.46276 -1.053552,-0.54619 -0.348503,-0.0834 -0.774042,-0.20991 -0.945644,-0.28103 -0.482529,-0.20001 -1.108015,0.595 -1.108015,1.40831 0,0.5428 -0.149345,0.82905 -0.726637,1.39276 -0.66234,0.64675 -0.843898,0.71937 -2.05182,0.82063 -0.840827,0.0705 -1.585229,0.0253 -2.036655,-0.1237 -0.681115,-0.22479 -0.707088,-0.26422 -0.608741,-0.92421 0.263258,-1.76669 0.316862,-1.64308 -0.682176,-1.57315 -1.101745,0.0771 -1.311752,-0.24997 -0.695579,-1.08339 0.362569,-0.49039 0.386778,-0.61756 0.1678,-0.88141 -0.188568,-0.22722 -0.433022,-0.27778 -0.929099,-0.19219 -0.37026,0.0639 -1.109206,0.18102 -1.642103,0.2603 -0.783684,0.11659 -1.158591,0.3147 -1.96117,1.03628 -0.917093,0.82454 -1.708654,1.15138 -1.708654,0.70551 0,-0.10261 0.104098,-0.57583 0.231335,-1.05154 0.195654,-0.73154 0.188354,-0.89212 -0.04734,-1.04117 -0.387075,-0.24479 -1.64884,-0.22653 -1.804991,0.0261 -0.07076,0.11448 -0.645448,0.45256 -1.277087,0.75128 -1.184658,0.56026 -1.645981,0.51216 -1.645981,-0.17162 0,-0.16601 -0.139378,-0.66678 -0.309727,-1.11283 -0.38268,-1.00204 -0.81357,-1.05337 -1.947423,-0.23202 -0.574937,0.41648 -0.968195,0.56262 -1.401092,0.52068 -0.55769,-0.054 -0.601814,-0.10988 -0.601814,-0.76146 0,-0.40904 -0.134505,-0.8377 -0.321575,-1.02483 -0.30258,-0.30268 -0.414431,-0.27967 -1.893358,0.38958 -2.126253,0.96217 -2.357225,1.12832 -2.814478,2.02461 -0.365045,0.71555 -0.441199,0.76622 -0.987345,0.65699 -0.325485,-0.065 -0.771782,-0.28745 -0.991769,-0.49412 -0.248638,-0.23358 -0.662351,-0.37576 -1.093418,-0.37576 -0.746362,0 -1.114427,-0.37455 -1.344909,-1.36862 -0.07638,-0.32944 -0.491226,-0.79101 -1.144985,-1.27398 l -1.025203,-0.75736 -0.866462,0.32114 c -0.744168,0.2758 -0.953186,0.28598 -1.480907,0.072 -0.337946,-0.137 -0.912651,-0.31155 -1.277122,-0.3879 -0.364472,-0.0763 -0.935347,-0.28099 -1.268614,-0.45477 -0.739923,-0.38582 -1.356996,-0.39449 -1.844281,-0.026 -0.572411,0.43294 -1.052493,0.35367 -1.052493,-0.17378 0,-0.32769 0.176873,-0.53571 0.643956,-0.75735 0.354175,-0.16806 0.736858,-0.30558 0.850407,-0.30558 0.113548,0 0.313674,-0.17524 0.444725,-0.38943 0.131051,-0.21417 0.506961,-0.55686 0.835356,-0.76149 0.532199,-0.33165 0.690316,-0.34715 1.455075,-0.1426 1.085357,0.29029 1.763713,0.0233 2.053617,-0.80834 0.175097,-0.50228 0.276536,-0.57172 0.708899,-0.48525 0.803094,0.16062 1.05124,-0.0977 0.796343,-0.82885 -0.11822,-0.33912 -0.214945,-0.82546 -0.214945,-1.08075 0,-0.44524 -0.03664,-0.459 -0.899345,-0.33773 -0.49464,0.0696 -1.410553,0.14367 -2.03536,0.16476 -0.624808,0.021 -1.452119,0.18551 -1.838468,0.36537 -0.562184,0.26173 -0.796402,0.28423 -1.172933,0.11266 -0.546682,-0.24908 -0.778037,-0.70943 -0.497519,-0.98994 0.107548,-0.10755 0.195544,-0.42927 0.195544,-0.71495 0,-0.65612 -0.617472,-1.10888 -1.512285,-1.10888 -0.368877,0 -0.975063,-0.16314 -1.347081,-0.36253 l -0.676394,-0.36252 -0.876085,0.56989 c -0.729527,0.47455 -0.964314,0.54067 -1.403494,0.39527 -0.413957,-0.13705 -0.540594,-0.30948 -0.588694,-0.80157 -0.115411,-1.18068 0.08042,-1.52124 0.874773,-1.52124 0.96271,0 1.591673,-0.45906 1.516683,-1.10699 -0.03513,-0.30354 -0.226744,-0.57633 -0.484148,-0.68926 -0.616001,-0.27025 -0.527815,-0.87083 0.236669,-1.61179 0.62156,-0.60244 0.852697,-1.21356 0.513208,-1.35691 -0.322124,-0.136011 -1.382481,-2.111732 -1.278618,-2.382389 0.08847,-0.230545 0.286894,-0.258658 1.005816,-0.142494 1.192342,0.192632 2.498435,0.126339 2.996328,-0.15209 0.222436,-0.124397 0.841883,-0.46191 1.37655,-0.750035 0.80956,-0.436261 0.971115,-0.610399 0.9661,-1.041347 -0.0033,-0.284615 -0.131113,-0.68287 -0.284003,-0.885009 -0.378132,-0.499934 -0.360182,-0.576303 0.278509,-1.184898 0.512215,-0.488082 0.544256,-0.594887 0.402721,-1.342453 -0.08457,-0.4467 -0.206737,-0.865151 -0.271476,-0.92989 -0.06474,-0.06474 -0.650669,-0.110807 -1.302067,-0.10237 -0.724299,0.0093 -1.347252,-0.08907 -1.603703,-0.253458 -0.245038,-0.157065 -0.900086,-0.268792 -1.575904,-0.268792 -0.988636,0 -1.147519,-0.04694 -1.094294,-0.323316 0.03714,-0.192852 0.378094,-0.414755 0.84496,-0.549926 1.048477,-0.303562 1.767958,-0.797492 1.9821,-1.360727 0.159289,-0.418963 0.250329,-0.451936 0.942314,-0.341283 0.421293,0.06737 0.824084,0.130642 0.895089,0.140607 0.576283,0.08089 1.214645,-0.100234 1.757789,-0.498744 1.235154,-0.906245 2.100902,-1.223483 3.350778,-1.227841 1.713944,-0.006 2.688633,0.595112 2.688633,1.658072 0,0.198976 0.179125,0.523881 0.398056,0.72201 0.218931,0.19813 0.529023,0.616039 0.689094,0.928689 0.414419,0.809441 0.597965,0.8698 1.400293,0.460484 0.391872,-0.199919 1.116874,-0.50078 1.611117,-0.668578 0.863878,-0.293295 4.232215,-2.417344 4.232215,-2.668804 0,-0.06722 -0.125836,-0.261257 -0.279636,-0.431205 -0.153799,-0.169946 -0.302901,-0.513567 -0.331337,-0.763605 -0.06411,-0.563776 0.670663,-0.97018 1.981891,-1.096172 0.844196,-0.08112 0.901112,-0.120665 0.901112,-0.626139 0,-0.698962 0.463469,-0.981406 2.298127,-1.400511 1.425625,-0.325665 1.464234,-0.324492 2.724763,0.08274 1.553208,0.50179 1.910251,0.330236 1.229377,-0.590696 -0.428487,-0.579561 -0.432587,-0.61401 -0.09591,-0.805976 0.193441,-0.110298 0.623374,-0.488385 0.955405,-0.840198 0.557648,-0.590868 0.732524,-0.654443 2.292752,-0.833517 2.030445,-0.233043 2.743547,-0.01141 2.901741,0.901873 0.12103,0.698731 0.745847,1.038117 1.918079,1.041851 0.544942,0.0017 0.965265,0.110155 1.111864,0.286794 0.509847,0.614328 1.413221,0.13651 1.29255,-0.683665 -0.0406,-0.275921 -0.26877,-0.49108 -0.66362,-0.625762 -0.931413,-0.317706 -0.943656,-0.4399 -0.130019,-1.297909 1.397859,-1.474095 1.773118,-2.038225 1.773118,-2.665541 0,-0.577964 0.04675,-0.615964 1.042547,-0.847479 0.933699,-0.217076 1.103195,-0.206744 1.623413,0.09895 0.564093,0.331478 0.588658,0.330721 0.85081,-0.02619 0.148471,-0.202138 0.269946,-0.516614 0.269946,-0.698835 0,-0.18222 0.0852,-0.383966 0.189336,-0.448325 0.104131,-0.06436 0.189336,-0.403656 0.189336,-0.753991 0,-0.392396 0.171799,-0.842475 0.447433,-1.172175 0.246086,-0.29436 0.50499,-0.719209 0.575338,-0.944108 0.22589,-0.722149 0.581257,-0.883197 1.383933,-0.627183 1.963024,0.62611 2.398934,1.125819 1.727119,1.979894 -0.205485,0.261231 -0.346345,0.666949 -0.313023,0.901596 0.05493,0.386793 0.157823,0.424564 1.101931,0.404501 0.57274,-0.01217 1.207454,-0.05478 1.410477,-0.09466 0.272098,-0.05347 0.419411,0.07677 0.560409,0.49547 0.105204,0.312403 0.21164,0.599148 0.236524,0.637211 0.02488,0.03806 0.513074,0.08999 1.084865,0.115406 0.753707,0.0335 1.18595,-0.05028 1.571706,-0.304625 0.292648,-0.192957 0.674126,-0.351391 0.847728,-0.352077 0.173604,-6.82e-4 0.71909,-0.174186 1.212194,-0.385555 0.853522,-0.365863 0.940691,-0.369647 1.816189,-0.07885 0.533366,0.177156 1.011312,0.477745 1.137898,0.715645 0.415765,0.78137 1.388926,1.823399 1.706067,1.826796 0.175219,0.0018 0.374679,-0.173342 0.443247,-0.389377 0.16365,-0.515619 1.715526,-1.186281 2.409549,-1.041316 0.286371,0.05981 0.766188,0.159545 1.06626,0.221622 0.688157,0.142361 0.829342,-0.08343 0.537122,-0.85897 -0.210533,-0.558744 -0.191628,-0.643915 0.216283,-0.974425 0.54943,-0.445174 1.135623,-0.459084 1.998867,-0.04743 0.850279,0.40547 1.11771,0.203089 1.84465,-1.395951 0.294011,-0.646737 0.687574,-1.257773 0.874585,-1.357858 0.187009,-0.100083 1.157349,-0.183648 2.156299,-0.185697 1.68336,-0.0034 1.84806,0.0301 2.25053,0.458513 0.23884,0.25423 0.63191,0.462237 0.87349,0.462237 0.54768,0 2.14546,-1.533268 2.14546,-2.058823 0,-0.404328 0.90888,-1.159886 1.39525,-1.159886 0.1625,0 0.38691,0.170889 0.49869,0.379751 0.16905,0.315881 0.32612,0.360101 0.93389,0.262916 0.63129,-0.100942 0.74788,-0.06254 0.85739,0.282484 0.0697,0.219626 0.34905,0.455117 0.62077,0.523313 0.56769,0.142481 2.13143,1.154802 2.13143,1.379827 0,0.08292 0.32929,0.368671 0.73175,0.635004 0.71788,0.475075 0.74766,0.478515 1.57302,0.181716 0.82085,-0.295174 0.86634,-0.290477 1.87163,0.193182 0.56668,0.272641 1.26464,0.544618 1.55101,0.604395 0.39477,0.08241 0.52068,0.21957 0.52068,0.567244 0,0.252207 0.0852,0.511215 0.18933,0.575574 0.10412,0.06436 0.18933,0.365967 0.18933,0.670242 0,0.436401 0.10283,0.579048 0.48721,0.675506 0.63918,0.160426 1.01488,-0.186619 0.69387,-0.64095 -0.12673,-0.17937 -0.39711,-0.6332 -0.60084,-1.008513 -0.48368,-0.891041 -0.25662,-1.116304 1.12518,-1.116304 1.04809,0 2.50974,-0.576411 4.01272,-1.582448 0.58696,-0.392883 1.21148,-0.280022 1.37948,0.249292 0.15648,0.493009 0.42199,0.549432 1.61183,0.342512 1.32987,-0.23127 2.27096,-0.260575 2.7264,-0.0849 0.34601,0.133467 0.34382,0.155641 -0.0574,0.582774 -0.22942,0.244214 -0.68949,0.577507 -1.02237,0.74065 -1.30662,0.640371 -2.34448,1.077469 -2.55837,1.077469 -0.13295,0 -0.22422,0.289528 -0.22422,0.711259 0,1.104055 -0.31633,1.951766 -0.98625,2.64294 -1.19247,1.230324 0.0211,1.664335 2.0276,0.72509 1.50697,-0.705442 2.93168,-0.95397 3.96997,-0.692525 0.48263,0.121527 0.93789,0.183646 1.01168,0.13804 0.20506,-0.126733 1.3611,0.406515 1.3611,0.627836 0,0.107179 -0.23431,0.250841 -0.52068,0.319251 -0.28637,0.06841 -0.60588,0.186732 -0.71001,0.262936 -0.10412,0.0762 -0.50166,0.239097 -0.88338,0.361981 -0.38174,0.122885 -1.06335,0.544006 -1.51469,0.935825 -1.20981,1.050239 -1.70403,1.351463 -2.21734,1.351463 -0.25324,0 -1.1928,0.20897 -2.0879,0.464378 -0.8951,0.255408 -1.85518,0.510982 -2.1335,0.567943 -0.56805,0.116252 -1.67132,1.127926 -1.67132,1.532544 0,0.211613 0.40208,0.25549 2.03536,0.222106 2.27611,-0.04652 2.87682,0.155883 4.26005,1.435391 1.03156,0.954217 0.97035,1.693974 -0.18933,2.288168 -0.65873,0.33751 -0.75501,0.655069 -0.38047,1.254807 0.18355,0.293906 0.18519,0.45566 0.008,0.740127 -0.16553,0.265065 -0.17861,0.663972 -0.0481,1.467352 0.17474,1.075609 0.51953,1.576668 1.08498,1.576668 0.36655,0 1.05898,-0.385855 1.2388,-0.690314 0.093,-0.157481 0.49467,-0.256773 1.04134,-0.257422 1.67534,-0.002 2.39317,-0.337141 3.4061,-1.590273 0.30475,-0.377012 1.02942,-0.387494 1.73035,-0.02503 0.76818,0.397241 0.89113,0.869668 0.34648,1.331291 -0.7595,0.643732 -1.12917,1.373311 -0.90657,1.789236 0.26234,0.490191 0.24558,1.004922 -0.0457,1.403239 -0.2231,0.305113 -0.32026,0.308342 -1.33392,0.04431 -1.64112,-0.427457 -3.57923,-0.406321 -5.32213,0.05804 -0.82535,0.219896 -1.64147,0.527268 -1.81361,0.683052 -0.17213,0.155781 -0.60446,0.286851 -0.96073,0.291262 -0.35628,0.0044 -1.11638,0.119109 -1.68912,0.254885 -0.98266,0.23295 -1.03799,0.276969 -0.98186,0.781142 0.0327,0.293853 0.34877,0.839463 0.70235,1.212469 0.35358,0.373006 0.85837,0.933793 1.12178,1.246196 l 0.47891,0.568006 0.33342,-0.399686 c 0.18339,-0.219833 0.58902,-0.55088 0.90144,-0.735655 0.3124,-0.184786 0.913,-0.771742 1.33466,-1.304342 0.69704,-0.880398 0.84473,-0.973489 1.62595,-1.024814 0.59881,-0.03934 0.93301,0.0324 1.10254,0.236669 0.38278,0.461231 1.26136,0.347332 2.12031,-0.274884 1.08166,-0.783558 1.66882,-0.699185 2.21037,0.317622 0.3887,0.729821 -0.12935,1.427005 -1.53809,2.069961 -0.45497,0.207649 -0.69755,0.437056 -0.66268,0.626672 0.0312,0.169963 1.07696,0.807657 2.42171,1.476817 2.31709,1.15301 2.39603,1.17683 3.76577,1.13602 l 1.39907,-0.0417 0.36801,0.66268 c 0.60558,1.09045 0.98763,1.37073 2.00117,1.46812 0.77248,0.0743 1.08861,0.002 1.78379,-0.40496 0.46471,-0.27233 1.00114,-0.49515 1.19205,-0.49515 0.19093,0 0.50771,-0.14532 0.70397,-0.32294 0.30596,-0.27688 0.41445,-0.28695 0.7609,-0.0706 0.2236,0.13965 0.86223,0.24179 1.42993,0.2287 0.83866,-0.0193 1.12847,0.0627 1.58803,0.44937 0.30918,0.26016 0.88461,0.52458 1.27873,0.5876 1.14398,0.18293 1.31627,0.36537 0.8251,0.87366 -0.22937,0.23736 -0.59148,0.62327 -0.80468,0.85757 -0.40023,0.43985 -1.58124,0.60302 -1.8002,0.24872 -0.0603,-0.0975 -0.25699,-0.18159 -0.43719,-0.18685 -0.18018,-0.005 -0.45541,-0.0131 -0.61161,-0.0174 -0.1562,-0.004 -0.71001,0.0335 -1.23068,0.0839 -0.71223,0.069 -1.12918,-0.003 -1.68358,-0.28965 -0.88404,-0.45758 -1.25075,-0.26213 -0.91026,0.48516 0.11934,0.26193 0.16603,0.609 0.1038,0.77126 -0.18049,0.47033 -1.9292,1.27275 -2.4751,1.13575 -0.9744,-0.24457 -3.46122,-0.27377 -3.65417,-0.0429 -0.1039,0.1243 -0.35565,0.44897 -0.55945,0.7215 -0.25031,0.33471 -0.62291,0.53586 -1.14823,0.61986 -1.04048,0.16638 -0.88345,0.54579 0.30736,0.74265 1.42819,0.23608 1.95026,0.20252 3.48758,-0.22417 1.52853,-0.42426 2.08269,-0.38444 2.08269,0.14967 0,0.28841 0.23786,0.35626 1.62174,0.46264 1.29094,0.0992 1.70507,0.0663 2.03016,-0.16141 0.45691,-0.32002 2.87791,-0.40675 3.06151,-0.10967 0.15706,0.25412 -0.6549,0.76979 -1.21747,0.77319 -0.63281,0.004 -0.82997,0.16059 -1.12767,0.89662 -0.33928,0.83881 -0.008,1.27348 0.8277,1.08435 1.10074,-0.24927 3.85689,-0.31204 4.25874,-0.0969 0.70025,0.37476 0.47458,1.06926 -0.31465,0.96833 -0.71805,-0.0918 -1.79182,0.98196 -1.48247,1.48248 0.16717,0.27051 1.91758,0.59176 2.54289,0.46668 0.99396,-0.19878 4.274,1.70281 3.62695,2.10272 -0.11655,0.072 -0.41674,-0.003 -0.6671,-0.16729 -0.25035,-0.16405 -1.02014,-0.51091 -1.71064,-0.77081 -1.16984,-0.44033 -1.29361,-0.45279 -1.81549,-0.18293 -0.50977,0.26362 -0.54858,0.3508 -0.43225,0.97091 0.12362,0.6589 0.11178,0.67727 -0.36008,0.55884 -0.26834,-0.0673 -0.54074,-0.0369 -0.60533,0.0676 -0.20786,0.33631 -1.02853,0.20653 -1.27684,-0.20192 -0.20715,-0.34074 -1.43462,-1.02689 -2.46297,-1.37678 -0.18223,-0.062 -0.33134,-0.24321 -0.33134,-0.40269 0,-0.52554 -0.51831,-0.30176 -0.63335,0.27345 -0.20912,1.04555 0.69567,2.03457 2.14803,2.34802 0.26035,0.0561 0.55855,0.29136 0.66268,0.52261 0.11729,0.26046 0.47694,0.49976 0.94517,0.62888 0.45483,0.12543 0.78087,0.33837 0.81867,0.5347 0.11445,0.59427 -0.48885,0.55274 -1.93423,-0.13316 -0.78551,-0.37275 -1.64635,-0.67774 -1.91299,-0.67774 -0.26665,0 -0.79068,-0.1278 -1.16453,-0.284 -0.37384,-0.1562 -0.8414,-0.284 -1.03902,-0.284 -0.19763,0 -0.69674,-0.213 -1.10914,-0.47334 -1.17204,-0.73989 -1.70604,-0.50977 -1.09342,0.47119 0.36393,0.58273 -0.0465,0.88223 -0.78809,0.57507 -0.31747,-0.13151 -0.76127,-0.19097 -0.98622,-0.13215 -0.22495,0.0588 -0.65547,-0.0205 -0.95672,-0.17628 -0.50897,-0.2632 -0.60403,-0.25143 -1.34367,0.16633 -0.47214,0.26668 -0.76731,0.55934 -0.72554,0.71939 0.0387,0.14839 0.1123,0.41788 0.16349,0.59884 0.0514,0.18165 -0.0225,0.36248 -0.16509,0.40369 -0.14198,0.041 -0.62001,0.18344 -1.06229,0.31643 -0.66271,0.19926 -0.94577,0.19616 -1.60936,-0.0176 -0.44286,-0.14266 -1.6268,-0.27312 -2.63097,-0.2899 -1.00417,-0.0168 -2.37574,-0.0894 -3.04794,-0.1614 -1.13972,-0.12205 -1.26218,-0.0973 -1.81543,0.36832 -0.6738,0.56697 -0.76949,0.55529 -2.7344,-0.33367 l -1.2821,-0.58004 -1.08459,0.30132 c -0.59653,0.16573 -1.53482,0.36096 -2.08507,0.43383 -0.65631,0.0869 -1.26859,0.32673 -1.77991,0.69714 -0.5571,0.40355 -1.13593,0.61578 -2.02892,0.7439 -0.6872,0.0986 -1.71806,0.26836 -2.2908,0.37725 -0.57274,0.10891 -1.50995,0.1892 -2.08269,0.17845 -1.67286,-0.0315 -4.93607,-0.57825 -5.98525,-1.00295 -0.86841,-0.35151 -1.0937,-0.36985 -2.19287,-0.17843 -0.67376,0.11733 -1.52713,0.21333 -1.89636,0.21333 -0.36922,0 -0.77727,0.12766 -0.90677,0.2837 -0.14907,0.17961 -0.2949,1.40564 -0.3975,3.3417 -0.20077,3.78888 -0.37413,4.74756 -1.12884,6.24263 -0.35749,0.70818 -0.77315,2.03341 -1.03726,3.30702 -0.2424,1.16891 -0.57206,2.56755 -0.73259,3.1081 -0.16052,0.54055 -0.347274,1.84794 -0.414997,2.9053 -0.143477,2.24005 0.01078,2.76189 1.218377,4.12184 0.42685,0.48071 0.72209,0.92801 0.65609,0.99402 -0.18712,0.18711 -8.731068,0.14093 -8.847725,-0.0479 z m 5.626402,-13.51169 c 0.157726,-0.33844 0.389897,-1.12172 0.515936,-1.74063 0.12604,-0.61891 0.615078,-1.86472 1.086759,-2.76848 0.6345,-1.21575 0.82633,-1.76776 0.7374,-2.12207 -0.1278,-0.5092 -1.739459,-2.59894 -2.004367,-2.59894 -0.08645,0 -0.630111,0.38934 -1.208133,0.8652 -1.419911,1.16895 -1.440254,1.28267 -0.861252,4.81488 0.1875,1.14384 0.853427,3.69991 1.048201,4.02338 0.173055,0.2874 0.405835,0.12665 0.685456,-0.47334 z m -1.935466,-9.9301 c 0.780134,-0.46085 0.824305,-0.77473 0.229838,-1.63326 -1.230945,-1.77773 -3.540104,-3.67444 -3.210218,-2.63683 0.404328,1.27178 1.542197,3.98699 1.78527,4.26006 0.366394,0.41162 0.513181,0.41285 1.19511,0.01 z m 5.005221,-0.72263 c 0,-0.24586 -0.14751,-0.39703 -0.42601,-0.43658 -0.31373,-0.0446 -0.42601,0.0345 -0.42601,0.29978 0,0.19816 0.0598,0.42003 0.13277,0.49305 0.25117,0.25117 0.71925,0.0193 0.71925,-0.35625 z m -3.002254,-1.70384 c 0.114265,-0.29777 -0.229712,-0.8496 -0.52959,-0.8496 -0.298139,0 -0.401966,0.56071 -0.15821,0.85442 0.298792,0.36002 0.548467,0.35827 0.6878,-0.005 z m -6.886233,-0.0177 c 0.09301,-0.093 -0.721969,-2.63218 -0.928477,-2.89276 -0.03174,-0.04 -0.294743,0.0159 -0.584454,0.12426 -0.289708,0.10838 -0.691414,0.25096 -0.892677,0.31681 -0.317317,0.1038 -0.204847,0.28229 0.846541,1.34311 1.21719,1.2281 1.347144,1.3205 1.559067,1.10858 z m 9.779827,-0.72039 c 0.13551,-0.16328 0.15117,-0.31075 0.0403,-0.37929 -0.27191,-0.16805 -0.78363,0.0819 -0.78363,0.38269 0,0.3419 0.45853,0.3398 0.74336,-0.003 z m -5.010178,-2.33622 c 0.921357,-0.45464 0.827532,-0.96461 -0.277239,-1.50688 -1.107339,-0.54353 -1.204566,-0.53537 -1.03609,0.0868 0.07754,0.28637 0.126705,0.79757 0.109261,1.13602 -0.03718,0.72141 0.202893,0.77803 1.204068,0.284 z m 5.166178,-1.85647 c 0.3189,-0.0975 0.30119,-0.93098 -0.0255,-1.20214 -0.14422,-0.11969 -0.80453,-0.26798 -1.46737,-0.32954 -1.018589,-0.0946 -1.275512,-0.0548 -1.659695,0.25715 -0.359127,0.2916 -0.427528,0.47674 -0.325837,0.8819 0.116782,0.46531 0.188179,0.50168 0.770278,0.39248 0.352862,-0.0662 0.797168,-0.0333 0.987351,0.0732 0.306063,0.17128 1.020803,0.14096 1.720803,-0.073 z m 0.80468,-1.85973 c 0,-0.53375 -0.47037,-1.02526 -0.61569,-0.64335 -0.1225,0.3219 0.17404,1.0935 0.42025,1.0935 0.10749,0 0.19544,-0.20256 0.19544,-0.45015 z m 5.03399,-0.0232 c 0.27901,-0.30105 0.64423,-0.47334 1.0034,-0.47334 0.79532,0 1.53606,-0.31731 1.53606,-0.65798 0,-0.21137 -0.20621,-0.28869 -0.7698,-0.28869 -0.89119,0 -1.50223,-0.27226 -1.50223,-0.66934 0,-0.32021 0.10897,-0.34627 1.5097,-0.36106 0.84659,-0.009 1.04899,-0.0742 1.10528,-0.35638 0.092,-0.46095 -0.48733,-1.07459 -1.01445,-1.07459 -0.28858,0 -0.45964,-0.14412 -0.53703,-0.45246 -0.1165,-0.46414 -0.58456,-0.76787 -0.89125,-0.57833 -0.32669,0.20191 -0.17289,1.00887 0.24855,1.30405 0.41058,0.28759 0.35111,0.36581 -0.23699,0.31173 -0.39395,-0.0362 -1.34303,1.00585 -1.99453,2.18996 -0.45525,0.82743 -0.49896,1.02226 -0.28671,1.27802 0.38556,0.46456 1.3218,0.37677 1.83,-0.17159 z m -12.088577,-1.51252 c 0.503601,-0.77072 0.617155,-1.13239 0.617155,-1.96561 0,-0.96033 -0.04921,-1.06749 -0.826896,-1.80085 -0.454794,-0.42887 -1.559356,-1.49079 -2.454585,-2.35982 -0.895231,-0.86903 -1.737243,-1.5433 -1.871139,-1.49837 -0.321146,0.10776 -0.211816,2.6744 0.17535,4.11655 0.154237,0.57451 0.354553,1.67371 0.445145,2.44266 0.223791,1.89957 0.459631,2.13621 2.058035,2.06511 l 1.239782,-0.0552 z m 4.103365,0.28052 c 0.427686,-0.26455 0.648142,-0.29711 0.981942,-0.14502 0.96998,0.44195 1.46061,-0.52744 0.50191,-0.99171 -0.28637,-0.13868 -0.989277,-0.31635 -1.562018,-0.39481 -0.57274,-0.0785 -1.27565,-0.2016 -1.56202,-0.27365 -0.512525,-0.12895 -0.520674,-0.11712 -0.520674,0.75554 0,1.28564 0.257912,1.67411 1.007177,1.51704 0.331198,-0.0695 0.850355,-0.27976 1.153683,-0.46739 z m -10.494933,-1.42869 c -0.273122,-0.82757 -0.913006,-1.2652 -1.734659,-1.18636 -1.005482,0.0965 -0.838982,0.67994 0.363588,1.27408 0.601258,0.29706 0.99299,0.61463 0.994013,0.80584 0.0024,0.44464 0.46217,0.55192 0.535956,0.12504 0.03351,-0.19388 -0.03799,-0.65225 -0.158898,-1.0186 z m -7.414174,0.61148 c 0.05789,-0.30057 0.01899,-0.31171 -0.329163,-0.0942 -0.479634,0.29953 -0.517287,0.58549 -0.06564,0.49852 0.18104,-0.0349 0.358701,-0.21678 0.394803,-0.40424 z m 40.896369,-1.57408 c 0.61831,-0.17975 1.26672,-0.52431 1.54383,-0.82038 0.26277,-0.28077 0.83271,-0.73426 1.26653,-1.00778 0.94244,-0.59418 1.16533,-0.89129 0.66862,-0.89129 -0.49521,0 -2.7492,1.03739 -3.05526,1.40618 -0.14145,0.17044 -0.54012,0.29784 -0.93202,0.29784 -0.65587,0 -2.29598,0.54834 -2.29746,0.76812 -9.4e-4,0.14243 0.95574,0.51205 1.39017,0.53708 0.19224,0.011 0.82926,-0.11932 1.41559,-0.28977 z m -22.01632,-1.10667 c 0.27051,-2.16504 -0.26782,-2.65155 -1.551052,-1.40176 -1.267582,1.23454 -1.356648,1.47426 -0.743671,2.00151 0.364475,0.31351 0.744894,0.43816 1.337218,0.43816 h 0.827825 z m 28.11071,-0.14544 c 0.47164,-0.77355 0.47268,-1.71069 0.003,-2.74537 -0.41585,-0.91612 -0.63153,-0.99114 -1.04322,-0.36284 -0.23648,0.36092 -0.24958,0.56031 -0.0716,1.08869 0.11987,0.35575 0.3003,0.75226 0.40098,0.8811 0.28681,0.36705 0.0238,0.77387 -0.54354,0.84076 -0.66732,0.0787 -0.79892,0.48427 -0.23097,0.7119 0.77137,0.30917 1.1001,0.21749 1.48527,-0.41424 z m -23.95306,-0.142 c 0.21259,-0.2349 0.58315,-0.37867 0.97604,-0.37867 0.42225,0 0.63332,-0.0901 0.63332,-0.27011 0,-0.31124 -1.99288,-1.51178 -2.24791,-1.35416 -0.0934,0.0577 -0.2252,0.47458 -0.29296,0.9264 -0.20523,1.36859 0.2212,1.86142 0.93151,1.07654 z m -57.122632,-0.2272 c 0.370165,-0.37016 0.261237,-1.02865 -0.27572,-1.66679 -0.492249,-0.585 -0.527414,-0.5949 -1.656689,-0.46617 -2.046623,0.23331 -2.539286,0.84548 -0.680426,0.84548 1.009791,0 1.136016,0.0421 1.136016,0.37866 0,0.42559 0.627544,1.13602 1.003479,1.13602 0.135375,0 0.348378,-0.10229 0.47334,-0.2272 z m 36.399741,-0.81901 c 1.299608,-0.67205 0.296902,-2.17021 -1.453572,-2.17178 -1.028292,-9.6e-4 -1.382005,0.39182 -0.840528,0.93329 0.215237,0.21524 0.39134,0.47654 0.39134,0.58068 0,0.29446 0.723919,0.94668 1.050749,0.94668 0.161373,0 0.544779,-0.12999 0.852011,-0.28887 z m 3.019971,-0.5975 c 0,-0.27949 -0.07986,-0.41198 -0.202604,-0.33612 -0.256528,0.15854 -0.539036,0.88979 -0.420985,1.08969 0.162071,0.27442 0.623589,-0.2833 0.623589,-0.75357 z m 15.7893,0.58688 c 0.32754,-0.85356 -0.0214,-1.86432 -0.57083,-1.65349 -0.31844,0.12221 -0.33798,0.81939 -0.0412,1.47073 0.25215,0.5534 0.44742,0.61171 0.61203,0.18276 z M 86.043867,107.3349 c 0.359371,-0.79694 0.290209,-1.33553 -0.171504,-1.33553 -0.311985,0 -0.767605,1.38133 -0.59983,1.81853 0.172702,0.45006 0.420577,0.29484 0.771334,-0.483 z m 10.600061,-0.23388 c 0.548004,-1.84533 0.339704,-2.427 -0.869128,-2.427 -0.626557,0 -0.771534,0.097 -1.287484,0.8615 -0.319782,0.47382 -0.581422,0.89685 -0.581422,0.94006 0,0.15219 1.990951,1.58488 2.217361,1.59561 0.126133,0.006 0.360436,-0.4306 0.520673,-0.97017 z m 9.947502,0.31243 c 0,-0.15948 -0.13353,-0.3412 -0.29673,-0.40382 -0.35609,-0.13664 -0.74442,0.19842 -0.56548,0.48793 0.19288,0.31208 0.86221,0.24678 0.86221,-0.0842 z m -7.681662,-0.76493 c 0.348896,-0.3489 0.367812,-0.54272 0.101533,-1.04028 -0.410461,-0.76694 -1.129354,-0.34742 -1.129354,0.65906 0,0.7307 0.494816,0.91423 1.027821,0.38122 z m 28.389422,-1.07056 c 0.2955,-0.46848 -0.13029,-0.83007 -1.52337,-1.29366 -1.14282,-0.3803 -1.25835,-0.38791 -1.54448,-0.10176 -0.45283,0.45282 -0.0652,0.94176 0.84566,1.06665 0.40841,0.056 0.9516,0.24823 1.20709,0.42718 0.52132,0.36514 0.73582,0.34435 1.0151,-0.0984 z m -22.22246,-0.1466 c 0,-0.21038 -0.12622,-0.37868 -0.284,-0.37868 -0.28825,0 -0.38838,0.40053 -0.15778,0.63113 0.24004,0.24004 0.44178,0.12475 0.44178,-0.25245 z m -12.117515,-0.37868 c 0,-0.10412 -0.09023,-0.18933 -0.20051,-0.18933 -0.110281,0 -0.147852,0.0852 -0.08349,0.18933 0.06436,0.10412 0.154589,0.18934 0.20051,0.18934 0.04592,0 0.08349,-0.0852 0.08349,-0.18934 z m 9.077565,-0.36811 c 0.20247,-0.20245 0.69238,-0.42624 1.08869,-0.49731 0.82792,-0.14847 1.23318,-0.4564 1.79326,-1.36264 0.35116,-0.56816 0.37181,-0.73035 0.17618,-1.3833 -0.15742,-0.52545 -0.35263,-0.77256 -0.67397,-0.85322 -0.2488,-0.0625 -0.59964,-0.27627 -0.77964,-0.47517 -0.48767,-0.538867 -0.75896,-0.448057 -1.38655,0.4641 -0.93869,1.36433 -1.21506,2.25422 -1.06732,3.43671 0.14053,1.1247 0.28298,1.23721 0.84935,0.67083 z m -2.338619,-1.5973 c 0.05517,-0.14377 -0.03271,-0.96259 -0.195278,-1.81961 -0.162572,-0.85701 -0.295587,-1.589434 -0.295587,-1.627594 0,-0.03821 -0.20608,-0.204418 -0.457955,-0.369453 -0.424694,-0.278268 -0.513536,-0.27171 -1.22314,0.09027 -0.420851,0.214701 -0.964901,0.390363 -1.208999,0.390363 -0.244097,0 -0.853367,0.259744 -1.353933,0.577194 -0.867473,0.55013 -0.895175,0.59369 -0.591143,0.92965 0.175438,0.19385 0.523215,0.40372 0.772833,0.46638 0.24962,0.0627 1.159261,0.45048 2.021426,0.86186 1.65588,0.79009 2.366828,0.93075 2.531776,0.50091 z m 23.807549,-0.71674 c 0.14587,-0.23167 0.12612,-0.40286 -0.0744,-0.64443 -0.15016,-0.18093 -0.24637,-0.48628 -0.21379,-0.67855 0.0883,-0.52174 -0.51894,-0.42691 -1.24473,0.19435 l -0.61749,0.52856 0.71216,0.50857 c 0.77629,0.5544 1.13246,0.57705 1.43822,0.0914 z m 2.96597,-1.58384 c 0,-0.30231 -0.50319,-0.59534 -0.69423,-0.40428 -0.0604,0.0604 -0.0595,0.24136 0.002,0.40206 0.1452,0.37839 0.69201,0.38015 0.69201,0.002 z m -25.18834,-1.021197 c 0.54216,-1.157511 0.42533,-1.574935 -0.41805,-1.493657 -0.56821,0.05474 -0.6214,0.117505 -0.67716,0.798727 -0.0775,0.946487 0.0943,1.627407 0.41043,1.627407 0.13642,0 0.44457,-0.41962 0.68478,-0.932477 z m 8.43212,0.585357 c 0,-0.34245 -0.37058,-0.27993 -0.44409,0.0749 -0.0409,0.19743 0.0301,0.28398 0.18934,0.2309 0.14011,-0.0467 0.25475,-0.18432 0.25475,-0.30581 z M 74.536013,99.832935 c 0.03647,-0.11129 -0.147919,-0.317007 -0.409753,-0.457129 -0.377012,-0.201778 -0.578888,-0.207928 -0.970285,-0.02963 -0.41528,0.189219 -0.455931,0.271323 -0.254492,0.514041 0.270258,0.325653 1.525745,0.304663 1.63453,-0.02726 z m -5.641625,-0.54313 c 0.252543,-0.156083 0.278452,-0.674535 0.0337,-0.674535 -0.09614,0 -0.428586,-0.213542 -0.738756,-0.474529 -0.658374,-0.553981 -1.061867,-0.471437 -1.460137,0.298738 -0.516915,0.999604 -0.403961,1.141636 0.839833,1.056043 0.614259,-0.04229 1.210667,-0.13484 1.325351,-0.205717 z m 23.722317,-0.473004 c 0.256245,-0.201563 0.938435,-0.57545 1.515981,-0.830876 1.278849,-0.565564 1.458285,-0.803928 0.716814,-0.952224 -0.724873,-0.144974 -0.723708,-0.561736 0.0031,-1.099069 0.312403,-0.230971 0.568007,-0.515785 0.568007,-0.632921 0,-0.326873 -1.080039,-1.287442 -1.296882,-1.153426 -0.296161,0.183038 -0.498084,-0.28091 -0.505533,-1.161536 -0.0089,-1.049706 -0.271816,-1.315439 -1.002231,-1.012891 -0.775512,0.321229 -1.789262,1.41359 -1.708199,1.840666 0.04372,0.230351 0.261753,0.372674 0.63308,0.413259 0.311514,0.03405 0.643719,0.136938 0.738234,0.228646 0.254493,0.246937 -0.204292,0.707044 -0.845433,0.847862 -0.304013,0.06678 -0.608947,0.212329 -0.677628,0.323459 -0.202211,0.327182 -0.117121,1.185407 0.214315,2.161625 0.504774,1.486787 0.815729,1.680836 1.646402,1.027426 z m 24.657015,-0.917832 c 0.40819,-0.282905 0.76522,-0.59958 0.7934,-0.703717 0.0733,-0.271017 -1.01875,-1.090569 -1.257,-0.943316 -0.39481,0.244001 -1.12252,1.596036 -1.01285,1.881796 0.1629,0.424519 0.63308,0.349767 1.47645,-0.234763 z m -7.0457,-1.970915 c -0.31048,-0.310481 -0.70295,0.08199 -0.53074,0.530743 0.11843,0.308617 0.14757,0.309545 0.44303,0.01408 0.24702,-0.247025 0.26623,-0.366304 0.0877,-0.544821 z m -51.529967,-0.06851 c 0.190292,-0.229289 0.560417,-0.281623 1.673793,-0.236669 1.158177,0.04677 1.44065,0.0031 1.488359,-0.22995 0.125599,-0.61358 -0.412599,-0.936665 -2.034754,-1.221481 -2.450177,-0.430195 -2.581095,-0.411466 -2.851527,0.407951 -0.219441,0.664909 -0.204646,0.717938 0.316653,1.135073 0.638935,0.511268 1.06695,0.555385 1.407476,0.145076 z m 29.382371,-1.977643 c 0.130066,-0.20827 0.343792,-0.378672 0.474945,-0.378672 0.344697,0 0.293654,-0.69565 -0.06103,-0.831754 -0.532162,-0.20421 -0.897563,-0.123591 -1.344996,0.29675 -0.47798,0.44904 -0.57588,1.015903 -0.201538,1.166954 0.499683,0.201628 0.905154,0.110954 1.13262,-0.253278 z m -28.021202,-1.78488 c 0.225871,-0.329862 0.171003,-0.461318 -0.329387,-0.789187 -0.382207,-0.250431 -0.529239,-0.265156 -0.757343,-0.07585 -0.155679,0.129205 -0.283055,0.390653 -0.283055,0.580996 0,0.647773 0.981378,0.85127 1.369785,0.284041 z m 26.440869,0.287616 c 0.458018,-0.290068 0.08039,-1.038745 -0.944435,-1.872399 -1.029349,-0.837339 -1.43966,-0.971487 -1.610413,-0.526517 -0.16001,0.416981 0.263413,1.03861 0.799016,1.173036 0.374339,0.09395 0.460425,0.209837 0.381131,0.513057 -0.188781,0.7219 0.66298,1.163561 1.374701,0.712823 z M 64.742899,87.166842 c 0.12673,-0.152701 0.197803,-0.375485 0.157938,-0.495077 -0.06409,-0.192282 -1.724267,-0.930752 -2.093347,-0.931154 -0.269127,-3.78e-4 -0.141354,1.012093 0.171347,1.357623 0.378238,0.41795 1.439869,0.459238 1.764062,0.06861 z m 11.549217,-2.893736 c -0.0088,-0.52418 -1.094563,-1.582631 -1.832519,-1.78639 -1.396395,-0.385565 -1.631438,1.018907 -0.289122,1.72762 0.9259,0.488855 2.129403,0.522192 2.121641,0.05877 z M 125.9287,77.295758 c 0.84959,-0.653744 1.1178,-0.972336 1.07429,-1.276082 -0.0861,-0.601211 -0.55368,-0.583774 -1.19398,0.04452 -0.7384,0.724551 -1.42002,1.634697 -1.42002,1.896099 0,0.384095 0.40293,0.210188 1.53971,-0.664544 z m -8.63871,0.490831 c 0.0649,-0.105108 -0.14172,-0.33941 -0.45927,-0.520674 -0.31757,-0.181264 -0.68104,-0.585175 -0.80773,-0.897578 l -0.23034,-0.568008 -0.0695,0.845145 c -0.0528,0.643385 0.01,0.903284 0.26364,1.08868 0.39733,0.290529 1.13757,0.320315 1.30313,0.05244 z m 4.02749,-0.292974 c 0.48588,-0.340316 0.55001,-0.803576 0.13341,-0.963447 -0.43062,-0.16524 -1.41662,0.30917 -1.41662,0.681594 0,0.64488 0.58232,0.772783 1.28321,0.281853 z m 2.25451,-0.09654 c 1.33375,-0.505345 1.84245,-1.716199 0.87545,-2.08385 -1.00825,-0.383334 -1.41428,-0.174961 -1.68702,0.86578 -0.40302,1.537888 -0.32834,1.649967 0.81157,1.21807 z m -5.62042,-0.555395 c 0,-0.10413 -0.0852,-0.189336 -0.18934,-0.189336 -0.10412,0 -0.18933,0.0852 -0.18933,0.189336 0,0.104131 0.0852,0.189336 0.18933,0.189336 0.10412,0 0.18934,-0.0852 0.18934,-0.189336 z m 0.0175,-3.124041 c -0.001,-0.10413 -0.17629,-0.216562 -0.38868,-0.249838 -0.38079,-0.05966 -0.51229,0.155274 -0.2534,0.414164 0.1841,0.184102 0.64512,0.06611 0.64208,-0.164326 z"
       id="path984" />
    <path
       id="rect1212"
       style="fill:#ffffff;fill-opacity:1;stroke-width:3.1457;stroke-linecap:square;stroke-linejoin:round"
       d="m -87.085655,-58.134173 c -0.106862,0 -0.192791,0.08656 -0.192791,0.19343 V 319.13636 c 0,0.10679 0.08591,0.1928 0.192791,0.1928 H 269.35392 c 0.10678,0 0.1928,-0.0858 0.1928,-0.1928 V -57.940743 c 0,-0.106862 -0.086,-0.19343 -0.1928,-0.19343 z M 91.134138,47.050036 A 83.547816,83.547816 0 0 1 174.68159,130.59748 83.547816,83.547816 0 0 1 91.134138,214.14559 83.547816,83.547816 0 0 1 7.586023,130.59748 83.547816,83.547816 0 0 1 91.134138,47.050036 Z" />
  </g>
</svg>
