<?xml version="1.0" encoding="UTF-8"?>
<svg id="headerlogo" width="24.456mm" height="24.456mm" version="1.1" viewBox="0 0 86.656 86.656" xmlns="http://www.w3.org/2000/svg" xmlns:cc="http://creativecommons.org/ns#" xmlns:dc="http://purl.org/dc/elements/1.1/" xmlns:rdf="http://www.w3.org/1999/02/22-rdf-syntax-ns#">
 <metadata>
  <rdf:RDF>
   <cc:Work rdf:about="">
    <dc:format>image/svg+xml</dc:format>
    <dc:type rdf:resource="http://purl.org/dc/dcmitype/StillImage"/>
   </cc:Work>
  </rdf:RDF>
 </metadata>
 <g transform="matrix(.30064 0 0 .30064 -91.701 -83.09)" fill-rule="evenodd">
  <g transform="matrix(.51281 .39673 -.39673 .51281 527.48 97.456)" fill="#415b90">
   <path d="m239.14 282.68-34.33 163.22s-4.0699 2.7689-7.1973 9.849c-2.7617 6.2521-53.401 150.94-51.265 154.68 2.069 3.6247 7.955 5.5558 11.617 4.672 3.6618-0.88388 10.607-6.1872 10.228-9.2176-0.37881-3.0305-0.75762-8.9651 0.37881-12.753 1.1364-3.7881 33.714-118.06 33.714-118.06l7.4491 0.15933 0.89286-5.3572s-3.0357-0.89285-2.6786-5.1786c0.35714-4.2857 3.5714-5.4464 4.8214-5.625 1.25-0.17857 1.8416-0.19481 1.8416-0.19481s7.801-15.298 10.301-23.466c6.7974-22.207 11.698-65.595 14.554-85.714 2.8559-20.119 3.7775-40.536 3.5714-47.5-0.22147-7.484-3.8979-19.508-3.8979-19.508z"/>
   <path d="m190.19 282.68 34.329 163.22s4.0699 2.7689 7.1973 9.849c2.7617 6.2521 53.401 150.94 51.265 154.68-2.069 3.6247-7.955 5.5558-11.617 4.672-3.6618-0.88388-10.607-6.1872-10.228-9.2176 0.37881-3.0305 0.75762-8.9651-0.37881-12.753-1.1364-3.7881-33.714-118.06-33.714-118.06l-7.4491 0.15933-0.89286-5.3572s3.0357-0.89285 2.6786-5.1786c-0.35714-4.2857-3.5714-5.4464-4.8214-5.625-1.25-0.17857-1.8416-0.19481-1.8416-0.19481s-7.801-15.298-10.301-23.466c-6.7974-22.207-11.698-65.595-14.554-85.714-2.8559-20.119-3.7775-40.536-3.5714-47.5 0.22147-7.484 3.8979-19.508 3.8979-19.508z"/>
  </g>
  <circle cx="449.14" cy="420.49" r="141" fill="none" stroke="#415b90" stroke-width="6.2367"/>
 </g>
 <flowRoot transform="translate(-9.549 -5.0206)" fill="#000000" font-family="sans-serif" font-size="10px" letter-spacing="0px" word-spacing="0px" line-height="125%" xml:space="preserve"><flowRegion fill="#000000"><rect x="-109.82" y="23.791" width="133.93" height="63.929" fill="#000"/></flowRegion><flowPara/></flowRoot>
 <flowRoot transform="translate(-9.549 -5.0206)" fill="#000000" font-family="sans-serif" font-size="7.5px" letter-spacing="0px" word-spacing="0px" line-height="125%" xml:space="preserve"><flowRegion fill="#000000"><rect x="-112.5" y="20.398" width="124.82" height="67.857" fill="#000"/></flowRegion><flowPara/></flowRoot>
</svg>
