<?xml version="1.0" encoding="UTF-8"?>
<!-- Created with Inkscape (http://www.inkscape.org/) -->
<svg width="24.456mm" height="24.456mm" version="1.1" viewBox="0 0 24.456 24.456" xmlns="http://www.w3.org/2000/svg">
 <circle cx="12.228" cy="12.228" r="11.964" fill="none" stroke="#415b90" stroke-width=".52917"/>
 <g transform="matrix(.47069 .4857 -.4857 .47069 14.631 -1.7141)">
  <rect width="24" height="24" fill="none"/>
 </g>
 <path d="m6.0087 19.481c-0.33689-0.12027-0.60212-0.36007-0.75222-0.68008-0.074109-0.158-0.084389-0.22142-0.084389-0.52057s0.010283-0.36257 0.084389-0.52057c0.15304-0.32628 0.41795-0.56244 0.76476-0.68176 0.15928-0.0548 0.27473-0.06295 0.89164-0.06295h0.70867v-0.29199h-2.5954v-1.7844h0.87511l0.00854-1.1112 0.00854-1.1112 1.3139-0.0176v-4.4434h1.9158c2.1337 0 2.1783 0.00366 2.6157 0.21653 0.2584 0.12573 0.53884 0.39078 0.65559 0.61963 0.1134 0.22228 0.15724 0.49211 0.24627 1.516 0.04655 0.53531 0.10571 1.1923 0.13148 1.4599 0.06154 0.63928 0.24242 2.6574 0.24242 2.7046 0 0.05393 0.51724 0.05033 0.53281-0.0037 0.0064-0.02231 0.03512-0.57343 0.06377-1.2247 0.02864-0.6513 0.07558-1.6799 0.10432-2.2858l0.05224-1.1016 0.21552-0.23327c0.11854-0.1283 0.98135-1.0527 1.9174-2.0541l1.7019-1.8209 0.3022-0.55694c0.16621-0.30632 0.30799-0.56273 0.31506-0.5698 0.01948-0.01948 0.48331 0.12984 0.52542 0.16915 0.02024 0.018885 0.11236 0.32633 0.20472 0.6832 0.09236 0.35687 0.20601 0.78558 0.25256 0.95268 0.07489 0.2688 0.07934 0.3118 0.03861 0.3731-0.05081 0.076481-0.08015 1.1625-0.11204 4.149l-0.01689 1.5816h0.10795c0.05938 0 0.12547 0.01752 0.14689 0.03894 0.05588 0.05588 0.04856 0.21895-0.01086 0.24175-0.02738 0.01049-0.12845 0.15239-0.22461 0.3153l-0.17483 0.2962 0.06346 0.10287c0.19399 0.31453 0.3165 1.0105 0.22609 1.2845-0.05358 0.16235-0.27463 0.40208-0.45506 0.49351-0.31796 0.16112-0.4723 0.17929-1.5231 0.17929h-0.97672v-0.07912c0-0.06967 0.01842-0.08175 0.1541-0.10115 0.08476-0.01213 0.2465-0.03857 0.35942-0.05876l0.20531-0.03673 0.10861-0.29199c0.05973-0.1606 0.22799-0.61318 0.3739-1.0057 0.14591-0.39256 0.27186-0.76485 0.2799-0.8273 0.0081-0.06245-0.01463-0.44934-0.05038-0.85974-0.03575-0.4104-0.13361-1.5784-0.21747-2.5954-0.08386-1.0171-0.16234-1.8606-0.1744-1.8744-0.012-0.013833-0.10721 0.095659-0.21144 0.24332-0.18058 0.25582-0.28988 0.48256-0.80193 1.6635-0.10832 0.24981-0.25507 0.5856-0.32612 0.74619-0.07105 0.16059-0.1405 0.36498-0.15433 0.4542-0.02158 0.13917-0.2171 0.61015-0.87546 2.1088-0.1236 0.28136-0.13007 0.31384-0.17762 0.89218-0.06029 0.7333-0.14615 1.8507-0.14646 1.906-1.62e-4 0.03127-0.17191 0.04055-0.74986 0.04055h-0.74963l0.02364 0.3001c0.013 0.16506 0.03295 0.3658 0.04434 0.44609l0.02071 0.14599 0.72963 0.01622c0.70362 0.01564 0.73612 0.01927 0.91196 0.10171 0.32521 0.15249 0.58859 0.4437 0.6947 0.76811l0.05507 0.16836h0.67111l0.019-0.50287h0.25954l0.0087 0.6002 0.0087 0.6002 0.13754 0.12977c0.07565 0.07138 0.16522 0.16262 0.19903 0.20277l0.06149 0.07299h-0.78869v-0.61886l-0.59068 0.0186-0.04922 0.14582c-0.10236 0.3033-0.37165 0.59441-0.68638 0.74198l-0.18233 0.08549-4.2663 0.0059c-4.0863 0.0057-4.2734 0.0034-4.4354-0.05439zm5.9157-4.5504c-0.011749-0.11153-0.072009-0.77945-0.13401-1.4843-0.31459-3.5762-0.30246-3.4623-0.3866-3.6284-0.089633-0.17689-0.30984-0.39208-0.50102-0.48962-0.98531-0.12681-2.6649-0.067196-2.6649-0.067196l0.021628 5.8506s2.2927 0.02163 3.6861 0.02163zm6.8494-1.6126c0.04015-0.07032 0.07299-0.1359 0.07299-0.14574 0-0.0099-0.0584-0.0179-0.12977-0.0179-0.12931 0-0.12977 4.61e-4 -0.12977 0.12707 0 0.11004 0.02508 0.15181 0.09733 0.16211 9e-3 0.0013 0.04907-0.05522 0.08922-0.12552zm0.12287-2.0697c-0.0092-0.86988-0.02788-2.0109-0.04145-2.5356-0.02129-0.82396-0.03084-0.94655-0.07003-0.89927-0.03633 0.043837-0.05681 0.4537-0.10277 2.0571-0.03157 1.1013-0.06531 2.2177-0.07499 2.4809l-0.0176 0.47854h0.32364zm-3.6503 0.47679c0.14369-0.32861 0.29664-0.63442 0.33989-0.67956 0.06723-0.07018 0.46282-0.92284 0.66981-1.4437 0.08684-0.21854 0.0724-0.20126-0.62059 0.7426l-0.59286 0.80748-0.04348 0.49024c-0.04657 0.52494-0.05497 0.72138-0.02976 0.69619 0.0087-0.0087 0.13331-0.28462 0.277-0.61323z" fill="#415b90" stroke-width=".032443"/>
</svg>
